<?xml version="1.0" encoding="UTF-8"?>
<svg width="27px" height="27px" viewBox="0 0 27 27" version="1.1" xmlns="http://www.w3.org/2000/svg" xmlns:xlink="http://www.w3.org/1999/xlink">
    <!-- Generator: Sketch 62 (91390) - https://sketch.com -->
    <title>Combined Shape</title>
    <desc>Created with Sketch.</desc>
    <g id="Symbols" stroke="none" stroke-width="1" fill="none" fill-rule="evenodd">
        <g id="Top-Bar" transform="translate(-1402.000000, -6.000000)" fill="#FFFFFF" fill-rule="nonzero">
            <path d="M1415.5,6.25 C1422.81777,6.25 1428.75,12.1822271 1428.75,19.5 C1428.75,26.8177729 1422.81777,32.75 1415.5,32.75 C1408.18223,32.75 1402.25,26.8177729 1402.25,19.5 C1402.25,12.1822271 1408.18223,6.25 1415.5,6.25 Z M1415.5,7.75 C1409.01065,7.75 1403.75,13.0106542 1403.75,19.5 C1403.75,25.9893458 1409.01065,31.25 1415.5,31.25 C1421.98935,31.25 1427.25,25.9893458 1427.25,19.5 C1427.25,13.0106542 1421.98935,7.75 1415.5,7.75 Z M1419.34157,18.25 C1419.98955,18.25 1420.56963,18.6360744 1420.82412,19.2218557 L1420.87695,19.3604963 L1422.30553,23.6938296 C1422.58508,24.5417985 1422.12428,25.4558334 1421.27631,25.7353835 C1421.16743,25.7712794 1421.05519,25.79544 1420.94151,25.8075586 L1420.77014,25.8166667 L1410.16667,25.8166667 C1409.27381,25.8166667 1408.55,25.0928603 1408.55,24.2 C1408.55,24.0853515 1408.5622,23.9711925 1408.58628,23.8594323 L1408.63128,23.6938296 L1410.05985,19.3604963 C1410.27834,18.6977549 1410.89741,18.25 1411.59524,18.25 C1412.00945,18.25 1412.34524,18.5857864 1412.34524,19 C1412.34524,19.4142136 1412.00945,19.75 1411.59524,19.75 C1411.55747,19.75 1411.5229,19.7681756 1411.50132,19.7974403 L1411.48444,19.8301389 L1410.05587,24.1634722 C1410.05198,24.1752587 1410.05,24.1875896 1410.05,24.2 C1410.05,24.2515466 1410.08343,24.2952853 1410.12979,24.3107189 L1410.16667,24.3166667 L1420.77014,24.3166667 C1420.78255,24.3166667 1420.79488,24.3146865 1420.80667,24.3108009 C1420.85562,24.2946619 1420.8867,24.2492189 1420.88684,24.2003561 L1420.88094,24.1634722 L1419.45237,19.8301389 C1419.4366,19.7823122 1419.39193,19.75 1419.34157,19.75 C1418.92736,19.75 1418.59157,19.4142136 1418.59157,19 C1418.59157,18.5857864 1418.92736,18.25 1419.34157,18.25 Z M1415.49062,11.25 C1417.7222,11.25 1419.53125,13.0590494 1419.53125,15.290625 C1419.53125,17.5222006 1417.7222,19.33125 1415.49062,19.33125 C1413.25905,19.33125 1411.45,17.5222006 1411.45,15.290625 C1411.45,13.0590494 1413.25905,11.25 1415.49062,11.25 Z M1415.49062,12.75 C1414.08748,12.75 1412.95,13.8874766 1412.95,15.290625 C1412.95,16.6937734 1414.08748,17.83125 1415.49062,17.83125 C1416.89377,17.83125 1418.03125,16.6937734 1418.03125,15.290625 C1418.03125,13.8874766 1416.89377,12.75 1415.49062,12.75 Z" id="Combined-Shape"></path>
        </g>
    </g>
</svg>