<?xml version="1.0" encoding="UTF-8"?>
<svg width="18px" height="8px" viewBox="0 0 18 8" version="1.1" xmlns="http://www.w3.org/2000/svg" xmlns:xlink="http://www.w3.org/1999/xlink">
    <!-- Generator: Sketch 62 (91390) - https://sketch.com -->
    <title>Combined Shape</title>
    <desc>Created with Sketch.</desc>
    <g id="Product-Page" stroke="none" stroke-width="1" fill="none" fill-rule="evenodd">
        <g id="Single-Product-Page-Update-Copy" transform="translate(-511.000000, -923.000000)" fill="#14145A" fill-rule="nonzero">
            <g id="Group-12" transform="translate(500.000000, 907.000000)">
                <path d="M24.6464466,16.8180195 C24.8417088,16.6227573 25.1582912,16.6227573 25.3535534,16.8180195 L25.3535534,16.8180195 L27.8677108,19.3321769 L27.9411002,19.4145521 C28.2346576,19.7852633 28.2101944,20.3253395 27.8677108,20.6678231 L27.8677108,20.6678231 L25.3535534,23.1819805 L25.2843055,23.239836 C25.0894374,23.374832 24.820013,23.3555469 24.6464466,23.1819805 L24.6464466,23.1819805 L24.5885912,23.1127326 C24.4535951,22.9178645 24.4728803,22.6484401 24.6464466,22.4748737 L24.6464466,22.4748737 L27.1213203,20 L24.6464466,17.5251263 L24.5885912,17.4558784 C24.4535951,17.2610102 24.4728803,16.9915858 24.6464466,16.8180195 Z M15.3535534,16.8180195 C15.5271197,16.9915858 15.5464049,17.2610102 15.4114088,17.4558784 L15.3535534,17.5251263 L12.8786797,20 L15.3535534,22.4748737 C15.5271197,22.6484401 15.5464049,22.9178645 15.4114088,23.1127326 L15.3535534,23.1819805 C15.179987,23.3555469 14.9105626,23.374832 14.7156945,23.239836 L14.6464466,23.1819805 L12.1322892,20.6678231 C11.7898056,20.3253395 11.7653424,19.7852633 12.0588998,19.4145521 L12.1322892,19.3321769 L14.6464466,16.8180195 C14.8417088,16.6227573 15.1582912,16.6227573 15.3535534,16.8180195 Z" id="Combined-Shape"></path>
            </g>
        </g>
    </g>
</svg>