<?xml version="1.0" encoding="UTF-8"?>
<svg width="27px" height="27px" viewBox="0 0 27 27" version="1.1" xmlns="http://www.w3.org/2000/svg" xmlns:xlink="http://www.w3.org/1999/xlink">
    <!-- Generator: Sketch 62 (91390) - https://sketch.com -->
    <title>Combined Shape</title>
    <desc>Created with Sketch.</desc>
    <g id="Symbols" stroke="none" stroke-width="1" fill="none" fill-rule="evenodd">
        <g id="Top-Bar" transform="translate(-1438.000000, -6.000000)" fill="#FFFFFF" fill-rule="nonzero">
            <path d="M1451.5,6.25 C1458.81777,6.25 1464.75,12.1822271 1464.75,19.5 C1464.75,26.8177729 1458.81777,32.75 1451.5,32.75 C1444.18223,32.75 1438.25,26.8177729 1438.25,19.5 C1438.25,12.1822271 1444.18223,6.25 1451.5,6.25 Z M1451.5,7.75 C1445.01065,7.75 1439.75,13.0106542 1439.75,19.5 C1439.75,25.9893458 1445.01065,31.25 1451.5,31.25 C1457.98935,31.25 1463.25,25.9893458 1463.25,19.5 C1463.25,13.0106542 1457.98935,7.75 1451.5,7.75 Z M1451.36364,11.25 C1453.0735,11.25 1454.47921,12.5522099 1454.64312,14.2189821 L1454.94322,14.219697 C1455.78228,14.219697 1456.50327,14.8152436 1456.66173,15.639214 L1456.66173,15.639214 L1458.23515,23.8210322 C1458.41767,24.7701398 1457.79623,25.6875057 1456.84712,25.8700264 C1456.73821,25.8909715 1456.62755,25.9015152 1456.51664,25.9015152 L1456.51664,25.9015152 L1446.21063,25.9015152 C1445.24413,25.9015152 1444.46063,25.1180135 1444.46063,24.1515152 C1444.46063,24.0406052 1444.47117,23.9299465 1444.49212,23.8210322 L1444.49212,23.8210322 L1446.06555,15.639214 C1446.224,14.8152436 1446.94499,14.219697 1447.78406,14.219697 L1447.78406,14.219697 L1448.08415,14.2189821 C1448.24807,12.5522099 1449.65378,11.25 1451.36364,11.25 Z M1454.94322,15.719697 L1447.78406,15.719697 C1447.66419,15.719697 1447.56119,15.8047751 1447.53856,15.9224851 L1447.53856,15.9224851 L1445.96176,24.1278023 L1445.96063,24.1515152 C1445.96063,24.2895863 1446.07256,24.4015152 1446.21063,24.4015152 L1446.21063,24.4015152 L1456.51664,24.4015152 L1456.56385,24.3970168 C1456.69944,24.3709424 1456.78822,24.2398901 1456.76214,24.1043033 L1456.76214,24.1043033 L1455.18872,15.9224851 C1455.16608,15.8047751 1455.06308,15.719697 1454.94322,15.719697 L1454.94322,15.719697 Z M1451.36364,12.75 C1450.4835,12.75 1449.75127,13.3832933 1449.59778,14.2190597 L1453.12949,14.2190451 C1452.97599,13.3832859 1452.24377,12.75 1451.36364,12.75 Z" id="Combined-Shape"></path>
        </g>
    </g>
</svg>