<?xml version="1.0" encoding="UTF-8"?>
<svg width="26px" height="26px" viewBox="0 0 26 26" version="1.1" xmlns="http://www.w3.org/2000/svg" xmlns:xlink="http://www.w3.org/1999/xlink">
    <!-- Generator: Sketch 62 (91390) - https://sketch.com -->
    <title>Group 16</title>
    <desc>Created with Sketch.</desc>
    <g id="Product-Page" stroke="none" stroke-width="1" fill="none" fill-rule="evenodd">
        <g id="Single-Product-Page-Update-Copy-4" transform="translate(-712.000000, -380.000000)">
            <g id="Group-14" transform="translate(712.000000, 380.000000)">
                <g id="Group-16">
                    <circle id="Oval" fill="#A5E0F0" cx="13" cy="13" r="13"></circle>
                    <path d="M7,8.25 C7.37969577,8.25 7.69349096,8.53215388 7.74315338,8.89822944 L7.75,9 L7.75,13.254 L18.7111157,13.5284084 C19.0906931,13.5378895 19.3973451,13.8277909 19.437851,14.1949924 L19.4421543,14.2969022 C19.4326733,14.6764795 19.1427719,14.9831315 18.7755704,15.0236375 L18.6736606,15.0279407 L7.55555556,14.75 C6.87958203,14.75 6.32359793,14.2362642 6.25674044,13.5779299 L6.25,13.4444444 L6.25,9 C6.25,8.58578644 6.58578644,8.25 7,8.25 Z" id="Rectangle" fill="#FFFFFF" fill-rule="nonzero" transform="translate(12.846077, 11.638970) rotate(-45.000000) translate(-12.846077, -11.638970) "></path>
                </g>
            </g>
        </g>
    </g>
</svg>