<?xml version="1.0" encoding="UTF-8"?>
<svg width="22px" height="22px" viewBox="0 0 22 22" version="1.1" xmlns="http://www.w3.org/2000/svg" xmlns:xlink="http://www.w3.org/1999/xlink">
    <!-- Generator: Sketch 62 (91390) - https://sketch.com -->
    <title>Combined Shape</title>
    <desc>Created with Sketch.</desc>
    <g id="Menu-Design" stroke="none" stroke-width="1" fill="none" fill-rule="evenodd">
        <g id="Menu-Cart-Hover" transform="translate(-1459.000000, -132.000000)" fill="#DC3255" fill-rule="nonzero">
            <path d="M1462.71751,135.717514 C1466.81802,131.617009 1473.46625,131.617009 1477.56676,135.717514 C1481.66726,139.818019 1481.66726,146.466252 1477.56676,150.566757 C1473.46625,154.667262 1466.81802,154.667262 1462.71751,150.566757 C1458.61701,146.466252 1458.61701,139.818019 1462.71751,135.717514 Z M1476.85965,136.424621 C1473.14967,132.71464 1467.1346,132.71464 1463.42462,136.424621 C1459.71464,140.134602 1459.71464,146.149669 1463.42462,149.85965 C1467.1346,153.569631 1473.14967,153.569631 1476.85965,149.85965 C1480.56963,146.149669 1480.56963,140.134602 1476.85965,136.424621 Z M1466.89091,139.195193 L1466.96016,139.253048 L1470.14214,142.434136 L1473.32412,139.253048 C1473.51938,139.057786 1473.83596,139.057786 1474.03122,139.253048 C1474.20479,139.426615 1474.22407,139.696039 1474.08908,139.890907 L1474.03122,139.960155 L1470.85014,143.142136 L1474.03122,146.324116 C1474.22649,146.519378 1474.22649,146.835961 1474.03122,147.031223 C1473.85766,147.204789 1473.58823,147.224074 1473.39336,147.089078 L1473.32412,147.031223 L1470.14214,143.850136 L1466.96016,147.031223 C1466.76489,147.226485 1466.44831,147.226485 1466.25305,147.031223 C1466.07948,146.857657 1466.0602,146.588232 1466.19519,146.393364 L1466.25305,146.324116 L1469.43414,143.142136 L1466.25305,139.960155 C1466.05779,139.764893 1466.05779,139.44831 1466.25305,139.253048 C1466.42661,139.079482 1466.69604,139.060197 1466.89091,139.195193 Z" id="Combined-Shape"></path>
        </g>
    </g>
</svg>