<?xml version="1.0" encoding="UTF-8"?>
<svg width="974px" height="154px" viewBox="0 0 974 154" version="1.1" xmlns="http://www.w3.org/2000/svg" xmlns:xlink="http://www.w3.org/1999/xlink">
    <!-- Generator: Sketch 62 (91390) - https://sketch.com -->
    <title>Group 2</title>
    <desc>Created with Sketch.</desc>
    <g id="Menu-Design" stroke="none" stroke-width="1" fill="none" fill-rule="evenodd">
        <g id="Search-Activated-Copy" transform="translate(-60.000000, -185.000000)">
            <g id="Group-2" transform="translate(60.295171, 185.248478)">
                <path d="M658.528581,49.6711011 L641.547743,49.6711011 C635.697438,49.6711011 630.954829,54.4137105 630.954829,60.2640157 C630.954829,66.1143208 635.697438,70.8569302 641.547743,70.8569302 L658.702197,70.8555342 L659.588171,70.8283897 L659.97373,49.7448497 L659.262037,49.6961268 C659.018688,49.679467 658.774106,49.6711011 658.528581,49.6711011 Z M658.446829,51.1705223 L658.113829,69.3565223 L641.547743,69.3569302 C636.525865,69.3569302 632.454829,65.2858937 632.454829,60.2640157 C632.454829,55.2421376 636.525865,51.1711011 641.547743,51.1711011 L658.446829,51.1705223 Z" id="Combined-Shape" fill="#14145A" fill-rule="nonzero"></path>
                <path d="M655.182511,66.5015223 L655.474556,54.0015223 L642.204829,54.0015223 C638.753049,54.0015223 635.954829,56.7997427 635.954829,60.2515223 C635.954829,63.703302 638.753049,66.5015223 642.204829,66.5015223 L655.182511,66.5015223 Z M653.938829,55.5015223 L653.716829,65.0015223 L642.204829,65.0015223 C639.581476,65.0015223 637.454829,62.8748749 637.454829,60.2515223 L637.459717,60.0340943 C637.573359,57.5116636 639.654347,55.5015223 642.204829,55.5015223 L653.938829,55.5015223 Z" id="Combined-Shape" fill="#14145A" fill-rule="nonzero"></path>
                <path d="M174.952829,140.151522 L174.952829,132.455522 L178.920829,140.055522 L180.168829,140.055522 L184.120829,132.455522 L184.120829,140.151522 L186.008829,140.151522 L186.008829,128.183522 L184.344829,128.183522 L179.544829,137.271522 L174.728829,128.183522 L173.048829,128.183522 L173.048829,140.151522 L174.952829,140.151522 Z M192.424829,140.311522 C193.032829,140.311522 193.598162,140.210189 194.120829,140.007522 C194.643495,139.804856 195.094162,139.519522 195.472829,139.151522 C195.851495,138.783522 196.150162,138.338189 196.368829,137.815522 C196.587495,137.292856 196.696829,136.706189 196.696829,136.055522 C196.696829,135.404856 196.587495,134.815522 196.368829,134.287522 C196.150162,133.759522 195.851495,133.311522 195.472829,132.943522 C195.094162,132.575522 194.643495,132.292856 194.120829,132.095522 C193.598162,131.898189 193.032829,131.799522 192.424829,131.799522 C191.816829,131.799522 191.251495,131.898189 190.728829,132.095522 C190.206162,132.292856 189.752829,132.575522 189.368829,132.943522 C188.984829,133.311522 188.683495,133.759522 188.464829,134.287522 C188.246162,134.815522 188.136829,135.404856 188.136829,136.055522 C188.136829,136.706189 188.246162,137.292856 188.464829,137.815522 C188.683495,138.338189 188.984829,138.783522 189.368829,139.151522 C189.752829,139.519522 190.206162,139.804856 190.728829,140.007522 C191.251495,140.210189 191.816829,140.311522 192.424829,140.311522 Z M192.424829,138.759522 C191.710162,138.759522 191.120829,138.522189 190.656829,138.047522 C190.192829,137.572856 189.960829,136.908856 189.960829,136.055522 C189.960829,135.191522 190.192829,134.522189 190.656829,134.047522 C191.120829,133.572856 191.710162,133.335522 192.424829,133.335522 C192.776829,133.335522 193.102162,133.396856 193.400829,133.519522 C193.699495,133.642189 193.960829,133.820856 194.184829,134.055522 C194.408829,134.290189 194.582162,134.575522 194.704829,134.911522 C194.827495,135.247522 194.888829,135.628856 194.888829,136.055522 C194.888829,136.482189 194.827495,136.863522 194.704829,137.199522 C194.582162,137.535522 194.408829,137.818189 194.184829,138.047522 C193.960829,138.276856 193.699495,138.452856 193.400829,138.575522 C193.102162,138.698189 192.776829,138.759522 192.424829,138.759522 Z M202.232829,140.311522 C202.872829,140.311522 203.427495,140.188856 203.896829,139.943522 C204.366162,139.698189 204.712829,139.388856 204.936829,139.015522 L204.936829,139.015522 L204.936829,140.151522 L206.632829,140.151522 L206.632829,127.719522 L204.840829,127.719522 L204.840829,132.935522 C204.616829,132.615522 204.280829,132.346189 203.832829,132.127522 C203.384829,131.908856 202.851495,131.799522 202.232829,131.799522 C201.656829,131.799522 201.128829,131.898189 200.648829,132.095522 C200.168829,132.292856 199.752829,132.575522 199.400829,132.943522 C199.048829,133.311522 198.774162,133.759522 198.576829,134.287522 C198.379495,134.815522 198.280829,135.404856 198.280829,136.055522 C198.280829,136.706189 198.379495,137.295522 198.576829,137.823522 C198.774162,138.351522 199.048829,138.799522 199.400829,139.167522 C199.752829,139.535522 200.168829,139.818189 200.648829,140.015522 C201.128829,140.212856 201.656829,140.311522 202.232829,140.311522 Z M202.520829,138.759522 C202.168829,138.759522 201.846162,138.700856 201.552829,138.583522 C201.259495,138.466189 201.006162,138.292856 200.792829,138.063522 C200.579495,137.834189 200.411495,137.551522 200.288829,137.215522 C200.166162,136.879522 200.104829,136.492856 200.104829,136.055522 C200.104829,135.618189 200.166162,135.231522 200.288829,134.895522 C200.411495,134.559522 200.579495,134.274189 200.792829,134.039522 C201.006162,133.804856 201.259495,133.628856 201.552829,133.511522 C201.846162,133.394189 202.168829,133.335522 202.520829,133.335522 C203.192829,133.335522 203.747495,133.548856 204.184829,133.975522 C204.622162,134.402189 204.840829,135.020856 204.840829,135.831522 L204.840829,135.831522 L204.840829,136.263522 C204.840829,137.084856 204.622162,137.706189 204.184829,138.127522 C203.747495,138.548856 203.192829,138.759522 202.520829,138.759522 Z M212.856829,140.311522 C213.336829,140.311522 213.784829,140.242189 214.200829,140.103522 C214.616829,139.964856 214.987495,139.778189 215.312829,139.543522 C215.638162,139.308856 215.907495,139.031522 216.120829,138.711522 C216.334162,138.391522 216.483495,138.050189 216.568829,137.687522 L216.568829,137.687522 L214.760829,137.591522 C214.643495,137.964856 214.419495,138.252856 214.088829,138.455522 C213.758162,138.658189 213.331495,138.759522 212.808829,138.759522 C212.179495,138.759522 211.670162,138.578189 211.280829,138.215522 C210.891495,137.852856 210.670162,137.356856 210.616829,136.727522 L210.616829,136.727522 L216.648829,136.727522 L216.648829,135.847522 C216.648829,135.228856 216.558162,134.668856 216.376829,134.167522 C216.195495,133.666189 215.939495,133.239522 215.608829,132.887522 C215.278162,132.535522 214.875495,132.266189 214.400829,132.079522 C213.926162,131.892856 213.395495,131.799522 212.808829,131.799522 C212.211495,131.799522 211.662162,131.895522 211.160829,132.087522 C210.659495,132.279522 210.227495,132.559522 209.864829,132.927522 C209.502162,133.295522 209.219495,133.740856 209.016829,134.263522 C208.814162,134.786189 208.712829,135.383522 208.712829,136.055522 C208.712829,136.716856 208.814162,137.311522 209.016829,137.839522 C209.219495,138.367522 209.504829,138.815522 209.872829,139.183522 C210.240829,139.551522 210.678162,139.831522 211.184829,140.023522 C211.691495,140.215522 212.248829,140.311522 212.856829,140.311522 Z M214.840829,135.319522 L210.632829,135.319522 C210.686162,134.679522 210.907495,134.188856 211.296829,133.847522 C211.686162,133.506189 212.184829,133.335522 212.792829,133.335522 C213.464829,133.335522 213.968829,133.516856 214.304829,133.879522 C214.640829,134.242189 214.819495,134.722189 214.840829,135.319522 L214.840829,135.319522 Z M220.520829,140.151522 L220.520829,127.719522 L218.728829,127.719522 L218.728829,140.151522 L220.520829,140.151522 Z M228.632829,140.151522 L228.632829,135.463522 C228.632829,134.887522 228.806162,134.410189 229.152829,134.031522 C229.499495,133.652856 229.960829,133.463522 230.536829,133.463522 C231.080829,133.463522 231.515495,133.639522 231.840829,133.991522 C232.166162,134.343522 232.328829,134.828856 232.328829,135.447522 L232.328829,135.447522 L232.328829,140.151522 L234.136829,140.151522 L234.136829,135.207522 C234.136829,134.674189 234.056829,134.196856 233.896829,133.775522 C233.736829,133.354189 233.515495,132.996856 233.232829,132.703522 C232.950162,132.410189 232.614162,132.186189 232.224829,132.031522 C231.835495,131.876856 231.406162,131.799522 230.936829,131.799522 C230.328829,131.799522 229.830162,131.914189 229.440829,132.143522 C229.051495,132.372856 228.750162,132.668856 228.536829,133.031522 L228.536829,133.031522 L228.536829,131.943522 L226.840829,131.943522 L226.840829,140.151522 L228.632829,140.151522 Z M239.576829,140.311522 C240.216829,140.311522 240.726162,140.183522 241.104829,139.927522 C241.483495,139.671522 241.747495,139.388856 241.896829,139.079522 L241.896829,139.079522 L241.896829,140.151522 L243.592829,140.151522 L243.592829,131.943522 L241.800829,131.943522 L241.800829,136.631522 C241.800829,136.898189 241.760829,137.151522 241.680829,137.391522 C241.600829,137.631522 241.483495,137.844856 241.328829,138.031522 C241.174162,138.218189 240.987495,138.364856 240.768829,138.471522 C240.550162,138.578189 240.302162,138.631522 240.024829,138.631522 C239.480829,138.631522 239.067495,138.463522 238.784829,138.127522 C238.502162,137.791522 238.360829,137.324856 238.360829,136.727522 L238.360829,136.727522 L238.360829,131.943522 L236.568829,131.943522 L236.568829,136.999522 C236.568829,137.500856 236.638162,137.954189 236.776829,138.359522 C236.915495,138.764856 237.115495,139.111522 237.376829,139.399522 C237.638162,139.687522 237.952829,139.911522 238.320829,140.071522 C238.688829,140.231522 239.107495,140.311522 239.576829,140.311522 Z M247.976829,140.151522 L247.976829,135.463522 C247.976829,134.887522 248.144829,134.410189 248.480829,134.031522 C248.816829,133.652856 249.272829,133.463522 249.848829,133.463522 C250.339495,133.463522 250.736829,133.639522 251.040829,133.991522 C251.344829,134.343522 251.496829,134.828856 251.496829,135.447522 L251.496829,135.447522 L251.496829,140.151522 L253.304829,140.151522 L253.304829,135.159522 C253.358162,134.668856 253.539495,134.263522 253.848829,133.943522 C254.158162,133.623522 254.568829,133.463522 255.080829,133.463522 C255.624829,133.463522 256.046162,133.639522 256.344829,133.991522 C256.643495,134.343522 256.792829,134.828856 256.792829,135.447522 L256.792829,135.447522 L256.792829,140.151522 L258.600829,140.151522 L258.600829,135.175522 C258.600829,134.663522 258.526162,134.202189 258.376829,133.791522 C258.227495,133.380856 258.019495,133.026189 257.752829,132.727522 C257.486162,132.428856 257.163495,132.199522 256.784829,132.039522 C256.406162,131.879522 255.987495,131.799522 255.528829,131.799522 C254.878162,131.799522 254.331495,131.940856 253.888829,132.223522 C253.446162,132.506189 253.102162,132.860856 252.856829,133.287522 C252.590162,132.807522 252.232829,132.439522 251.784829,132.183522 C251.336829,131.927522 250.824829,131.799522 250.248829,131.799522 C249.640829,131.799522 249.147495,131.914189 248.768829,132.143522 C248.390162,132.372856 248.094162,132.668856 247.880829,133.031522 L247.880829,133.031522 L247.880829,131.943522 L246.184829,131.943522 L246.184829,140.151522 L247.976829,140.151522 Z M265.512829,140.311522 C266.088829,140.311522 266.616829,140.212856 267.096829,140.015522 C267.576829,139.818189 267.992829,139.535522 268.344829,139.167522 C268.696829,138.799522 268.971495,138.351522 269.168829,137.823522 C269.366162,137.295522 269.464829,136.706189 269.464829,136.055522 C269.464829,135.404856 269.366162,134.815522 269.168829,134.287522 C268.971495,133.759522 268.696829,133.311522 268.344829,132.943522 C267.992829,132.575522 267.576829,132.292856 267.096829,132.095522 C266.616829,131.898189 266.088829,131.799522 265.512829,131.799522 C264.894162,131.799522 264.360829,131.908856 263.912829,132.127522 C263.464829,132.346189 263.128829,132.615522 262.904829,132.935522 L262.904829,132.935522 L262.904829,127.719522 L261.112829,127.719522 L261.112829,140.151522 L262.808829,140.151522 L262.808829,139.015522 C263.032829,139.388856 263.379495,139.698189 263.848829,139.943522 C264.318162,140.188856 264.872829,140.311522 265.512829,140.311522 Z M265.224829,138.759522 C264.552829,138.759522 263.998162,138.548856 263.560829,138.127522 C263.123495,137.706189 262.904829,137.084856 262.904829,136.263522 L262.904829,136.263522 L262.904829,135.831522 C262.904829,135.020856 263.123495,134.402189 263.560829,133.975522 C263.998162,133.548856 264.552829,133.335522 265.224829,133.335522 C265.576829,133.335522 265.899495,133.394189 266.192829,133.511522 C266.486162,133.628856 266.739495,133.804856 266.952829,134.039522 C267.166162,134.274189 267.334162,134.559522 267.456829,134.895522 C267.579495,135.231522 267.640829,135.618189 267.640829,136.055522 C267.640829,136.492856 267.579495,136.879522 267.456829,137.215522 C267.334162,137.551522 267.166162,137.834189 266.952829,138.063522 C266.739495,138.292856 266.486162,138.466189 266.192829,138.583522 C265.899495,138.700856 265.576829,138.759522 265.224829,138.759522 Z M275.176829,140.311522 C275.656829,140.311522 276.104829,140.242189 276.520829,140.103522 C276.936829,139.964856 277.307495,139.778189 277.632829,139.543522 C277.958162,139.308856 278.227495,139.031522 278.440829,138.711522 C278.654162,138.391522 278.803495,138.050189 278.888829,137.687522 L278.888829,137.687522 L277.080829,137.591522 C276.963495,137.964856 276.739495,138.252856 276.408829,138.455522 C276.078162,138.658189 275.651495,138.759522 275.128829,138.759522 C274.499495,138.759522 273.990162,138.578189 273.600829,138.215522 C273.211495,137.852856 272.990162,137.356856 272.936829,136.727522 L272.936829,136.727522 L278.968829,136.727522 L278.968829,135.847522 C278.968829,135.228856 278.878162,134.668856 278.696829,134.167522 C278.515495,133.666189 278.259495,133.239522 277.928829,132.887522 C277.598162,132.535522 277.195495,132.266189 276.720829,132.079522 C276.246162,131.892856 275.715495,131.799522 275.128829,131.799522 C274.531495,131.799522 273.982162,131.895522 273.480829,132.087522 C272.979495,132.279522 272.547495,132.559522 272.184829,132.927522 C271.822162,133.295522 271.539495,133.740856 271.336829,134.263522 C271.134162,134.786189 271.032829,135.383522 271.032829,136.055522 C271.032829,136.716856 271.134162,137.311522 271.336829,137.839522 C271.539495,138.367522 271.824829,138.815522 272.192829,139.183522 C272.560829,139.551522 272.998162,139.831522 273.504829,140.023522 C274.011495,140.215522 274.568829,140.311522 275.176829,140.311522 Z M277.160829,135.319522 L272.952829,135.319522 C273.006162,134.679522 273.227495,134.188856 273.616829,133.847522 C274.006162,133.506189 274.504829,133.335522 275.112829,133.335522 C275.784829,133.335522 276.288829,133.516856 276.624829,133.879522 C276.960829,134.242189 277.139495,134.722189 277.160829,135.319522 L277.160829,135.319522 Z M282.840829,140.151522 L282.840829,135.687522 C282.840829,135.388856 282.894162,135.111522 283.000829,134.855522 C283.107495,134.599522 283.259495,134.378189 283.456829,134.191522 C283.654162,134.004856 283.894162,133.858189 284.176829,133.751522 C284.459495,133.644856 284.776829,133.591522 285.128829,133.591522 L285.128829,133.591522 L285.128829,131.847522 C284.467495,131.847522 283.950162,131.975522 283.576829,132.231522 C283.203495,132.487522 282.942162,132.775522 282.792829,133.095522 L282.792829,133.095522 L282.792829,131.943522 L281.048829,131.943522 L281.048829,140.151522 L282.840829,140.151522 Z" id="Modelnumber" fill="#F07350" fill-rule="nonzero"></path>
                <path d="M482.616829,140.151522 L482.616829,138.455522 L476.952829,138.455522 L476.952829,128.183522 L475.048829,128.183522 L475.048829,140.151522 L482.616829,140.151522 Z M488.088829,140.311522 C488.568829,140.311522 489.016829,140.242189 489.432829,140.103522 C489.848829,139.964856 490.219495,139.778189 490.544829,139.543522 C490.870162,139.308856 491.139495,139.031522 491.352829,138.711522 C491.566162,138.391522 491.715495,138.050189 491.800829,137.687522 L491.800829,137.687522 L489.992829,137.591522 C489.875495,137.964856 489.651495,138.252856 489.320829,138.455522 C488.990162,138.658189 488.563495,138.759522 488.040829,138.759522 C487.411495,138.759522 486.902162,138.578189 486.512829,138.215522 C486.123495,137.852856 485.902162,137.356856 485.848829,136.727522 L485.848829,136.727522 L491.880829,136.727522 L491.880829,135.847522 C491.880829,135.228856 491.790162,134.668856 491.608829,134.167522 C491.427495,133.666189 491.171495,133.239522 490.840829,132.887522 C490.510162,132.535522 490.107495,132.266189 489.632829,132.079522 C489.158162,131.892856 488.627495,131.799522 488.040829,131.799522 C487.443495,131.799522 486.894162,131.895522 486.392829,132.087522 C485.891495,132.279522 485.459495,132.559522 485.096829,132.927522 C484.734162,133.295522 484.451495,133.740856 484.248829,134.263522 C484.046162,134.786189 483.944829,135.383522 483.944829,136.055522 C483.944829,136.716856 484.046162,137.311522 484.248829,137.839522 C484.451495,138.367522 484.736829,138.815522 485.104829,139.183522 C485.472829,139.551522 485.910162,139.831522 486.416829,140.023522 C486.923495,140.215522 487.480829,140.311522 488.088829,140.311522 Z M490.072829,135.319522 L485.864829,135.319522 C485.918162,134.679522 486.139495,134.188856 486.528829,133.847522 C486.918162,133.506189 487.416829,133.335522 488.024829,133.335522 C488.696829,133.335522 489.200829,133.516856 489.536829,133.879522 C489.872829,134.242189 490.051495,134.722189 490.072829,135.319522 L490.072829,135.319522 Z M495.752829,140.151522 L495.752829,135.463522 C495.752829,134.887522 495.926162,134.410189 496.272829,134.031522 C496.619495,133.652856 497.080829,133.463522 497.656829,133.463522 C498.200829,133.463522 498.635495,133.639522 498.960829,133.991522 C499.286162,134.343522 499.448829,134.828856 499.448829,135.447522 L499.448829,135.447522 L499.448829,140.151522 L501.256829,140.151522 L501.256829,135.207522 C501.256829,134.674189 501.176829,134.196856 501.016829,133.775522 C500.856829,133.354189 500.635495,132.996856 500.352829,132.703522 C500.070162,132.410189 499.734162,132.186189 499.344829,132.031522 C498.955495,131.876856 498.526162,131.799522 498.056829,131.799522 C497.448829,131.799522 496.950162,131.914189 496.560829,132.143522 C496.171495,132.372856 495.870162,132.668856 495.656829,133.031522 L495.656829,133.031522 L495.656829,131.943522 L493.960829,131.943522 L493.960829,140.151522 L495.752829,140.151522 Z M506.488829,140.311522 C507.491495,140.311522 508.278162,140.082189 508.848829,139.623522 C509.419495,139.164856 509.704829,138.519522 509.704829,137.687522 C509.704829,137.324856 509.635495,137.012856 509.496829,136.751522 C509.358162,136.490189 509.166162,136.268856 508.920829,136.087522 C508.675495,135.906189 508.379495,135.751522 508.032829,135.623522 C507.686162,135.495522 507.299495,135.378189 506.872829,135.271522 C506.595495,135.207522 506.347495,135.151522 506.128829,135.103522 C505.910162,135.055522 505.723495,134.996856 505.568829,134.927522 C505.414162,134.858189 505.294162,134.772856 505.208829,134.671522 C505.123495,134.570189 505.080829,134.428856 505.080829,134.247522 C505.080829,133.970189 505.187495,133.748856 505.400829,133.583522 C505.614162,133.418189 505.934162,133.335522 506.360829,133.335522 C506.819495,133.335522 507.160829,133.444856 507.384829,133.663522 C507.608829,133.882189 507.736829,134.162189 507.768829,134.503522 L507.768829,134.503522 L509.560829,134.407522 C509.518162,134.044856 509.422162,133.703522 509.272829,133.383522 C509.123495,133.063522 508.918162,132.786189 508.656829,132.551522 C508.395495,132.316856 508.078162,132.132856 507.704829,131.999522 C507.331495,131.866189 506.899495,131.799522 506.408829,131.799522 C505.406162,131.799522 504.635495,132.028856 504.096829,132.487522 C503.558162,132.946189 503.288829,133.543522 503.288829,134.279522 C503.288829,134.695522 503.358162,135.034189 503.496829,135.295522 C503.635495,135.556856 503.832829,135.772856 504.088829,135.943522 C504.344829,136.114189 504.646162,136.255522 504.992829,136.367522 C505.339495,136.479522 505.720829,136.583522 506.136829,136.679522 C506.467495,136.764856 506.747495,136.839522 506.976829,136.903522 C507.206162,136.967522 507.390162,137.039522 507.528829,137.119522 C507.667495,137.199522 507.766162,137.295522 507.824829,137.407522 C507.883495,137.519522 507.912829,137.660856 507.912829,137.831522 C507.912829,138.140856 507.782162,138.372856 507.520829,138.527522 C507.259495,138.682189 506.926162,138.759522 506.520829,138.759522 C506.030162,138.759522 505.654162,138.655522 505.392829,138.447522 C505.131495,138.239522 504.974162,137.948856 504.920829,137.575522 L504.920829,137.575522 L503.128829,137.687522 C503.224829,138.508856 503.560829,139.151522 504.136829,139.615522 C504.712829,140.079522 505.496829,140.311522 506.488829,140.311522 Z M518.248829,140.311522 C519.251495,140.311522 520.038162,140.082189 520.608829,139.623522 C521.179495,139.164856 521.464829,138.519522 521.464829,137.687522 C521.464829,137.324856 521.395495,137.012856 521.256829,136.751522 C521.118162,136.490189 520.926162,136.268856 520.680829,136.087522 C520.435495,135.906189 520.139495,135.751522 519.792829,135.623522 C519.446162,135.495522 519.059495,135.378189 518.632829,135.271522 C518.355495,135.207522 518.107495,135.151522 517.888829,135.103522 C517.670162,135.055522 517.483495,134.996856 517.328829,134.927522 C517.174162,134.858189 517.054162,134.772856 516.968829,134.671522 C516.883495,134.570189 516.840829,134.428856 516.840829,134.247522 C516.840829,133.970189 516.947495,133.748856 517.160829,133.583522 C517.374162,133.418189 517.694162,133.335522 518.120829,133.335522 C518.579495,133.335522 518.920829,133.444856 519.144829,133.663522 C519.368829,133.882189 519.496829,134.162189 519.528829,134.503522 L519.528829,134.503522 L521.320829,134.407522 C521.278162,134.044856 521.182162,133.703522 521.032829,133.383522 C520.883495,133.063522 520.678162,132.786189 520.416829,132.551522 C520.155495,132.316856 519.838162,132.132856 519.464829,131.999522 C519.091495,131.866189 518.659495,131.799522 518.168829,131.799522 C517.166162,131.799522 516.395495,132.028856 515.856829,132.487522 C515.318162,132.946189 515.048829,133.543522 515.048829,134.279522 C515.048829,134.695522 515.118162,135.034189 515.256829,135.295522 C515.395495,135.556856 515.592829,135.772856 515.848829,135.943522 C516.104829,136.114189 516.406162,136.255522 516.752829,136.367522 C517.099495,136.479522 517.480829,136.583522 517.896829,136.679522 C518.227495,136.764856 518.507495,136.839522 518.736829,136.903522 C518.966162,136.967522 519.150162,137.039522 519.288829,137.119522 C519.427495,137.199522 519.526162,137.295522 519.584829,137.407522 C519.643495,137.519522 519.672829,137.660856 519.672829,137.831522 C519.672829,138.140856 519.542162,138.372856 519.280829,138.527522 C519.019495,138.682189 518.686162,138.759522 518.280829,138.759522 C517.790162,138.759522 517.414162,138.655522 517.152829,138.447522 C516.891495,138.239522 516.734162,137.948856 516.680829,137.575522 L516.680829,137.575522 L514.888829,137.687522 C514.984829,138.508856 515.320829,139.151522 515.896829,139.615522 C516.472829,140.079522 517.256829,140.311522 518.248829,140.311522 Z M524.456829,130.215522 C524.766162,130.215522 525.032829,130.106189 525.256829,129.887522 C525.480829,129.668856 525.592829,129.404856 525.592829,129.095522 C525.592829,128.786189 525.480829,128.522189 525.256829,128.303522 C525.032829,128.084856 524.766162,127.975522 524.456829,127.975522 C524.147495,127.975522 523.883495,128.084856 523.664829,128.303522 C523.446162,128.522189 523.336829,128.786189 523.336829,129.095522 C523.336829,129.404856 523.446162,129.668856 523.664829,129.887522 C523.883495,130.106189 524.147495,130.215522 524.456829,130.215522 Z M525.352829,140.151522 L525.352829,131.943522 L523.560829,131.943522 L523.560829,140.151522 L525.352829,140.151522 Z M533.352829,140.151522 L533.352829,138.695522 L529.272829,138.695522 L533.192829,133.143522 L533.192829,131.943522 L527.272829,131.943522 L527.272829,133.415522 L531.112829,133.415522 L527.176829,138.967522 L527.176829,140.151522 L533.352829,140.151522 Z M538.792829,140.311522 C539.272829,140.311522 539.720829,140.242189 540.136829,140.103522 C540.552829,139.964856 540.923495,139.778189 541.248829,139.543522 C541.574162,139.308856 541.843495,139.031522 542.056829,138.711522 C542.270162,138.391522 542.419495,138.050189 542.504829,137.687522 L542.504829,137.687522 L540.696829,137.591522 C540.579495,137.964856 540.355495,138.252856 540.024829,138.455522 C539.694162,138.658189 539.267495,138.759522 538.744829,138.759522 C538.115495,138.759522 537.606162,138.578189 537.216829,138.215522 C536.827495,137.852856 536.606162,137.356856 536.552829,136.727522 L536.552829,136.727522 L542.584829,136.727522 L542.584829,135.847522 C542.584829,135.228856 542.494162,134.668856 542.312829,134.167522 C542.131495,133.666189 541.875495,133.239522 541.544829,132.887522 C541.214162,132.535522 540.811495,132.266189 540.336829,132.079522 C539.862162,131.892856 539.331495,131.799522 538.744829,131.799522 C538.147495,131.799522 537.598162,131.895522 537.096829,132.087522 C536.595495,132.279522 536.163495,132.559522 535.800829,132.927522 C535.438162,133.295522 535.155495,133.740856 534.952829,134.263522 C534.750162,134.786189 534.648829,135.383522 534.648829,136.055522 C534.648829,136.716856 534.750162,137.311522 534.952829,137.839522 C535.155495,138.367522 535.440829,138.815522 535.808829,139.183522 C536.176829,139.551522 536.614162,139.831522 537.120829,140.023522 C537.627495,140.215522 538.184829,140.311522 538.792829,140.311522 Z M540.776829,135.319522 L536.568829,135.319522 C536.622162,134.679522 536.843495,134.188856 537.232829,133.847522 C537.622162,133.506189 538.120829,133.335522 538.728829,133.335522 C539.400829,133.335522 539.904829,133.516856 540.240829,133.879522 C540.576829,134.242189 540.755495,134.722189 540.776829,135.319522 L540.776829,135.319522 Z M549.288829,130.215522 C549.598162,130.215522 549.864829,130.106189 550.088829,129.887522 C550.312829,129.668856 550.424829,129.404856 550.424829,129.095522 C550.424829,128.786189 550.312829,128.522189 550.088829,128.303522 C549.864829,128.084856 549.598162,127.975522 549.288829,127.975522 C548.979495,127.975522 548.715495,128.084856 548.496829,128.303522 C548.278162,128.522189 548.168829,128.786189 548.168829,129.095522 C548.168829,129.404856 548.278162,129.668856 548.496829,129.887522 C548.715495,130.106189 548.979495,130.215522 549.288829,130.215522 Z M550.184829,140.151522 L550.184829,131.943522 L548.392829,131.943522 L548.392829,140.151522 L550.184829,140.151522 Z M554.568829,140.151522 L554.568829,135.463522 C554.568829,134.887522 554.742162,134.410189 555.088829,134.031522 C555.435495,133.652856 555.896829,133.463522 556.472829,133.463522 C557.016829,133.463522 557.451495,133.639522 557.776829,133.991522 C558.102162,134.343522 558.264829,134.828856 558.264829,135.447522 L558.264829,135.447522 L558.264829,140.151522 L560.072829,140.151522 L560.072829,135.207522 C560.072829,134.674189 559.992829,134.196856 559.832829,133.775522 C559.672829,133.354189 559.451495,132.996856 559.168829,132.703522 C558.886162,132.410189 558.550162,132.186189 558.160829,132.031522 C557.771495,131.876856 557.342162,131.799522 556.872829,131.799522 C556.264829,131.799522 555.766162,131.914189 555.376829,132.143522 C554.987495,132.372856 554.686162,132.668856 554.472829,133.031522 L554.472829,133.031522 L554.472829,131.943522 L552.776829,131.943522 L552.776829,140.151522 L554.568829,140.151522 Z M568.104829,140.151522 L568.104829,135.463522 C568.104829,134.887522 568.272829,134.410189 568.608829,134.031522 C568.944829,133.652856 569.400829,133.463522 569.976829,133.463522 C570.467495,133.463522 570.864829,133.639522 571.168829,133.991522 C571.472829,134.343522 571.624829,134.828856 571.624829,135.447522 L571.624829,135.447522 L571.624829,140.151522 L573.432829,140.151522 L573.432829,135.159522 C573.486162,134.668856 573.667495,134.263522 573.976829,133.943522 C574.286162,133.623522 574.696829,133.463522 575.208829,133.463522 C575.752829,133.463522 576.174162,133.639522 576.472829,133.991522 C576.771495,134.343522 576.920829,134.828856 576.920829,135.447522 L576.920829,135.447522 L576.920829,140.151522 L578.728829,140.151522 L578.728829,135.175522 C578.728829,134.663522 578.654162,134.202189 578.504829,133.791522 C578.355495,133.380856 578.147495,133.026189 577.880829,132.727522 C577.614162,132.428856 577.291495,132.199522 576.912829,132.039522 C576.534162,131.879522 576.115495,131.799522 575.656829,131.799522 C575.006162,131.799522 574.459495,131.940856 574.016829,132.223522 C573.574162,132.506189 573.230162,132.860856 572.984829,133.287522 C572.718162,132.807522 572.360829,132.439522 571.912829,132.183522 C571.464829,131.927522 570.952829,131.799522 570.376829,131.799522 C569.768829,131.799522 569.275495,131.914189 568.896829,132.143522 C568.518162,132.372856 568.222162,132.668856 568.008829,133.031522 L568.008829,133.031522 L568.008829,131.943522 L566.312829,131.943522 L566.312829,140.151522 L568.104829,140.151522 Z M583.032829,140.151522 L583.032829,135.463522 C583.032829,134.887522 583.200829,134.410189 583.536829,134.031522 C583.872829,133.652856 584.328829,133.463522 584.904829,133.463522 C585.395495,133.463522 585.792829,133.639522 586.096829,133.991522 C586.400829,134.343522 586.552829,134.828856 586.552829,135.447522 L586.552829,135.447522 L586.552829,140.151522 L588.360829,140.151522 L588.360829,135.159522 C588.414162,134.668856 588.595495,134.263522 588.904829,133.943522 C589.214162,133.623522 589.624829,133.463522 590.136829,133.463522 C590.680829,133.463522 591.102162,133.639522 591.400829,133.991522 C591.699495,134.343522 591.848829,134.828856 591.848829,135.447522 L591.848829,135.447522 L591.848829,140.151522 L593.656829,140.151522 L593.656829,135.175522 C593.656829,134.663522 593.582162,134.202189 593.432829,133.791522 C593.283495,133.380856 593.075495,133.026189 592.808829,132.727522 C592.542162,132.428856 592.219495,132.199522 591.840829,132.039522 C591.462162,131.879522 591.043495,131.799522 590.584829,131.799522 C589.934162,131.799522 589.387495,131.940856 588.944829,132.223522 C588.502162,132.506189 588.158162,132.860856 587.912829,133.287522 C587.646162,132.807522 587.288829,132.439522 586.840829,132.183522 C586.392829,131.927522 585.880829,131.799522 585.304829,131.799522 C584.696829,131.799522 584.203495,131.914189 583.824829,132.143522 C583.446162,132.372856 583.150162,132.668856 582.936829,133.031522 L582.936829,133.031522 L582.936829,131.943522 L581.240829,131.943522 L581.240829,140.151522 L583.032829,140.151522 Z" id="Lenssizeinmm" fill="#A5E0F0" fill-rule="nonzero"></path>
                <path d="M101.320748,100.092977 L99.2588922,101.107573 C93.2348669,104.060768 88.6215893,106.217574 84.2542956,108.089647 L83.7699938,108.296509 C71.2908715,113.607733 61.5542283,116.149991 52.7133706,115.995 C35.8481297,115.699333 23.0299099,111.715047 13.974373,105.083861 C7.42612332,100.288711 3.32816745,94.3204305 2.27604787,89.7565033 L2.1352835,89.1289126 C0.4093311,81.2013921 1.81772134,78.107492 10.3086154,75.3488893 L10.6430218,75.241571 C18.7909491,72.658197 41.5327152,66.7791813 65.1976494,61.4608807 C99.2646271,53.8048936 133.745179,47.4744277 165.926544,43.4313038 L168.657577,43.096216 C213.216345,37.7577501 277.688225,36.2270075 386.76222,36.5462134 L485.995129,36.9525506 L492.558705,36.9700462 C562.82931,37.1991304 617.898187,38.7383939 657.761319,41.5872667 C658.423802,41.6345979 658.933588,42.1917404 658.922779,42.8558079 L658.296299,78.8611573 C658.285013,79.5107855 657.77793,80.0434508 657.129644,80.0866736 L614.690454,82.9264148 C477.069502,92.1708147 394.198125,98.1131646 366.063166,100.75454 C356.914998,101.613391 347.745529,100.711056 337.692215,98.1808526 C331.590863,96.6452732 325.226639,94.5413464 317.513419,91.598654 L315.675587,90.8919284 C313.344647,89.9886811 310.84796,88.9957845 307.74043,87.7416927 L296.723276,83.287077 L296.349794,83.1375675 C281.004888,76.9988654 269.880956,73.1686862 257.636902,70.1960651 C242.13156,66.4316657 226.641911,64.6820372 210.144701,65.1814133 C180.672691,66.0735411 155.423716,73.8799473 122.647419,89.5710018 L120.070737,90.8134126 C118.796709,91.4332044 116.875759,92.3785763 114.740586,93.4333364 L101.320748,100.092977 Z M295.79265,84.5302594 L309.548757,90.0857191 C312.36847,91.2152283 314.696351,92.1293637 316.97874,93.0001242 L318.746986,93.6688647 C325.728332,96.2851256 331.633968,98.2028992 337.326114,99.63549 C347.535663,102.205014 356.873318,103.1239 366.203373,102.247973 L369.162676,101.976138 C402.981374,98.9303217 499.008938,92.1322917 657.229432,81.5833507 C658.655659,81.4882607 659.771243,80.3163949 659.796073,78.8872179 L660.423431,42.8818729 C660.44721,41.4209303 659.325675,40.1952088 657.86823,40.0910815 L655.380659,39.9163618 C615.687235,37.1764502 561.416493,35.694527 492.564674,35.4700575 L446.17856,35.3055504 L390.15476,35.0566813 L380.070657,35.0288355 C272.75906,34.7865929 209.573677,36.4358799 165.739561,41.9430037 C134.332143,45.8888923 100.748409,52.0080307 67.4934179,59.41034 L62.7383119,60.4782201 C40.2844172,65.5675517 19.033339,71.0598519 10.6987837,73.6518982 L10.1896744,73.8117193 C0.343212914,76.9336288 -1.30556355,80.8974635 0.814384317,90.0934597 C1.94973768,95.0184418 6.25727885,101.291963 13.0881569,106.294076 C22.4041603,113.115996 35.523475,117.193872 52.6870779,117.49477 C61.5963822,117.65096 71.3050003,115.165668 83.6013313,109.996534 L84.8447132,109.468563 L85.8607897,109.029835 C89.7760141,107.327129 93.9475939,105.373651 99.1798331,102.816346 L120.427646,92.3080454 L121.104981,91.9787183 C154.784293,75.6641965 180.315828,67.5850305 210.190086,66.6807266 C226.548385,66.1855553 241.904397,67.9200887 257.283011,71.6537211 C269.444444,74.6062835 280.508207,78.4157454 295.79265,84.5302594 Z" id="Path-3" fill="#14145A" fill-rule="nonzero"></path>
                <path d="M435.204829,19.0015223 C411.870798,19.0015223 392.954829,37.9174917 392.954829,61.2515223 C392.954829,84.585553 411.870798,103.501522 435.204829,103.501522 C458.538859,103.501522 477.454829,84.585553 477.454829,61.2515223 C477.454829,37.9174917 458.538859,19.0015223 435.204829,19.0015223 Z M435.204829,20.5015223 C457.710432,20.5015223 475.954829,38.7459188 475.954829,61.2515223 C475.954829,83.7571259 457.710432,102.001522 435.204829,102.001522 C412.699225,102.001522 394.454829,83.7571259 394.454829,61.2515223 C394.454829,38.7459188 412.699225,20.5015223 435.204829,20.5015223 Z" id="Oval" fill="#F07350" fill-rule="nonzero"></path>
                <circle id="Oval" fill-opacity="0.8" fill="#F07350" cx="435.204829" cy="61.2515223" r="41.5"></circle>
                <path d="M535.704829,42.0015223 C524.801615,42.0015223 515.954829,50.6154986 515.954829,61.2515223 C515.954829,71.8875461 524.801615,80.5015223 535.704829,80.5015223 C546.608042,80.5015223 555.454829,71.8875461 555.454829,61.2515223 C555.454829,50.6154986 546.608042,42.0015223 535.704829,42.0015223 Z M535.704829,43.5015223 C545.788436,43.5015223 553.954829,51.4530103 553.954829,61.2515223 C553.954829,71.0500344 545.788436,79.0015223 535.704829,79.0015223 C525.621222,79.0015223 517.454829,71.0500344 517.454829,61.2515223 C517.454829,51.4530103 525.621222,43.5015223 535.704829,43.5015223 Z" id="Oval-Copy-3" fill="#A5E0F0" fill-rule="nonzero"></path>
                <ellipse id="Oval-Copy-3" fill-opacity="0.6" fill="#A5E0F0" cx="535.704829" cy="61.2515223" rx="19" ry="18.5"></ellipse>
                <path d="M406.361223,66.7827797 L406.361223,62.0300874 L408.048579,62.0300874 L410.788596,66.7827797 L412.646235,66.7827797 L409.859777,61.9511391 C410.654433,61.8037688 411.258166,61.4616591 411.670974,60.9248102 C412.083783,60.3879612 412.290187,59.7090052 412.290187,58.887942 C412.290187,57.9300351 412.006382,57.1642358 411.43877,56.5905443 C410.871158,56.0168527 410.04554,55.730007 408.961918,55.730007 L408.961918,55.730007 L404.704829,55.730007 L404.704829,66.7827797 L406.361223,66.7827797 Z M408.961918,60.4037509 L406.361223,60.4037509 L406.361223,57.4037125 L408.961918,57.4037125 C409.467608,57.4037125 409.867517,57.5326616 410.161643,57.7905596 C410.455769,58.0484576 410.602832,58.419515 410.602832,58.9037317 C410.602832,59.3879484 410.455769,59.7590058 410.161643,60.0169038 C409.867517,60.2748019 409.467608,60.4037509 408.961918,60.4037509 L408.961918,60.4037509 Z M418.435876,66.7827797 C419.529819,66.7827797 420.358016,66.4985656 420.920468,65.9301373 C421.48292,65.361709 421.764146,64.5827516 421.764146,63.5932653 C421.764146,63.0985221 421.658364,62.6353583 421.446799,62.2037739 C421.235235,61.7721894 420.897248,61.4142901 420.432838,61.1300759 C420.783725,60.8774411 421.049471,60.559016 421.230075,60.1748006 C421.410678,59.7905851 421.50098,59.3616323 421.50098,58.887942 C421.50098,57.9300351 421.217174,57.1642358 420.649562,56.5905443 C420.081951,56.0168527 419.256333,55.730007 418.172711,55.730007 L418.172711,55.730007 L413.993023,55.730007 L413.993023,66.7827797 L418.435876,66.7827797 Z M418.172711,60.3721715 L415.649418,60.3721715 L415.649418,57.4037125 L418.172711,57.4037125 C418.678401,57.4037125 419.07831,57.5300299 419.372436,57.7826648 C419.666562,58.0352996 419.813625,58.4037253 419.813625,58.887942 C419.813625,59.3721587 419.666562,59.7405845 419.372436,59.9932193 C419.07831,60.2458541 418.678401,60.3721715 418.172711,60.3721715 L418.172711,60.3721715 Z M418.435876,65.1090741 L415.649418,65.1090741 L415.649418,62.0458771 L418.435876,62.0458771 C418.951887,62.0458771 419.354375,62.1748261 419.643341,62.4327242 C419.932307,62.6906222 420.07679,63.072206 420.07679,63.5774756 C420.07679,64.0827452 419.932307,64.4643291 419.643341,64.7222271 C419.354375,64.9801251 418.951887,65.1090741 418.435876,65.1090741 L418.435876,65.1090741 Z M440.402456,66.7827797 L440.402456,65.1880225 L437.585037,65.1880225 L437.585037,55.730007 L435.959603,55.730007 L433.312468,58.4300414 L434.411571,59.5511084 L435.959603,57.9721409 L435.959603,65.1880225 L433.142184,65.1880225 L433.142184,66.7827797 L440.402456,66.7827797 Z M449.288162,66.7827797 L449.288162,65.1880225 L444.845309,65.1880225 L447.848492,61.9669287 C448.364503,61.4090269 448.73345,60.898494 448.955335,60.4353302 C449.17722,59.9721664 449.288162,59.4826865 449.288162,58.9668904 C449.288162,58.4932001 449.20044,58.0510892 449.024996,57.6405577 C448.849553,57.2300261 448.612188,56.8721268 448.312902,56.5668597 C448.013615,56.2615927 447.662728,56.0194843 447.26024,55.8405347 C446.857751,55.661585 446.424302,55.5721102 445.959892,55.5721102 C445.495483,55.5721102 445.062034,55.661585 444.659545,55.8405347 C444.257057,56.0194843 443.906169,56.2615927 443.606883,56.5668597 C443.307597,56.8721268 443.070232,57.2300261 442.894788,57.6405577 C442.719344,58.0510892 442.631623,58.4932001 442.631623,58.9668904 C442.631623,59.47216 442.727085,59.9379554 442.918009,60.3642767 C443.108933,60.7905979 443.369518,61.1563921 443.699765,61.4616591 L443.699765,61.4616591 L444.814348,60.2932231 C444.442821,59.9458503 444.257057,59.5037394 444.257057,58.9668904 C444.257057,58.7247821 444.298338,58.4932001 444.380899,58.2721447 C444.463461,58.0510892 444.579563,57.8589815 444.729207,57.6958215 C444.87885,57.5326616 445.059453,57.4037125 445.271018,57.3089745 C445.482582,57.2142364 445.712207,57.1668674 445.959892,57.1668674 C446.207578,57.1668674 446.437202,57.2142364 446.648767,57.3089745 C446.860331,57.4037125 447.040935,57.5326616 447.190578,57.6958215 C447.340221,57.8589815 447.456324,58.0510892 447.538885,58.2721447 C447.621447,58.4932001 447.662728,58.7247821 447.662728,58.9668904 C447.662728,59.1458401 447.642088,59.3116317 447.600807,59.4642652 C447.559526,59.6168987 447.497605,59.7695322 447.415043,59.9221658 C447.332481,60.0747993 447.226699,60.2300644 447.097696,60.3879612 C446.968693,60.545858 446.81131,60.7195444 446.625546,60.9090205 L446.625546,60.9090205 L442.631623,65.1880225 L442.631623,66.7827797 L449.288162,66.7827797 Z M457.80234,66.7827797 L457.80234,64.0511659 L458.932404,64.0511659 L458.932404,62.4564087 L457.80234,62.4564087 L457.80234,60.1669057 L456.176906,60.1669057 L456.176906,62.4564087 L453.313046,62.4564087 L457.508214,56.5984391 L456.238828,55.6510586 L451.362525,62.4564087 L451.362525,64.0511659 L456.176906,64.0511659 L456.176906,66.7827797 L457.80234,66.7827797 Z M464.706565,66.9406765 C465.170974,66.9406765 465.604424,66.8512017 466.006912,66.672252 C466.4094,66.4933024 466.760288,66.251194 467.059574,65.9459269 C467.35886,65.6406599 467.596225,65.2827606 467.771669,64.872229 C467.947113,64.4616975 468.034834,64.0195865 468.034834,63.5458963 L468.034834,63.5458963 L468.034834,63.0564163 C468.034834,62.5827261 467.947113,62.1406152 467.771669,61.7300836 C467.596225,61.319552 467.36144,60.9616527 467.067314,60.6563857 C466.773188,60.3511186 466.430041,60.1090103 466.037873,59.9300606 C465.645704,59.751111 465.227736,59.6616361 464.783966,59.6616361 C464.495,59.6616361 464.218935,59.7063735 463.955769,59.7958484 C463.692604,59.8853232 463.478459,59.9879561 463.313336,60.103747 L463.313336,60.103747 L463.917068,57.3247642 L467.3537,57.3247642 L467.3537,55.730007 L462.616721,55.730007 L461.517618,60.8458618 L463.251414,62.1406152 C463.395897,61.8879804 463.594561,61.6774514 463.847407,61.5090282 C464.100252,61.3406049 464.386638,61.2563933 464.706565,61.2563933 C464.95425,61.2563933 465.183875,61.3037624 465.395439,61.3985004 C465.607004,61.4932385 465.787607,61.6221875 465.937251,61.7853475 C466.086894,61.9485075 466.202996,62.1406152 466.285558,62.3616706 C466.36812,62.5827261 466.4094,62.814308 466.4094,63.0564163 L466.4094,63.0564163 L466.4094,63.5458963 C466.4094,63.7880046 466.36812,64.0195865 466.285558,64.240642 C466.202996,64.4616975 466.086894,64.6538052 465.937251,64.8169652 C465.787607,64.9801251 465.607004,65.1090741 465.395439,65.2038122 C465.183875,65.2985503 464.95425,65.3459193 464.706565,65.3459193 C464.45888,65.3459193 464.229255,65.2985503 464.01769,65.2038122 C463.806126,65.1090741 463.625522,64.9801251 463.475879,64.8169652 C463.326236,64.6538052 463.210133,64.4616975 463.127572,64.240642 C463.04501,64.0195865 463.003729,63.7880046 463.003729,63.5458963 L463.003729,63.5458963 L461.378295,63.5458963 C461.378295,64.0195865 461.466017,64.4616975 461.641461,64.872229 C461.816904,65.2827606 462.054269,65.6406599 462.353556,65.9459269 C462.652842,66.251194 463.003729,66.4933024 463.406218,66.672252 C463.808706,66.8512017 464.242155,66.9406765 464.706565,66.9406765 Z M483.57708,66.9406765 C484.04149,66.9406765 484.474939,66.8512017 484.877427,66.672252 C485.279915,66.4933024 485.630803,66.251194 485.930089,65.9459269 C486.229375,65.6406599 486.46674,65.2827606 486.642184,64.872229 C486.817628,64.4616975 486.905349,64.0195865 486.905349,63.5458963 C486.905349,63.0090473 486.794407,62.5143042 486.572523,62.0616668 C486.350638,61.6090294 486.048772,61.2300772 485.666924,60.9248102 C485.96621,60.6511225 486.200995,60.3221709 486.371278,59.9379554 C486.541562,59.55374 486.626704,59.1353136 486.626704,58.6826763 C486.626704,58.2510918 486.546722,57.8458235 486.386759,57.4668712 C486.226795,57.087919 486.010071,56.7589675 485.736585,56.4800165 C485.463099,56.2010656 485.140593,55.9800101 484.769065,55.8168502 C484.397537,55.6536902 484.000209,55.5721102 483.57708,55.5721102 C483.153951,55.5721102 482.759203,55.6536902 482.392835,55.8168502 C482.026467,55.9800101 481.706541,56.2010656 481.433055,56.4800165 C481.159569,56.7589675 480.942845,57.087919 480.782881,57.4668712 C480.622918,57.8458235 480.542936,58.2510918 480.542936,58.6826763 C480.542936,59.1353136 480.625498,59.55374 480.790621,59.9379554 C480.955745,60.3221709 481.18795,60.6511225 481.487236,60.9248102 C481.105388,61.2300772 480.803522,61.6090294 480.581637,62.0616668 C480.359752,62.5143042 480.24881,63.0090473 480.24881,63.5458963 C480.24881,64.0195865 480.336532,64.4616975 480.511976,64.872229 C480.687419,65.2827606 480.924784,65.6406599 481.224071,65.9459269 C481.523357,66.251194 481.874244,66.4933024 482.276733,66.672252 C482.679221,66.8512017 483.11267,66.9406765 483.57708,66.9406765 Z M483.57708,60.1826954 C483.153951,60.1826954 482.813384,60.0353251 482.555378,59.7405845 C482.297373,59.4458439 482.16837,59.0932078 482.16837,58.6826763 C482.16837,58.2721447 482.297373,57.916877 482.555378,57.6168732 C482.813384,57.3168693 483.153951,57.1668674 483.57708,57.1668674 C484.000209,57.1668674 484.343356,57.3168693 484.606521,57.6168732 C484.869687,57.916877 485.00127,58.2721447 485.00127,58.6826763 C485.00127,59.0932078 484.869687,59.4458439 484.606521,59.7405845 C484.343356,60.0353251 484.000209,60.1826954 483.57708,60.1826954 Z M483.57708,65.3301296 C483.329395,65.3301296 483.10235,65.2827606 482.895946,65.1880225 C482.689541,65.0932845 482.508937,64.9643355 482.354134,64.8011755 C482.199331,64.6380155 482.080648,64.4485394 481.998087,64.2327472 C481.915525,64.0169549 481.874244,63.7880046 481.874244,63.5458963 C481.874244,63.3037879 481.915525,63.0748376 481.998087,62.8590454 C482.080648,62.6432532 482.199331,62.4537771 482.354134,62.2906171 C482.508937,62.1274571 482.689541,61.9985081 482.895946,61.90377 C483.10235,61.809032 483.329395,61.761663 483.57708,61.761663 C483.824765,61.761663 484.05181,61.809032 484.258214,61.90377 C484.464618,61.9985081 484.645222,62.1274571 484.800025,62.2906171 C484.954829,62.4537771 485.073511,62.6432532 485.156073,62.8590454 C485.238635,63.0748376 485.279915,63.3037879 485.279915,63.5458963 C485.279915,63.7880046 485.238635,64.0169549 485.156073,64.2327472 C485.073511,64.4485394 484.954829,64.6380155 484.800025,64.8011755 C484.645222,64.9643355 484.464618,65.0932845 484.258214,65.1880225 C484.05181,65.2827606 483.824765,65.3301296 483.57708,65.3301296 Z M492.896235,66.8617281 L496.270946,57.3247642 L496.270946,55.730007 L489.707288,55.730007 L489.707288,59.0142594 L491.332722,59.0142594 L491.332722,57.3247642 L494.599071,57.3247642 L491.410124,66.3248792 L492.896235,66.8617281 Z M502.261831,66.9406765 C502.726241,66.9406765 503.15969,66.8512017 503.562178,66.672252 C503.964667,66.4933024 504.315554,66.251194 504.61484,65.9459269 C504.914127,65.6406599 505.151491,65.2827606 505.326935,64.872229 C505.502379,64.4616975 505.590101,64.0195865 505.590101,63.5458963 C505.590101,63.0090473 505.476578,62.5143042 505.249534,62.0616668 C505.022489,61.6090294 504.718042,61.2300772 504.336194,60.9248102 C504.635481,60.6511225 504.872846,60.3221709 505.048289,59.9379554 C505.223733,59.55374 505.311455,59.1353136 505.311455,58.6826763 C505.311455,58.2510918 505.231473,57.8458235 505.07151,57.4668712 C504.911546,57.087919 504.694822,56.7589675 504.421336,56.4800165 C504.14785,56.2010656 503.825344,55.9800101 503.453816,55.8168502 C503.082288,55.6536902 502.68496,55.5721102 502.261831,55.5721102 C501.838702,55.5721102 501.443954,55.6536902 501.077586,55.8168502 C500.711219,55.9800101 500.391292,56.2010656 500.117806,56.4800165 C499.84432,56.7589675 499.627596,57.087919 499.467632,57.4668712 C499.307669,57.8458235 499.227687,58.2510918 499.227687,58.6826763 L499.227687,58.6826763 L500.853121,58.6826763 C500.853121,58.2721447 500.982124,57.916877 501.24013,57.6168732 C501.498135,57.3168693 501.838702,57.1668674 502.261831,57.1668674 C502.68496,57.1668674 503.028107,57.3168693 503.291273,57.6168732 C503.554438,57.916877 503.686021,58.2721447 503.686021,58.6826763 C503.686021,58.8826788 503.65248,59.0721549 503.585399,59.2511046 C503.518317,59.4300542 503.425435,59.587951 503.306753,59.7247948 C503.18807,59.8616387 503.043587,59.9721664 502.873304,60.056378 C502.70302,60.1405896 502.519836,60.1879586 502.323752,60.1984851 L502.323752,60.1984851 L502.261831,60.1984851 L502.261831,61.7300836 L502.339233,61.7300836 C502.576598,61.7406101 502.795902,61.7958739 502.997146,61.8958752 C503.198391,61.9958765 503.371254,62.1300887 503.515737,62.2985119 C503.66022,62.4669351 503.771163,62.6590428 503.848564,62.8748351 C503.925966,63.0906273 503.964667,63.3143144 503.964667,63.5458963 C503.964667,63.7880046 503.923386,64.0195865 503.840824,64.240642 C503.758262,64.4616975 503.64216,64.6538052 503.492517,64.8169652 C503.342874,64.9801251 503.16227,65.1090741 502.950705,65.2038122 C502.739141,65.2985503 502.509516,65.3459193 502.261831,65.3459193 C502.014146,65.3459193 501.784521,65.2985503 501.572957,65.2038122 C501.361392,65.1090741 501.180788,64.9801251 501.031145,64.8169652 C500.881502,64.6538052 500.7654,64.4616975 500.682838,64.240642 C500.600276,64.0195865 500.558995,63.7880046 500.558995,63.5458963 L500.558995,63.5458963 L498.933561,63.5458963 C498.933561,64.0195865 499.021283,64.4616975 499.196727,64.872229 C499.37217,65.2827606 499.609535,65.6406599 499.908822,65.9459269 C500.208108,66.251194 500.558995,66.4933024 500.961484,66.672252 C501.363972,66.8512017 501.797421,66.9406765 502.261831,66.9406765 Z M510.82245,66.8617281 L514.677051,61.4932385 C514.883455,61.2090243 515.045999,60.8932308 515.164681,60.545858 C515.283364,60.1984851 515.342705,59.8353226 515.342705,59.4563703 L515.342705,59.4563703 L515.342705,58.9668904 C515.342705,58.4932001 515.254983,58.0510892 515.079539,57.6405577 C514.904096,57.2300261 514.666731,56.8721268 514.367444,56.5668597 C514.068158,56.2615927 513.717271,56.0194843 513.314782,55.8405347 C512.912294,55.661585 512.478845,55.5721102 512.014435,55.5721102 C511.550025,55.5721102 511.116576,55.661585 510.714088,55.8405347 C510.311599,56.0194843 509.960712,56.2615927 509.661426,56.5668597 C509.36214,56.8721268 509.124775,57.2300261 508.949331,57.6405577 C508.773887,58.0510892 508.686165,58.4932001 508.686165,58.9668904 L508.686165,58.9668904 L508.686165,59.4563703 C508.686165,60.1616425 508.874509,60.7958611 509.251197,61.3590262 C509.627885,61.9221913 510.120676,62.3300913 510.729568,62.5827261 C511.039175,62.7195699 511.384902,62.8037815 511.76675,62.8353609 L511.76675,62.8353609 L509.553064,65.9143476 L510.82245,66.8617281 Z M512.014435,61.2563933 C511.76675,61.2563933 511.537125,61.2090243 511.325561,61.1142863 C511.113996,61.0195482 510.933393,60.8905992 510.783749,60.7274392 C510.634106,60.5642792 510.518004,60.3721715 510.435442,60.1511161 C510.35288,59.9300606 510.311599,59.6984787 510.311599,59.4563703 L510.311599,59.4563703 L510.311599,58.9668904 C510.311599,58.7247821 510.35288,58.4932001 510.435442,58.2721447 C510.518004,58.0510892 510.634106,57.8589815 510.783749,57.6958215 C510.933393,57.5326616 511.113996,57.4037125 511.325561,57.3089745 C511.537125,57.2142364 511.76675,57.1668674 512.014435,57.1668674 C512.26212,57.1668674 512.491745,57.2142364 512.70331,57.3089745 C512.914874,57.4037125 513.095478,57.5326616 513.245121,57.6958215 C513.394764,57.8589815 513.510866,58.0510892 513.593428,58.2721447 C513.67599,58.4932001 513.717271,58.7247821 513.717271,58.9668904 L513.717271,58.9668904 L513.717271,59.4563703 C513.717271,59.6984787 513.67599,59.9300606 513.593428,60.1511161 C513.510866,60.3721715 513.394764,60.5642792 513.245121,60.7274392 C513.095478,60.8905992 512.914874,61.0195482 512.70331,61.1142863 C512.491745,61.2090243 512.26212,61.2563933 512.014435,61.2563933 Z M530.590824,66.9406765 C531.055234,66.9406765 531.488683,66.8512017 531.891171,66.672252 C532.29366,66.4933024 532.644547,66.251194 532.943833,65.9459269 C533.24312,65.6406599 533.480485,65.2827606 533.655928,64.872229 C533.831372,64.4616975 533.919094,64.0195865 533.919094,63.5458963 L533.919094,63.5458963 L533.919094,63.0564163 C533.919094,62.5827261 533.831372,62.1406152 533.655928,61.7300836 C533.480485,61.319552 533.2457,60.9616527 532.951573,60.6563857 C532.657447,60.3511186 532.3143,60.1090103 531.922132,59.9300606 C531.529964,59.751111 531.111995,59.6616361 530.668226,59.6616361 C530.37926,59.6616361 530.103194,59.7063735 529.840028,59.7958484 C529.576863,59.8853232 529.362718,59.9879561 529.197595,60.103747 L529.197595,60.103747 L529.801328,57.3247642 L533.237959,57.3247642 L533.237959,55.730007 L528.50098,55.730007 L527.401877,60.8458618 L529.135674,62.1406152 C529.280157,61.8879804 529.478821,61.6774514 529.731666,61.5090282 C529.984511,61.3406049 530.270897,61.2563933 530.590824,61.2563933 C530.838509,61.2563933 531.068134,61.3037624 531.279698,61.3985004 C531.491263,61.4932385 531.671867,61.6221875 531.82151,61.7853475 C531.971153,61.9485075 532.087255,62.1406152 532.169817,62.3616706 C532.252379,62.5827261 532.29366,62.814308 532.29366,63.0564163 L532.29366,63.0564163 L532.29366,63.5458963 C532.29366,63.7880046 532.252379,64.0195865 532.169817,64.240642 C532.087255,64.4616975 531.971153,64.6538052 531.82151,64.8169652 C531.671867,64.9801251 531.491263,65.1090741 531.279698,65.2038122 C531.068134,65.2985503 530.838509,65.3459193 530.590824,65.3459193 C530.343139,65.3459193 530.113514,65.2985503 529.90195,65.2038122 C529.690385,65.1090741 529.509781,64.9801251 529.360138,64.8169652 C529.210495,64.6538052 529.094393,64.4616975 529.011831,64.240642 C528.929269,64.0195865 528.887988,63.7880046 528.887988,63.5458963 L528.887988,63.5458963 L527.262554,63.5458963 C527.262554,64.0195865 527.350276,64.4616975 527.52572,64.872229 C527.701164,65.2827606 527.938529,65.6406599 528.237815,65.9459269 C528.537101,66.251194 528.887988,66.4933024 529.290477,66.672252 C529.692965,66.8512017 530.126414,66.9406765 530.590824,66.9406765 Z M542.510674,66.7827797 L542.510674,64.0511659 L543.640737,64.0511659 L543.640737,62.4564087 L542.510674,62.4564087 L542.510674,60.1669057 L540.88524,60.1669057 L540.88524,62.4564087 L538.02138,62.4564087 L542.216547,56.5984391 L540.947161,55.6510586 L536.070859,62.4564087 L536.070859,64.0511659 L540.88524,64.0511659 L540.88524,66.7827797 L542.510674,66.7827797 Z M572.170974,66.7827797 L572.170974,65.1880225 L569.353556,65.1880225 L569.353556,55.730007 L567.728121,55.730007 L565.080986,58.4300414 L566.180089,59.5511084 L567.728121,57.9721409 L567.728121,65.1880225 L564.910703,65.1880225 L564.910703,66.7827797 L572.170974,66.7827797 Z M577.496206,66.9406765 C577.960616,66.9406765 578.394065,66.8512017 578.796553,66.672252 C579.199042,66.4933024 579.549929,66.251194 579.849215,65.9459269 C580.148502,65.6406599 580.385866,65.2827606 580.56131,64.872229 C580.736754,64.4616975 580.824476,64.0195865 580.824476,63.5458963 L580.824476,63.5458963 L580.824476,63.0564163 C580.824476,62.3511442 580.636132,61.7169255 580.259444,61.1537605 C579.882756,60.5905954 579.389966,60.1826954 578.781073,59.9300606 C578.471466,59.7932168 578.125739,59.7090052 577.743891,59.6774258 L577.743891,59.6774258 L579.957578,56.5984391 L578.688191,55.6510586 L574.83359,61.0195482 C574.627186,61.3037624 574.464643,61.6195559 574.34596,61.9669287 C574.227278,62.3143016 574.167936,62.6774641 574.167936,63.0564163 L574.167936,63.0564163 L574.167936,63.5458963 C574.167936,64.0195865 574.255658,64.4616975 574.431102,64.872229 C574.606545,65.2827606 574.84391,65.6406599 575.143197,65.9459269 C575.442483,66.251194 575.79337,66.4933024 576.195859,66.672252 C576.598347,66.8512017 577.031796,66.9406765 577.496206,66.9406765 Z M577.496206,65.3459193 C577.248521,65.3459193 577.018896,65.2985503 576.807332,65.2038122 C576.595767,65.1090741 576.415163,64.9801251 576.26552,64.8169652 C576.115877,64.6538052 575.999775,64.4616975 575.917213,64.240642 C575.834651,64.0195865 575.79337,63.7880046 575.79337,63.5458963 L575.79337,63.5458963 L575.79337,63.0564163 C575.79337,62.814308 575.834651,62.5827261 575.917213,62.3616706 C575.999775,62.1406152 576.115877,61.9485075 576.26552,61.7853475 C576.415163,61.6221875 576.595767,61.4932385 576.807332,61.3985004 C577.018896,61.3037624 577.248521,61.2563933 577.496206,61.2563933 C577.743891,61.2563933 577.973516,61.3037624 578.18508,61.3985004 C578.396645,61.4932385 578.577249,61.6221875 578.726892,61.7853475 C578.876535,61.9485075 578.992637,62.1406152 579.075199,62.3616706 C579.157761,62.5827261 579.199042,62.814308 579.199042,63.0564163 L579.199042,63.0564163 L579.199042,63.5458963 C579.199042,63.7880046 579.157761,64.0195865 579.075199,64.240642 C578.992637,64.4616975 578.876535,64.6538052 578.726892,64.8169652 C578.577249,64.9801251 578.396645,65.1090741 578.18508,65.2038122 C577.973516,65.2985503 577.743891,65.3459193 577.496206,65.3459193 Z M598.982896,66.7827797 L598.982896,64.0511659 L600.112959,64.0511659 L600.112959,62.4564087 L598.982896,62.4564087 L598.982896,60.1669057 L597.357462,60.1669057 L597.357462,62.4564087 L594.493602,62.4564087 L598.68877,56.5984391 L597.419383,55.6510586 L592.543081,62.4564087 L592.543081,64.0511659 L597.357462,64.0511659 L597.357462,66.7827797 L598.982896,66.7827797 Z M605.794238,66.9406765 C606.258648,66.9406765 606.692097,66.8512017 607.094586,66.672252 C607.497074,66.4933024 607.847961,66.251194 608.147248,65.9459269 C608.446534,65.6406599 608.683899,65.2827606 608.859343,64.872229 C609.034786,64.4616975 609.122508,64.0195865 609.122508,63.5458963 C609.122508,63.0090473 609.008986,62.5143042 608.781941,62.0616668 C608.554896,61.6090294 608.25045,61.2300772 607.868602,60.9248102 C608.167888,60.6511225 608.405253,60.3221709 608.580697,59.9379554 C608.75614,59.55374 608.843862,59.1353136 608.843862,58.6826763 C608.843862,58.2510918 608.763881,57.8458235 608.603917,57.4668712 C608.443954,57.087919 608.227229,56.7589675 607.953744,56.4800165 C607.680258,56.2010656 607.357751,55.9800101 606.986223,55.8168502 C606.614696,55.6536902 606.217367,55.5721102 605.794238,55.5721102 C605.37111,55.5721102 604.976361,55.6536902 604.609994,55.8168502 C604.243626,55.9800101 603.923699,56.2010656 603.650214,56.4800165 C603.376728,56.7589675 603.160003,57.087919 603.00004,57.4668712 C602.840077,57.8458235 602.760095,58.2510918 602.760095,58.6826763 L602.760095,58.6826763 L604.385529,58.6826763 C604.385529,58.2721447 604.514532,57.916877 604.772537,57.6168732 C605.030542,57.3168693 605.37111,57.1668674 605.794238,57.1668674 C606.217367,57.1668674 606.560514,57.3168693 606.82368,57.6168732 C607.086845,57.916877 607.218428,58.2721447 607.218428,58.6826763 C607.218428,58.8826788 607.184888,59.0721549 607.117806,59.2511046 C607.050725,59.4300542 606.957843,59.587951 606.83916,59.7247948 C606.720478,59.8616387 606.575995,59.9721664 606.405711,60.056378 C606.235428,60.1405896 606.052244,60.1879586 605.85616,60.1984851 L605.85616,60.1984851 L605.794238,60.1984851 L605.794238,61.7300836 L605.87164,61.7300836 C606.109005,61.7406101 606.32831,61.7958739 606.529554,61.8958752 C606.730798,61.9958765 606.903662,62.1300887 607.048145,62.2985119 C607.192628,62.4669351 607.30357,62.6590428 607.380972,62.8748351 C607.458373,63.0906273 607.497074,63.3143144 607.497074,63.5458963 C607.497074,63.7880046 607.455793,64.0195865 607.373231,64.240642 C607.29067,64.4616975 607.174567,64.6538052 607.024924,64.8169652 C606.875281,64.9801251 606.694677,65.1090741 606.483113,65.2038122 C606.271548,65.2985503 606.041924,65.3459193 605.794238,65.3459193 C605.546553,65.3459193 605.316928,65.2985503 605.105364,65.2038122 C604.8938,65.1090741 604.713196,64.9801251 604.563553,64.8169652 C604.413909,64.6538052 604.297807,64.4616975 604.215245,64.240642 C604.132684,64.0195865 604.091403,63.7880046 604.091403,63.5458963 L604.091403,63.5458963 L602.465969,63.5458963 C602.465969,64.0195865 602.553691,64.4616975 602.729134,64.872229 C602.904578,65.2827606 603.141943,65.6406599 603.441229,65.9459269 C603.740515,66.251194 604.091403,66.4933024 604.493891,66.672252 C604.89638,66.8512017 605.329829,66.9406765 605.794238,66.9406765 Z M618.704829,66.7827797 L618.704829,65.1880225 L614.261976,65.1880225 L617.265159,61.9669287 C617.781169,61.4090269 618.150117,60.898494 618.372002,60.4353302 C618.593886,59.9721664 618.704829,59.4826865 618.704829,58.9668904 C618.704829,58.4932001 618.617107,58.0510892 618.441663,57.6405577 C618.266219,57.2300261 618.028855,56.8721268 617.729568,56.5668597 C617.430282,56.2615927 617.079395,56.0194843 616.676906,55.8405347 C616.274418,55.661585 615.840969,55.5721102 615.376559,55.5721102 C614.912149,55.5721102 614.4787,55.661585 614.076212,55.8405347 C613.673723,56.0194843 613.322836,56.2615927 613.02355,56.5668597 C612.724263,56.8721268 612.486898,57.2300261 612.311455,57.6405577 C612.136011,58.0510892 612.048289,58.4932001 612.048289,58.9668904 C612.048289,59.47216 612.143751,59.9379554 612.334675,60.3642767 C612.525599,60.7905979 612.786185,61.1563921 613.116432,61.4616591 L613.116432,61.4616591 L614.231015,60.2932231 C613.859487,59.9458503 613.673723,59.5037394 613.673723,58.9668904 C613.673723,58.7247821 613.715004,58.4932001 613.797566,58.2721447 C613.880128,58.0510892 613.99623,57.8589815 614.145873,57.6958215 C614.295516,57.5326616 614.47612,57.4037125 614.687685,57.3089745 C614.899249,57.2142364 615.128874,57.1668674 615.376559,57.1668674 C615.624244,57.1668674 615.853869,57.2142364 616.065433,57.3089745 C616.276998,57.4037125 616.457602,57.5326616 616.607245,57.6958215 C616.756888,57.8589815 616.87299,58.0510892 616.955552,58.2721447 C617.038114,58.4932001 617.079395,58.7247821 617.079395,58.9668904 C617.079395,59.1458401 617.058754,59.3116317 617.017473,59.4642652 C616.976192,59.6168987 616.914271,59.7695322 616.831709,59.9221658 C616.749148,60.0747993 616.643366,60.2300644 616.514363,60.3879612 C616.38536,60.545858 616.227977,60.7195444 616.042213,60.9090205 L616.042213,60.9090205 L612.048289,65.1880225 L612.048289,66.7827797 L618.704829,66.7827797 Z" id="RB124587395416432" fill="#1C2650" fill-rule="nonzero"></path>
                <path d="M558.704829,57.6391223 L549.704829,57.6391223 L549.704829,64.8736644 L558.704829,64.8736644 L558.704829,57.6391223 Z M557.704329,58.6992238 L557.704329,63.8125018 L550.704329,63.8125018 L550.704329,58.6992238 L557.704329,58.6992238 Z" id="Rectangle" fill="#14145A" fill-rule="nonzero"></path>
                <path d="M435.704829,103.001522 C436.084524,103.001522 436.39832,103.283676 436.447982,103.649752 L436.454829,103.751522 L436.454829,133.751522 C436.454829,135.214054 435.313124,136.409927 433.872351,136.496504 L433.704829,136.501522 L295.704829,136.501522 C295.290615,136.501522 294.954829,136.165736 294.954829,135.751522 C294.954829,135.371827 295.236983,135.058031 295.603058,135.008369 L295.704829,135.001522 L433.704829,135.001522 C434.352037,135.001522 434.884363,134.509648 434.948375,133.879328 L434.954829,133.751522 L434.954829,103.751522 C434.954829,103.337309 435.290615,103.001522 435.704829,103.001522 Z" id="Path-2" fill="#F07350" fill-rule="nonzero"></path>
                <path d="M535.98094,80.0015215 C536.360615,79.9975637 536.677365,80.276396 536.730881,80.641928 L536.7388,80.7436208 L537.170774,121.743621 C537.175138,122.157811 536.842908,122.497117 536.428717,122.501521 C536.049043,122.505481 535.732292,122.226649 535.678776,121.861117 L535.670857,121.759424 L535.238883,80.7594239 C535.234519,80.3452333 535.566749,80.0059279 535.98094,80.0015215 Z" id="Path-4" fill="#A5E0F0" fill-rule="nonzero"></path>
                <line x1="760.204829" y1="136.251522" x2="603.704829" y2="136.183497" id="Path-4-Copy" stroke="#A5E0F0" stroke-width="1.5" stroke-linecap="round"></line>
                <path d="M949.77301,23.0015223 C944.379868,23.0015223 939.954829,24.7094001 939.954829,27.2515223 C939.954829,29.7936445 944.379868,31.5015223 949.77301,31.5015223 C955.79994,31.5015223 962.454829,29.7130975 962.454829,27.2515223 C962.454829,24.8323881 956.027441,23.0633923 950.085271,23.0031115 L949.77301,23.0015223 Z M949.77301,24.5015223 C952.206628,24.5015223 955.124405,24.8833567 957.422561,25.5009595 C959.631427,26.094567 960.954829,26.8564996 960.954829,27.2515223 C960.954829,27.6465451 959.631427,28.4084777 957.422561,29.0020852 C955.124405,29.619688 952.206628,30.0015223 949.77301,30.0015223 C945.150172,30.0015223 941.454829,28.5752763 941.454829,27.2515223 C941.454829,25.9277684 945.150172,24.5015223 949.77301,24.5015223 Z" id="Stroke-1" fill="#14145A" fill-rule="nonzero"></path>
                <path d="M874.946955,0.13093595 L874.957238,0.130681905 C841.663436,0.724797695 815.155057,3.80778424 788.885826,9.16222026 L787.635065,9.41890943 C783.948689,10.1805843 780.380548,10.9590383 776.271367,11.890348 L761.47272,15.2858212 L758.800821,15.8748354 C751.503725,17.4548384 746.4545,18.2890817 741.739734,18.6233977 C739.605612,18.774667 737.954829,20.5742493 737.954829,22.7229674 L737.954829,41.4874411 C737.954829,43.6613859 739.580232,45.5105125 741.726148,45.7295605 C748.265973,46.3976096 751.019848,48.9378058 753.913905,55.8502752 L754.33959,56.8981419 C754.799568,58.0687103 756.164218,61.5935979 756.657115,62.7977419 L757.377735,64.7829026 C764.782702,85.0861743 770.93211,98.929267 778.529687,111.107046 C788.242373,126.67503 799.657907,137.875547 813.917449,144.886867 C833.004256,153.515566 867.372903,155.814785 893.747259,151.163686 L895.065614,150.926545 C916.340943,147.022101 925.073599,141.549913 934.391348,128.403552 C938.033879,123.264872 942.7911,109.618138 948.118084,90.396725 L948.825069,87.8238245 C952.446668,74.528517 956.157668,59.1611278 957.465334,52.62812 C958.564142,47.1387098 962.423222,44.1839403 967.271739,42.9939626 C968.536299,42.6834538 969.484096,41.646554 969.658583,40.3637584 L973.425581,12.7613828 C973.65105,11.1136924 972.555002,9.57742226 970.922619,9.25800201 L969.328371,8.94962588 C959.626883,7.09252081 947.497501,5.12000283 934.028284,3.45629078 C912.873326,0.843239076 892.758709,-0.431349354 874.946955,0.13093595 Z M933.844402,4.94497726 L936.070718,5.22430126 C949.352145,6.91648494 961.236985,8.89312907 970.634712,10.7301126 C971.485952,10.8966809 972.057201,11.69737 971.939394,12.5582858 L968.172315,40.1612586 C968.081429,40.8294363 967.585059,41.3724697 966.914124,41.5372158 C961.664706,42.8255871 957.399049,46.0381113 956.070672,51.9742672 L955.718377,53.67536 C954.173485,61.0103066 950.524499,75.9810351 947.034134,88.685922 L946.30493,91.3168674 C941.180657,109.646126 936.584918,122.715157 933.167585,127.53614 L932.611896,128.311831 C923.546179,140.828829 914.90689,145.909188 893.486759,149.686479 C867.38661,154.289222 833.31495,152.009871 814.557319,143.53041 C800.592345,136.663488 789.376265,125.658668 779.80232,110.313065 C772.028545,97.8528666 765.765116,83.5900311 758.056572,62.2587266 L755.610627,56.0337912 C752.412691,48.0933127 749.296434,44.9950662 741.878527,44.2373203 C740.506826,44.0973017 739.454829,42.9005058 739.454829,41.4874411 L739.454829,22.7229674 C739.454829,21.356513 740.502057,20.2148892 741.84581,20.1196423 L742.696056,20.0543338 C747.394435,19.6658492 752.492066,18.7895764 759.762524,17.2007142 L762.588356,16.5716556 C765.985498,15.8004726 774.542024,13.8225014 773.884212,13.9734462 L778.327998,12.9641568 C781.439236,12.2660024 784.274266,11.6502414 787.152345,11.0509618 L787.938582,10.8878809 C813.699778,5.56513186 839.588106,2.43211483 871.842523,1.69435497 L874.994284,1.63018909 C892.718345,1.0706721 912.759944,2.34063364 933.844402,4.94497726 Z" id="Stroke-3" fill="#14145A" fill-rule="nonzero"></path>
                <path d="M856.991479,12.0031146 L855.935396,12.0153219 C855.503164,12.0211551 855.046791,12.0288179 854.567335,12.038508 L854.080224,12.0488812 C851.373313,12.1094163 848.404492,12.2224333 845.241458,12.4006055 C836.406212,12.8982906 827.608682,13.8088865 819.388631,15.2347277 C798.89733,18.7891268 785.163549,24.9233841 781.277931,34.4228123 C771.016224,59.5105487 786.181216,103.886324 810.026799,124.52255 C819.669215,132.866522 834.824956,137.871119 853.129154,139.724319 C868.088782,141.238899 884.371511,140.458904 895.833255,138.052257 C916.892009,133.631582 924.88741,123.890148 931.422476,93.5365771 L931.620074,92.610447 C938.119025,61.8766247 938.029505,47.9826648 931.584408,31.5689818 C926.016183,17.3896223 902.085,12.1073276 859.398065,12.0031146 L856.991479,12.0031146 Z M856.780429,13.5059795 L858.093974,13.5015223 C900.882785,13.5015223 924.90925,18.6745267 930.188198,32.1172494 C936.445295,48.0521547 936.59384,61.5550835 930.343876,91.3909874 L930.152525,92.3001244 C923.692397,122.851186 916.142076,132.256315 895.525054,136.584261 C884.21686,138.958667 868.088933,139.731247 853.280248,138.231948 C835.254893,136.40698 820.374711,131.493375 811.008358,123.388292 C787.613088,103.141772 772.672641,59.423058 782.666279,34.990695 C786.282125,26.1507957 799.646353,20.1816008 819.644992,16.7126585 C827.801922,15.2977661 836.54406,14.3929036 845.325819,13.8982314 C848.121756,13.7407376 850.764838,13.6344477 853.207324,13.5705135 L855.065694,13.5292498 C855.679721,13.5181837 856.252138,13.5105826 856.780429,13.5059795 Z" id="Stroke-5" fill="#14145A" fill-rule="nonzero"></path>
                <path d="M778.407485,46.6814049 L779.900915,46.8216398 C778.277743,64.1075917 780.533397,84.7268903 788.580346,102.103116 C800.117506,127.015948 821.940005,142.158027 856.259962,143.798732 L858.193164,143.857395 C889.469786,144.732347 906.156328,141.508368 917.328157,131.101264 C929.671598,119.602746 935.027889,98.5444021 934.954077,61.3372214 L934.95018,60.2047812 L936.450162,60.1974539 C936.637236,98.4935352 931.208438,120.221108 918.350587,132.198823 C906.568713,143.174214 889.110558,146.372331 856.19967,145.297477 C821.302102,143.629246 798.987735,128.145871 787.219218,102.733456 C779.172791,85.3583592 776.834408,64.8606146 778.33322,47.5054413 L778.407485,46.6814049 Z" id="Stroke-7" fill="#14145A" fill-rule="nonzero"></path>
                <path d="M838.152829,66.3115223 C838.760829,66.3115223 839.302162,66.218189 839.776829,66.0315223 C840.251495,65.8448557 840.656829,65.5808557 840.992829,65.2395223 C841.328829,64.898189 841.584829,64.4875223 841.760829,64.0075223 C841.936829,63.5275223 842.024829,62.9995223 842.024829,62.4235223 C842.024829,61.826189 841.934162,61.2955223 841.752829,60.8315223 C841.571495,60.3675223 841.320829,59.978189 841.000829,59.6635223 C840.680829,59.3488557 840.299495,59.1088557 839.856829,58.9435223 C839.414162,58.778189 838.931495,58.6955223 838.408829,58.6955223 C838.056829,58.6955223 837.736829,58.7328557 837.448829,58.8075223 C837.160829,58.882189 836.899495,58.9888557 836.664829,59.1275223 L836.664829,59.1275223 L836.664829,55.8635223 L841.560829,55.8635223 L841.560829,54.1835223 L834.776829,54.1835223 L834.776829,60.9675223 L836.536829,60.9675223 C836.782162,60.786189 837.038162,60.6448557 837.304829,60.5435223 C837.571495,60.442189 837.875495,60.3915223 838.216829,60.3915223 C838.803495,60.3915223 839.267495,60.578189 839.608829,60.9515223 C839.950162,61.3248557 840.120829,61.8315223 840.120829,62.4715223 C840.120829,63.1008557 839.955495,63.6155223 839.624829,64.0155223 C839.294162,64.4155223 838.808829,64.6155223 838.168829,64.6155223 C837.571495,64.6155223 837.118162,64.450189 836.808829,64.1195223 C836.499495,63.7888557 836.318162,63.3355223 836.264829,62.7595223 L836.264829,62.7595223 L834.360829,62.8715223 C834.414162,63.9275223 834.766162,64.7648557 835.416829,65.3835223 C836.067495,66.002189 836.979495,66.3115223 838.152829,66.3115223 Z M850.056829,66.1515223 L850.056829,63.6395223 L851.928829,63.6395223 L851.928829,61.9435223 L850.056829,61.9435223 L850.056829,54.1835223 L848.456829,54.1835223 L843.160829,62.0715223 L843.160829,63.6395223 L848.184829,63.6395223 L848.184829,66.1515223 L850.056829,66.1515223 Z M848.168829,61.9435223 L845.256829,61.9435223 L848.168829,57.6235223 L848.168829,61.9435223 Z M855.400829,66.1515223 L855.400829,61.4635223 C855.400829,60.8875223 855.568829,60.410189 855.904829,60.0315223 C856.240829,59.6528557 856.696829,59.4635223 857.272829,59.4635223 C857.763495,59.4635223 858.160829,59.6395223 858.464829,59.9915223 C858.768829,60.3435223 858.920829,60.8288557 858.920829,61.4475223 L858.920829,61.4475223 L858.920829,66.1515223 L860.728829,66.1515223 L860.728829,61.1595223 C860.782162,60.6688557 860.963495,60.2635223 861.272829,59.9435223 C861.582162,59.6235223 861.992829,59.4635223 862.504829,59.4635223 C863.048829,59.4635223 863.470162,59.6395223 863.768829,59.9915223 C864.067495,60.3435223 864.216829,60.8288557 864.216829,61.4475223 L864.216829,61.4475223 L864.216829,66.1515223 L866.024829,66.1515223 L866.024829,61.1755223 C866.024829,60.6635223 865.950162,60.202189 865.800829,59.7915223 C865.651495,59.3808557 865.443495,59.026189 865.176829,58.7275223 C864.910162,58.4288557 864.587495,58.1995223 864.208829,58.0395223 C863.830162,57.8795223 863.411495,57.7995223 862.952829,57.7995223 C862.302162,57.7995223 861.755495,57.9408557 861.312829,58.2235223 C860.870162,58.506189 860.526162,58.8608557 860.280829,59.2875223 C860.014162,58.8075223 859.656829,58.4395223 859.208829,58.1835223 C858.760829,57.9275223 858.248829,57.7995223 857.672829,57.7995223 C857.064829,57.7995223 856.571495,57.914189 856.192829,58.1435223 C855.814162,58.3728557 855.518162,58.6688557 855.304829,59.0315223 L855.304829,59.0315223 L855.304829,57.9435223 L853.608829,57.9435223 L853.608829,66.1515223 L855.400829,66.1515223 Z M870.328829,66.1515223 L870.328829,61.4635223 C870.328829,60.8875223 870.496829,60.410189 870.832829,60.0315223 C871.168829,59.6528557 871.624829,59.4635223 872.200829,59.4635223 C872.691495,59.4635223 873.088829,59.6395223 873.392829,59.9915223 C873.696829,60.3435223 873.848829,60.8288557 873.848829,61.4475223 L873.848829,61.4475223 L873.848829,66.1515223 L875.656829,66.1515223 L875.656829,61.1595223 C875.710162,60.6688557 875.891495,60.2635223 876.200829,59.9435223 C876.510162,59.6235223 876.920829,59.4635223 877.432829,59.4635223 C877.976829,59.4635223 878.398162,59.6395223 878.696829,59.9915223 C878.995495,60.3435223 879.144829,60.8288557 879.144829,61.4475223 L879.144829,61.4475223 L879.144829,66.1515223 L880.952829,66.1515223 L880.952829,61.1755223 C880.952829,60.6635223 880.878162,60.202189 880.728829,59.7915223 C880.579495,59.3808557 880.371495,59.026189 880.104829,58.7275223 C879.838162,58.4288557 879.515495,58.1995223 879.136829,58.0395223 C878.758162,57.8795223 878.339495,57.7995223 877.880829,57.7995223 C877.230162,57.7995223 876.683495,57.9408557 876.240829,58.2235223 C875.798162,58.506189 875.454162,58.8608557 875.208829,59.2875223 C874.942162,58.8075223 874.584829,58.4395223 874.136829,58.1835223 C873.688829,57.9275223 873.176829,57.7995223 872.600829,57.7995223 C871.992829,57.7995223 871.499495,57.914189 871.120829,58.1435223 C870.742162,58.3728557 870.446162,58.6688557 870.232829,59.0315223 L870.232829,59.0315223 L870.232829,57.9435223 L868.536829,57.9435223 L868.536829,66.1515223 L870.328829,66.1515223 Z" id="54mm" fill="#A5E0F0" fill-rule="nonzero"></path>
                <path d="M759.740363,138.787056 L755.295918,138.787056 C754.989093,138.787056 754.740363,138.538326 754.740363,138.231501 L754.740363,133.787056" id="Rectangle-Copy-2" stroke="#A5E0F0" stroke-width="1.5" stroke-linecap="round" transform="translate(757.240363, 136.287056) rotate(-135.000000) translate(-757.240363, -136.287056) "></path>
                <path d="M921.704829,59.0015223 C922.084524,59.0015223 922.39832,59.2836762 922.447982,59.6497518 L922.454829,59.7515223 L922.454829,64.0015223 L926.704829,64.0015223 C927.084524,64.0015223 927.39832,64.2836762 927.447982,64.6497518 L927.454829,64.7515223 C927.454829,65.1312181 927.172675,65.4450133 926.806599,65.4946757 L926.704829,65.5015223 L922.260384,65.5015223 C921.584411,65.5015223 921.028427,64.9877866 920.961569,64.3294523 L920.954829,64.1959668 L920.954829,59.7515223 C920.954829,59.3373088 921.290615,59.0015223 921.704829,59.0015223 Z" id="Rectangle-Copy-2" fill="#A5E0F0" fill-rule="nonzero" transform="translate(924.204829, 62.251522) rotate(-135.000000) translate(-924.204829, -62.251522) "></path>
                <path d="M788.740363,59.0015223 C789.120058,59.0015223 789.433854,59.2836762 789.483516,59.6497518 L789.490363,59.7515223 L789.489829,64.0015223 L793.740363,64.0015223 C794.120058,64.0015223 794.433854,64.2836762 794.483516,64.6497518 L794.490363,64.7515223 C794.490363,65.1312181 794.208209,65.4450133 793.842133,65.4946757 L793.740363,65.5015223 L789.295918,65.5015223 C788.619945,65.5015223 788.06396,64.9877866 787.997103,64.3294523 L787.990363,64.1959668 L787.990363,59.7515223 C787.990363,59.3373088 788.326149,59.0015223 788.740363,59.0015223 Z" id="Rectangle-Copy-5" fill="#A5E0F0" fill-rule="nonzero" transform="translate(791.240363, 62.251522) rotate(-315.000000) translate(-791.240363, -62.251522) "></path>
                <path d="M926.204829,61.5015223 C926.619042,61.5015223 926.954829,61.8373088 926.954829,62.2515223 C926.954829,62.6312181 926.672675,62.9450133 926.306599,62.9946757 L926.204829,63.0015223 L884.204829,63.0015223 C883.790615,63.0015223 883.454829,62.6657359 883.454829,62.2515223 C883.454829,61.8718266 883.736983,61.5580314 884.103058,61.508369 L884.204829,61.5015223 L926.204829,61.5015223 Z" id="Line-5-Copy" fill="#A5E0F0" fill-rule="nonzero"></path>
                <path d="M831.240363,61.5015223 C831.654576,61.5015223 831.990363,61.8373088 831.990363,62.2515223 C831.990363,62.6312181 831.708209,62.9450133 831.342133,62.9946757 L831.240363,63.0015223 L788.204829,63.0015223 C787.790615,63.0015223 787.454829,62.6657359 787.454829,62.2515223 C787.454829,61.8718266 787.736983,61.5580314 788.103058,61.508369 L788.204829,61.5015223 L831.240363,61.5015223 Z" id="Line-5-Copy-2" fill="#A5E0F0" fill-rule="nonzero"></path>
            </g>
        </g>
    </g>
</svg>