<?xml version="1.0" encoding="UTF-8"?>
<svg width="40px" height="40px" viewBox="0 0 40 40" version="1.1" xmlns="http://www.w3.org/2000/svg" xmlns:xlink="http://www.w3.org/1999/xlink">
    <!-- Generator: Sketch 62 (91390) - https://sketch.com -->
    <title>f</title>
    <desc>Created with Sketch.</desc>
    <g id="Results-Page-/-Brand-Page" stroke="none" stroke-width="1" fill="none" fill-rule="evenodd">
        <path d="M23.0272888,39.1406151 C32.2897332,37.6859219 39.3749061,29.6703466 39.3749061,20.0000358 C39.3749061,9.29693628 30.7030518,0.625081956 19.9999523,0.625081956 C9.29685283,0.625081956 0.62499851,9.29693628 0.62499851,20.0000358 C0.62499851,29.6703466 7.71017144,37.6859219 16.9726158,39.1406151 L16.9726158,25.6008372 L12.0507525,25.6008372 L12.0507525,20.0000358 L16.9726158,20.0000358 L16.9726158,15.7313234 C16.9726158,10.8758357 19.8632339,8.19380476 24.290561,8.19380476 C26.410841,8.19380476 28.6280903,8.57191665 28.6280903,8.57191665 L28.6280903,13.3375303 L26.1843248,13.3375303 C23.7780958,13.3375303 23.0272888,14.8312859 23.0272888,16.3633409 L23.0272888,20.0000358 L28.4007349,20.0000358 L27.5413619,25.6008372 L23.0272888,25.6008372 L23.0272888,39.1406151 Z" id="f" fill="#FFFFFF" fill-rule="nonzero"></path>
    </g>
</svg>