<?xml version="1.0" encoding="UTF-8"?>
<svg width="22px" height="23px" viewBox="0 0 22 23" version="1.1" xmlns="http://www.w3.org/2000/svg" xmlns:xlink="http://www.w3.org/1999/xlink">
    <!-- Generator: Sketch 62 (91390) - https://sketch.com -->
    <title>Combined Shape</title>
    <desc>Created with Sketch.</desc>
    <g id="Results-Page-/-Brand-Page" stroke="none" stroke-width="1" fill="none" fill-rule="evenodd">
        <g id="Brand-Landing-Page-Image-Option" transform="translate(-974.000000, -640.000000)" fill="#FFFFFF" fill-rule="nonzero">
            <path d="M979.75,655.25 C981.56403,655.25 983.07722,656.538053 983.424878,658.249468 L994.75,658.25 C995.164214,658.25 995.5,658.585786 995.5,659 C995.5,659.379696 995.217846,659.693491 994.851771,659.743153 L994.75,659.75 L983.424878,659.750532 C983.07722,661.461947 981.56403,662.75 979.75,662.75 C977.93597,662.75 976.42278,661.461947 976.075122,659.750532 L974.75,659.75 C974.335786,659.75 974,659.414214 974,659 C974,658.620304 974.282154,658.306509 974.648229,658.256847 L974.75,658.25 L976.075122,658.249468 C976.42278,656.538053 977.93597,655.25 979.75,655.25 Z M979.75,656.75 C978.507359,656.75 977.5,657.757359 977.5,659 C977.5,660.242641 978.507359,661.25 979.75,661.25 C980.992641,661.25 982,660.242641 982,659 C982,657.757359 980.992641,656.75 979.75,656.75 Z M989.75,647.25 C991.736875,647.25 993.362849,648.795204 993.491763,650.749453 L994.75,650.75 C995.164214,650.75 995.5,651.085786 995.5,651.5 C995.5,651.879696 995.217846,652.193491 994.851771,652.243153 L994.75,652.25 L993.286378,652.25068 C992.77139,653.706815 991.382519,654.75 989.75,654.75 C988.117481,654.75 986.72861,653.706815 986.213622,652.25068 L974.75,652.25 C974.335786,652.25 974,651.914214 974,651.5 C974,651.120304 974.282154,650.806509 974.648229,650.756847 L974.75,650.75 L986.008237,650.749453 C986.137151,648.795204 987.763125,647.25 989.75,647.25 Z M989.75,648.75 C988.507359,648.75 987.5,649.757359 987.5,651 C987.5,652.242641 988.507359,653.25 989.75,653.25 C990.992641,653.25 992,652.242641 992,651 C992,649.757359 990.992641,648.75 989.75,648.75 Z M979.75,640.25 C981.56403,640.25 983.07722,641.538053 983.424878,643.249468 L994.75,643.25 C995.164214,643.25 995.5,643.585786 995.5,644 C995.5,644.379696 995.217846,644.693491 994.851771,644.743153 L994.75,644.75 L983.424878,644.750532 C983.07722,646.461947 981.56403,647.75 979.75,647.75 C977.93597,647.75 976.42278,646.461947 976.075122,644.750532 L974.75,644.75 C974.335786,644.75 974,644.414214 974,644 C974,643.620304 974.282154,643.306509 974.648229,643.256847 L974.75,643.25 L976.075122,643.249468 C976.42278,641.538053 977.93597,640.25 979.75,640.25 Z M979.75,641.75 C978.507359,641.75 977.5,642.757359 977.5,644 C977.5,645.242641 978.507359,646.25 979.75,646.25 C980.992641,646.25 982,645.242641 982,644 C982,642.757359 980.992641,641.75 979.75,641.75 Z" id="Combined-Shape"></path>
        </g>
    </g>
</svg>