<?xml version="1.0" encoding="UTF-8"?>
<svg width="22px" height="22px" viewBox="0 0 22 22" version="1.1" xmlns="http://www.w3.org/2000/svg" xmlns:xlink="http://www.w3.org/1999/xlink">
    <!-- Generator: Sketch 62 (91390) - https://sketch.com -->
    <title>Combined Shape</title>
    <desc>Created with Sketch.</desc>
    <g id="Menu-Design" stroke="none" stroke-width="1" fill="none" fill-rule="evenodd">
        <g id="Menu-Cart-Hover" transform="translate(-1051.000000, -236.000000)" fill="#D3DAE8" fill-rule="nonzero">
            <path d="M1062.14214,236.642136 C1067.94113,236.642136 1072.64214,241.343146 1072.64214,247.142136 C1072.64214,252.941125 1067.94113,257.642136 1062.14214,257.642136 C1056.34315,257.642136 1051.64214,252.941125 1051.64214,247.142136 C1051.64214,241.343146 1056.34315,236.642136 1062.14214,236.642136 Z M1062.14214,237.642136 C1056.89543,237.642136 1052.64214,241.895431 1052.64214,247.142136 C1052.64214,252.388841 1056.89543,256.642136 1062.14214,256.642136 C1067.38884,256.642136 1071.64214,252.388841 1071.64214,247.142136 C1071.64214,241.895431 1067.38884,237.642136 1062.14214,237.642136 Z M1062.14214,241.642136 C1062.3876,241.642136 1062.59174,241.819011 1062.63408,242.05226 L1062.64214,242.142136 L1062.64214,246.642136 L1067.14214,246.642136 C1067.41828,246.642136 1067.64214,246.865993 1067.64214,247.142136 C1067.64214,247.387596 1067.46526,247.591744 1067.23201,247.63408 L1067.14214,247.642136 L1062.64214,247.642136 L1062.64214,252.142136 C1062.64214,252.418278 1062.41828,252.642136 1062.14214,252.642136 C1061.89668,252.642136 1061.69253,252.46526 1061.65019,252.232011 L1061.64214,252.142136 L1061.64214,247.642136 L1057.14214,247.642136 C1056.86599,247.642136 1056.64214,247.418278 1056.64214,247.142136 C1056.64214,246.896676 1056.81901,246.692527 1057.05226,246.650191 L1057.14214,246.642136 L1061.64214,246.642136 L1061.64214,242.142136 C1061.64214,241.865993 1061.86599,241.642136 1062.14214,241.642136 Z" id="Combined-Shape"></path>
        </g>
    </g>
</svg>