<?xml version="1.0" encoding="UTF-8"?>
<svg width="37px" height="36px" viewBox="0 0 37 36" version="1.1" xmlns="http://www.w3.org/2000/svg" xmlns:xlink="http://www.w3.org/1999/xlink">
    <!-- Generator: Sketch 62 (91390) - https://sketch.com -->
    <title>I</title>
    <desc>Created with Sketch.</desc>
    <g id="Results-Page-/-Brand-Page" stroke="none" stroke-width="1" fill="none" fill-rule="evenodd">
        <path d="M25.7265035,35.3750249 C28.5312149,35.2421974 31.0155687,34.6015587 33.0624541,32.5468913 C35.1092632,30.500006 35.7499019,28.0156521 35.8905113,25.2109408 C36.0546192,22.3203227 36.0546192,13.6641086 35.8905113,10.7734905 C35.7577601,7.96877916 35.1171214,5.48442534 33.0624541,3.43753996 C31.0155687,1.39073088 28.5312149,0.750092149 25.7265035,0.609482743 C22.8358854,0.445374858 14.1718131,0.445374858 11.281195,0.609482743 C8.4843419,0.742233891 5.99998808,1.38287262 3.94532074,3.429758 C1.89065339,5.47664338 1.25779663,7.9609972 1.11718722,10.7657085 C0.953155629,13.6563266 0.953155629,22.3203227 1.11718722,25.2109408 C1.25001466,28.0156521 1.89065339,30.500006 3.94532074,32.5468913 C5.99998808,34.5937767 8.47655993,35.2343392 11.281195,35.3750249 C14.1718131,35.5390564 22.8358854,35.5390564 25.7265035,35.3750249 Z M18.5077402,32.343721 C15.9609018,32.343721 10.4843829,32.5468913 8.18748286,31.6405977 C6.65626703,31.0312394 5.47653657,29.8515853 4.85939632,28.3125112 C3.94532074,26.0078292 4.15627299,20.5390922 4.15627299,17.9922538 C4.15627299,15.4453391 3.9531027,9.96882017 4.85939632,7.67192013 C5.4687546,6.1407043 6.64840877,4.96097383 8.18748286,4.34383358 C10.4921649,3.429758 15.9609018,3.64071026 18.5077402,3.64071026 C21.0546549,3.64071026 26.5311739,3.43753996 28.8280739,4.34383358 C30.3592897,4.95319187 31.5390202,6.13284604 32.1561605,7.67192013 C33.070236,9.97660213 32.8592838,15.4453391 32.8592838,17.9922538 C32.8592838,20.5390922 33.070236,26.0156111 32.1561605,28.3125112 C31.5468022,29.843727 30.367148,31.0234575 28.8280739,31.6405977 C26.5233919,32.5546733 21.0546549,32.343721 18.5077402,32.343721 Z M27.8515137,10.74221 C29.0077457,10.74221 29.9452435,9.81257054 29.9452435,8.6484803 C29.9452435,7.49224832 29.0077457,6.55475055 27.8515137,6.55475055 C26.6952818,6.55475055 25.757784,7.49224832 25.757784,8.6484803 C25.757784,9.80471228 26.6874235,10.74221 27.8515137,10.74221 Z M18.5077402,26.9687491 C23.4765242,26.9687491 27.4843119,22.9609614 27.4843119,17.9922538 C27.4843119,13.0234699 23.4765242,9.01568218 18.5077402,9.01568218 C13.5390326,9.01568218 9.53124492,13.0234699 9.53124492,17.9922538 C9.53124492,22.9609614 13.5390326,26.9687491 18.5077402,26.9687491 Z M18.5077402,23.8281163 C15.2968409,23.8281163 12.6718777,21.2109351 12.6718777,17.9922538 C12.6718777,14.7734962 15.2890589,12.156315 18.5077402,12.156315 C21.7264978,12.156315 24.3436791,14.7734962 24.3436791,17.9922538 C24.3436791,21.2109351 21.7187159,23.8281163 18.5077402,23.8281163 Z" id="I" fill="#FFFFFF" fill-rule="nonzero"></path>
    </g>
</svg>