<?xml version="1.0" encoding="UTF-8"?>
<svg width="23px" height="19px" viewBox="0 0 23 19" version="1.1" xmlns="http://www.w3.org/2000/svg" xmlns:xlink="http://www.w3.org/1999/xlink">
    <!-- Generator: Sketch 62 (91390) - https://sketch.com -->
    <title>c</title>
    <desc>Created with Sketch.</desc>
    <g id="Symbols" stroke="none" stroke-width="1" fill="none" fill-rule="evenodd">
        <g id="Footer" transform="translate(-1397.000000, -791.000000)" fill="#FFFFFF" fill-rule="nonzero">
            <path d="M1417.62495,809.289059 C1418.6601,809.289059 1419.49995,808.449218 1419.49995,807.414064 L1419.49995,793.664097 C1419.49995,792.628943 1418.6601,791.789101 1417.62495,791.789101 L1398.875,791.789101 C1397.83984,791.789101 1397,792.628943 1397,793.664097 L1397,807.414064 C1397,808.449218 1397.83984,809.289059 1398.875,809.289059 L1417.62495,809.289059 Z M1411.58981,804.52345 C1410.53512,804.52345 1409.48433,804.207056 1408.60153,803.621119 C1411.46091,801.316437 1411.41792,796.933628 1408.60153,794.617235 C1409.48433,794.03519 1410.5273,793.71487 1411.58981,793.71487 C1414.57419,793.71487 1416.99995,796.140669 1416.99995,799.117193 C1416.99995,802.105468 1414.57419,804.527337 1411.58981,804.52345 Z M1404.91014,804.527337 C1401.92575,804.527337 1399.49999,802.105468 1399.49999,799.117193 C1399.49999,796.140669 1401.92575,793.71487 1404.91014,793.718795 C1405.97264,793.718795 1407.01562,794.03519 1407.89841,794.621126 C1405.07028,796.937519 1405.05075,801.308617 1407.89841,803.62501 C1407.01562,804.207056 1405.97264,804.527337 1404.91014,804.527337 Z M1408.24997,803.367214 C1405.49607,801.222672 1405.50778,797.031284 1408.24997,794.87114 C1410.99216,797.031284 1411.00387,801.218781 1408.24997,803.367214 Z M1414.67185,806.52734 C1414.67185,805.785154 1415.51947,805.5586 1415.83979,805.984395 L1415.83979,805.23046 L1416.1484,805.23046 L1416.1484,807.249994 L1415.83979,807.249994 L1415.83979,807.070322 C1415.55075,807.488298 1414.67185,807.285166 1414.67185,806.52734 Z M1406.52734,806.750003 L1406.52734,806.097653 L1406.23044,806.097653 L1406.23044,805.812505 L1406.52734,805.812505 L1406.52734,805.374999 L1406.84762,805.374999 L1406.84762,805.812505 L1407.35936,805.812505 L1407.35936,806.101582 L1406.84762,806.101582 L1406.84762,806.750003 C1406.84762,807.082033 1407.17576,806.992198 1407.32419,806.910144 L1407.41013,807.175798 C1407.20311,807.312517 1406.52734,807.437486 1406.52734,806.750003 Z M1409.64451,807.246103 L1409.32419,807.246103 L1409.32419,805.812505 L1409.64451,805.812505 L1409.64451,805.984395 C1409.78512,805.742201 1410.05855,805.73438 1410.23826,805.812505 L1410.1445,806.109364 C1410.0156,806.042989 1409.64451,805.984395 1409.64451,806.437504 L1409.64451,807.246103 Z M1407.61326,806.523449 C1407.61326,806.078122 1407.91012,805.769552 1408.32421,805.769552 C1408.71483,805.769552 1409.00387,806.019528 1409.00387,806.652347 L1407.92965,806.652347 C1408.01949,807.070322 1408.48046,807.093745 1408.78514,806.843768 L1408.93357,807.078142 C1408.49606,807.457017 1407.61326,807.324228 1407.61326,806.523449 Z M1413.98044,807.246103 L1413.67183,807.246103 L1413.67183,805.812505 L1413.98044,805.812505 L1413.98044,805.984395 C1414.14451,805.699209 1414.48043,805.765623 1414.57419,805.812505 L1414.48043,806.109364 C1414.332,806.035169 1413.98044,806.007817 1413.98044,806.437504 L1413.98044,807.246103 Z M1411.76948,806.52734 C1411.76948,805.796865 1412.61325,805.554709 1412.93746,805.984395 L1412.93746,805.812505 L1413.25778,805.812505 L1413.25778,807.249994 L1412.93746,807.249994 L1412.93746,807.070322 C1412.64449,807.492189 1411.76948,807.277345 1411.76948,806.52734 Z M1404.75389,807.105456 L1404.89061,806.85937 C1405.17186,807.054682 1405.69921,807.074213 1405.69921,806.828128 C1405.69921,806.566402 1404.80466,806.800776 1404.80466,806.242192 C1404.80466,805.687498 1405.61715,805.683607 1405.98435,805.921872 L1405.85546,806.175778 C1405.59762,806.031239 1405.1328,805.996106 1405.1328,806.21877 C1405.1328,806.492206 1406.02731,806.226551 1406.02731,806.812488 C1406.02731,807.33983 1405.19139,807.402353 1404.75389,807.105456 Z M1400.72657,807.246103 L1400.40625,807.246103 L1400.40625,805.812505 L1400.72657,805.812505 L1400.72657,805.984395 C1400.84376,805.828145 1400.99219,805.773443 1401.14062,805.773443 C1401.36328,805.773443 1401.52342,805.867208 1401.61718,806.027348 C1401.74608,805.828145 1401.9375,805.773443 1402.11718,805.773443 C1402.46874,805.785154 1402.6914,806.007817 1402.6914,806.347668 L1402.69922,806.347668 L1402.69922,807.246103 L1402.3789,807.246103 C1402.3789,806.457035 1402.45703,806.066411 1402.05858,806.066411 C1401.60936,806.066411 1401.70702,806.531269 1401.70702,807.246103 L1401.39841,807.246103 C1401.39841,806.464855 1401.47654,806.066411 1401.07813,806.066411 C1400.62891,806.066411 1400.72657,806.507808 1400.72657,807.246103 Z M1403.67967,807.281236 C1403.27734,807.281236 1402.96873,806.964846 1402.96873,806.52734 C1402.96873,806.093762 1403.27734,805.773443 1403.67967,805.773443 C1403.8828,805.773443 1404.03123,805.855459 1404.13671,805.984395 L1404.13671,805.812505 L1404.44528,805.812505 L1404.44528,807.249994 L1404.13671,807.249994 L1404.13671,807.070322 C1404.03123,807.207041 1403.8828,807.281236 1403.67967,807.281236 Z M1410.33199,806.531269 C1410.33199,805.785154 1411.15623,805.589842 1411.60934,805.945333 L1411.46091,806.199238 C1411.10542,805.937513 1410.65231,806.082051 1410.65231,806.52734 C1410.65231,806.964846 1411.10153,807.117205 1411.46091,806.863299 L1411.60934,807.117205 C1411.20701,807.460946 1410.33199,807.304697 1410.33199,806.531269 Z M1408.68748,806.398441 C1408.65231,806.175778 1408.51559,806.058591 1408.31246,806.058591 C1408.10154,806.058591 1407.97265,806.195309 1407.94136,806.398441 L1408.68748,806.398441 Z M1415.42574,806.984377 C1415.68354,806.984377 1415.86325,806.792956 1415.86325,806.52734 C1415.86325,806.273434 1415.68354,806.070302 1415.42574,806.070302 C1415.16013,806.070302 1414.98824,806.273434 1414.98824,806.52734 C1414.98824,806.781245 1415.16013,806.984377 1415.42574,806.984377 Z M1412.52342,806.984377 C1412.78903,806.984377 1412.96088,806.792956 1412.96088,806.52734 C1412.96088,806.273434 1412.78903,806.070302 1412.52342,806.070302 C1412.25776,806.070302 1412.09762,806.273434 1412.09762,806.52734 C1412.09762,806.781245 1412.25776,806.984377 1412.52342,806.984377 Z M1403.72262,806.984377 C1403.97653,806.984377 1404.14842,806.792956 1404.14842,806.52734 C1404.14453,806.273434 1403.97653,806.070302 1403.72262,806.070302 C1403.4453,806.070302 1403.28516,806.273434 1403.28516,806.52734 C1403.28516,806.781245 1403.4453,806.984377 1403.72262,806.984377 Z" id="c"></path>
        </g>
    </g>
</svg>