<?xml version="1.0" encoding="UTF-8"?>
<svg width="16px" height="16px" viewBox="0 0 16 16" version="1.1" xmlns="http://www.w3.org/2000/svg" xmlns:xlink="http://www.w3.org/1999/xlink">
    <!-- Generator: Sketch 62 (91390) - https://sketch.com -->
    <title>Group</title>
    <desc>Created with Sketch.</desc>
    <g id="Menu-Design" stroke="none" stroke-width="1" fill="none" fill-rule="evenodd">
        <g id="Mobile-Menu-Open-Expanded" transform="translate(-22.000000, -19.000000)" fill="#14145A" fill-rule="nonzero">
            <g id="Group" transform="translate(22.250000, 19.250000)">
                <path d="M14.2196699,0.219669914 C14.5125631,-0.0732233047 14.9874369,-0.0732233047 15.2803301,0.219669914 C15.5465966,0.485936477 15.5708027,0.902600159 15.3529482,1.19621165 L15.2803301,1.28033009 L1.28033009,15.2803301 C0.987436867,15.5732233 0.512563133,15.5732233 0.219669914,15.2803301 C-0.0465966484,15.0140635 -0.0708026996,14.5973998 0.147051761,14.3037883 L0.219669914,14.2196699 L14.2196699,0.219669914 Z" id="Line-5-Copy"></path>
                <path d="M0.219669914,0.219669914 C0.485936477,-0.0465966484 0.902600159,-0.0708026996 1.19621165,0.147051761 L1.28033009,0.219669914 L15.2803301,14.2196699 C15.5732233,14.5125631 15.5732233,14.9874369 15.2803301,15.2803301 C15.0140635,15.5465966 14.5973998,15.5708027 14.3037883,15.3529482 L14.2196699,15.2803301 L0.219669914,1.28033009 C-0.0732233047,0.987436867 -0.0732233047,0.512563133 0.219669914,0.219669914 Z" id="Line-5-Copy"></path>
            </g>
        </g>
    </g>
</svg>