<?xml version="1.0" encoding="UTF-8"?>
<svg width="22px" height="15px" viewBox="0 0 22 15" version="1.1" xmlns="http://www.w3.org/2000/svg" xmlns:xlink="http://www.w3.org/1999/xlink">
    <!-- Generator: Sketch 62 (91390) - https://sketch.com -->
    <title>Group</title>
    <desc>Created with Sketch.</desc>
    <g id="Menu-Design" stroke="none" stroke-width="1" fill="none" fill-rule="evenodd">
        <g id="Mobile-Menu" transform="translate(-19.000000, -22.000000)" fill="#14145A" fill-rule="nonzero">
            <g id="Group" transform="translate(19.250000, 22.750000)">
                <path d="M20.75,0 C21.1642136,0 21.5,0.335786438 21.5,0.75 C21.5,1.12969577 21.2178461,1.44349096 20.8517706,1.49315338 L20.75,1.5 L0.75,1.5 C0.335786438,1.5 0,1.16421356 0,0.75 C0,0.370304234 0.282153882,0.0565090391 0.648229443,0.006846616 L0.75,0 L20.75,0 Z" id="Line-5"></path>
                <path d="M20.75,6.5 C21.1642136,6.5 21.5,6.83578644 21.5,7.25 C21.5,7.62969577 21.2178461,7.94349096 20.8517706,7.99315338 L20.75,8 L0.75,8 C0.335786438,8 0,7.66421356 0,7.25 C0,6.87030423 0.282153882,6.55650904 0.648229443,6.50684662 L0.75,6.5 L20.75,6.5 Z" id="Line-5-Copy"></path>
                <path d="M20.75,12.5 C21.1642136,12.5 21.5,12.8357864 21.5,13.25 C21.5,13.6296958 21.2178461,13.943491 20.8517706,13.9931534 L20.75,14 L0.75,14 C0.335786438,14 0,13.6642136 0,13.25 C0,12.8703042 0.282153882,12.556509 0.648229443,12.5068466 L0.75,12.5 L20.75,12.5 Z" id="Line-5-Copy-2"></path>
            </g>
        </g>
    </g>
</svg>