<?xml version="1.0" encoding="UTF-8"?>
<svg width="342px" height="242px" viewBox="0 0 342 242" version="1.1" xmlns="http://www.w3.org/2000/svg" xmlns:xlink="http://www.w3.org/1999/xlink">
    <!-- Generator: Sketch 62 (91390) - https://sketch.com -->
    <title>Group</title>
    <desc>Created with Sketch.</desc>
    <g id="Menu-Design" stroke="none" stroke-width="1" fill="none" fill-rule="evenodd">
        <g id="Mobile-Menu-Search" transform="translate(-19.000000, -121.000000)">
            <g id="Group" transform="translate(19.275629, 122.000000)">
                <path d="M340.224371,19.25 L332.224371,19.25 C328.772591,19.25 325.974371,22.0482203 325.974371,25.5 C325.974371,28.9517797 328.772591,31.75 332.224371,31.75 L340.224371,31.75 C340.348615,31.75 340.47247,31.7463654 340.595827,31.7391214 C340.98741,31.7161264 341.295131,31.3952754 341.301753,31.0030738 L341.487046,20.0362407 C341.493561,19.643967 341.196741,19.3128734 340.806077,19.276762 C340.613443,19.2589557 340.419398,19.25 340.224371,19.25 Z M339.974371,20.75 L339.813371,30.25 L332.224371,30.25 C329.601018,30.25 327.474371,28.1233526 327.474371,25.5 C327.474371,22.8766474 329.601018,20.75 332.224371,20.75 L339.974371,20.75 Z" id="Combined-Shape" fill="#14145A" fill-rule="nonzero"></path>
                <path d="M62.5843877,41.7059872 L62.9997219,41.5049743 C80.3343646,33.1510388 93.4630793,29.0179294 108.815645,28.5555874 C123.84044,28.1031161 135.433344,30.831599 151.946958,37.3397565 L154.923129,38.5277972 L158.38452,39.9232071 C160.585906,40.8083695 162.199673,41.4446533 163.772381,42.0415819 C167.790164,43.5665497 171.113621,44.6596005 174.310754,45.4601201 C179.615651,46.7883957 184.473545,47.2639902 189.330794,46.810321 L191.966888,46.5725918 C210.27124,44.9704104 259.14807,41.5335446 338.582556,36.2632003 C340.009042,36.1685553 341.12509,34.9966955 341.15008,33.5672901 L341.443512,16.9053217 C341.466709,15.4420789 340.341802,14.2151441 338.881841,14.1138792 L335.945655,13.9180493 C316.036622,12.6412555 289.438397,11.9392396 256.147889,11.811569 L225.071228,11.6951199 L201.655699,11.5935316 L193.05475,11.5727886 C139.729566,11.4906206 107.995847,12.3600007 85.8264902,15.1309639 L84.0554069,15.3566354 C54.9924495,19.1291962 19.4917556,27.0921226 5.50925088,31.5026468 L4.95017365,31.6867493 C0.162109996,33.3345884 -0.664672306,35.5783979 0.427313763,40.290946 C1.03354709,42.9071915 3.30723923,46.2016095 6.90033224,48.8192531 C11.7695983,52.3666156 18.6105982,54.4820886 27.5374446,54.6377834 C32.287817,54.7206355 37.4524392,53.3790635 44.024419,50.5963285 L44.8534802,50.2411858 C46.8032246,49.3964593 48.8774589,48.4316223 51.446039,47.1852106 L62.5843877,41.7059872 Z M52.4760992,45.0127388 C48.7190038,46.8584205 46.0092309,48.1269858 43.4395522,49.2150498 C37.0435836,51.9232575 32.0649369,53.2165201 27.5636024,53.1380115 C18.9338375,52.9874981 12.3928014,50.9647843 7.78357932,47.6068693 C4.47393572,45.1957245 2.41095259,42.2066089 1.88859593,39.9523394 C0.936067016,35.8416292 1.48854583,34.3932317 5.70323419,33.0157521 L5.96048241,32.9331677 C20.1441381,28.4591942 56.7290517,20.2795445 86.0125287,16.6193824 C108.098069,13.8588954 139.798364,12.9907369 193.060172,13.0728061 L224.405172,13.1919219 C238.154052,13.2583629 243.795216,13.2816125 251.101018,13.2967227 L257.384805,13.3166043 C291.721118,13.4638159 318.85335,14.2285369 338.778058,15.6102846 C339.441672,15.6563137 339.952995,16.2140135 339.94194,16.8791223 L339.650309,33.5410804 C339.63895,34.1908047 339.131653,34.7234707 338.483252,34.766491 L300.940605,37.2738903 C239.793601,41.3886708 202.547249,44.0693699 189.191301,45.3168212 C184.515021,45.7535878 179.824474,45.2943768 174.675087,44.0050388 C171.542832,43.2207639 168.272007,42.1450232 164.304662,40.6391992 L162.589756,39.9791514 C161.877273,39.701369 161.12108,39.4025124 160.278385,39.0661725 L153.391047,36.2983504 C136.22721,29.467232 124.308095,26.5883527 108.770493,27.0562671 C93.4354807,27.5180805 80.3154859,31.5731711 63.2503567,39.7210848 L61.8608444,40.3898526 C61.558199,40.5369312 61.2056767,40.7090015 60.8181983,40.8986467 L52.4760992,45.0127388 Z" id="Path-3" fill="#14145A" fill-rule="nonzero"></path>
                <path d="M3.97237105,87.1680488 L3.97237105,79.4720488 L7.94037105,87.0720488 L9.18837105,87.0720488 L13.140371,79.4720488 L13.140371,87.1680488 L15.028371,87.1680488 L15.028371,75.2000488 L13.364371,75.2000488 L8.56437105,84.2880488 L3.74837105,75.2000488 L2.06837105,75.2000488 L2.06837105,87.1680488 L3.97237105,87.1680488 Z M21.444371,87.3280488 C22.052371,87.3280488 22.6177044,87.2267154 23.140371,87.0240488 C23.6630377,86.8213821 24.1137044,86.5360488 24.492371,86.1680488 C24.8710377,85.8000488 25.1697044,85.3547154 25.388371,84.8320488 C25.6070377,84.3093821 25.716371,83.7227154 25.716371,83.0720488 C25.716371,82.4213821 25.6070377,81.8320488 25.388371,81.3040488 C25.1697044,80.7760488 24.8710377,80.3280488 24.492371,79.9600488 C24.1137044,79.5920488 23.6630377,79.3093821 23.140371,79.1120488 C22.6177044,78.9147154 22.052371,78.8160488 21.444371,78.8160488 C20.836371,78.8160488 20.2710377,78.9147154 19.748371,79.1120488 C19.2257044,79.3093821 18.772371,79.5920488 18.388371,79.9600488 C18.004371,80.3280488 17.7030377,80.7760488 17.484371,81.3040488 C17.2657044,81.8320488 17.156371,82.4213821 17.156371,83.0720488 C17.156371,83.7227154 17.2657044,84.3093821 17.484371,84.8320488 C17.7030377,85.3547154 18.004371,85.8000488 18.388371,86.1680488 C18.772371,86.5360488 19.2257044,86.8213821 19.748371,87.0240488 C20.2710377,87.2267154 20.836371,87.3280488 21.444371,87.3280488 Z M21.444371,85.7760488 C20.7297044,85.7760488 20.140371,85.5387154 19.676371,85.0640488 C19.212371,84.5893821 18.980371,83.9253821 18.980371,83.0720488 C18.980371,82.2080488 19.212371,81.5387154 19.676371,81.0640488 C20.140371,80.5893821 20.7297044,80.3520488 21.444371,80.3520488 C21.796371,80.3520488 22.1217044,80.4133821 22.420371,80.5360488 C22.7190377,80.6587154 22.980371,80.8373821 23.204371,81.0720488 C23.428371,81.3067154 23.6017044,81.5920488 23.724371,81.9280488 C23.8470377,82.2640488 23.908371,82.6453821 23.908371,83.0720488 C23.908371,83.4987154 23.8470377,83.8800488 23.724371,84.2160488 C23.6017044,84.5520488 23.428371,84.8347154 23.204371,85.0640488 C22.980371,85.2933821 22.7190377,85.4693821 22.420371,85.5920488 C22.1217044,85.7147154 21.796371,85.7760488 21.444371,85.7760488 Z M31.252371,87.3280488 C31.892371,87.3280488 32.4470377,87.2053821 32.916371,86.9600488 C33.3857044,86.7147154 33.732371,86.4053821 33.956371,86.0320488 L33.956371,86.0320488 L33.956371,87.1680488 L35.652371,87.1680488 L35.652371,74.7360488 L33.860371,74.7360488 L33.860371,79.9520488 C33.636371,79.6320488 33.300371,79.3627154 32.852371,79.1440488 C32.404371,78.9253821 31.8710377,78.8160488 31.252371,78.8160488 C30.676371,78.8160488 30.148371,78.9147154 29.668371,79.1120488 C29.188371,79.3093821 28.772371,79.5920488 28.420371,79.9600488 C28.068371,80.3280488 27.7937044,80.7760488 27.596371,81.3040488 C27.3990377,81.8320488 27.300371,82.4213821 27.300371,83.0720488 C27.300371,83.7227154 27.3990377,84.3120488 27.596371,84.8400488 C27.7937044,85.3680488 28.068371,85.8160488 28.420371,86.1840488 C28.772371,86.5520488 29.188371,86.8347154 29.668371,87.0320488 C30.148371,87.2293821 30.676371,87.3280488 31.252371,87.3280488 Z M31.540371,85.7760488 C31.188371,85.7760488 30.8657044,85.7173821 30.572371,85.6000488 C30.2790377,85.4827154 30.0257044,85.3093821 29.812371,85.0800488 C29.5990377,84.8507154 29.4310377,84.5680488 29.308371,84.2320488 C29.1857044,83.8960488 29.124371,83.5093821 29.124371,83.0720488 C29.124371,82.6347154 29.1857044,82.2480488 29.308371,81.9120488 C29.4310377,81.5760488 29.5990377,81.2907154 29.812371,81.0560488 C30.0257044,80.8213821 30.2790377,80.6453821 30.572371,80.5280488 C30.8657044,80.4107154 31.188371,80.3520488 31.540371,80.3520488 C32.212371,80.3520488 32.7670377,80.5653821 33.204371,80.9920488 C33.6417044,81.4187154 33.860371,82.0373821 33.860371,82.8480488 L33.860371,82.8480488 L33.860371,83.2800488 C33.860371,84.1013821 33.6417044,84.7227154 33.204371,85.1440488 C32.7670377,85.5653821 32.212371,85.7760488 31.540371,85.7760488 Z M41.876371,87.3280488 C42.356371,87.3280488 42.804371,87.2587154 43.220371,87.1200488 C43.636371,86.9813821 44.0070377,86.7947154 44.332371,86.5600488 C44.6577044,86.3253821 44.9270377,86.0480488 45.140371,85.7280488 C45.3537044,85.4080488 45.5030377,85.0667154 45.588371,84.7040488 L45.588371,84.7040488 L43.780371,84.6080488 C43.6630377,84.9813821 43.4390377,85.2693821 43.108371,85.4720488 C42.7777044,85.6747154 42.3510377,85.7760488 41.828371,85.7760488 C41.1990377,85.7760488 40.6897044,85.5947154 40.300371,85.2320488 C39.9110377,84.8693821 39.6897044,84.3733821 39.636371,83.7440488 L39.636371,83.7440488 L45.668371,83.7440488 L45.668371,82.8640488 C45.668371,82.2453821 45.5777044,81.6853821 45.396371,81.1840488 C45.2150377,80.6827154 44.9590377,80.2560488 44.628371,79.9040488 C44.2977044,79.5520488 43.8950377,79.2827154 43.420371,79.0960488 C42.9457044,78.9093821 42.4150377,78.8160488 41.828371,78.8160488 C41.2310377,78.8160488 40.6817044,78.9120488 40.180371,79.1040488 C39.6790377,79.2960488 39.2470377,79.5760488 38.884371,79.9440488 C38.5217044,80.3120488 38.2390377,80.7573821 38.036371,81.2800488 C37.8337044,81.8027154 37.732371,82.4000488 37.732371,83.0720488 C37.732371,83.7333821 37.8337044,84.3280488 38.036371,84.8560488 C38.2390377,85.3840488 38.524371,85.8320488 38.892371,86.2000488 C39.260371,86.5680488 39.6977044,86.8480488 40.204371,87.0400488 C40.7110377,87.2320488 41.268371,87.3280488 41.876371,87.3280488 Z M43.860371,82.3360488 L39.652371,82.3360488 C39.7057044,81.6960488 39.9270377,81.2053821 40.316371,80.8640488 C40.7057044,80.5227154 41.204371,80.3520488 41.812371,80.3520488 C42.484371,80.3520488 42.988371,80.5333821 43.324371,80.8960488 C43.660371,81.2587154 43.8390377,81.7387154 43.860371,82.3360488 L43.860371,82.3360488 Z M49.540371,87.1680488 L49.540371,74.7360488 L47.748371,74.7360488 L47.748371,87.1680488 L49.540371,87.1680488 Z M57.652371,87.1680488 L57.652371,82.4800488 C57.652371,81.9040488 57.8257044,81.4267154 58.172371,81.0480488 C58.5190377,80.6693821 58.980371,80.4800488 59.556371,80.4800488 C60.100371,80.4800488 60.5350377,80.6560488 60.860371,81.0080488 C61.1857044,81.3600488 61.348371,81.8453821 61.348371,82.4640488 L61.348371,82.4640488 L61.348371,87.1680488 L63.156371,87.1680488 L63.156371,82.2240488 C63.156371,81.6907154 63.076371,81.2133821 62.916371,80.7920488 C62.756371,80.3707154 62.5350377,80.0133821 62.252371,79.7200488 C61.9697044,79.4267154 61.6337044,79.2027154 61.244371,79.0480488 C60.8550377,78.8933821 60.4257044,78.8160488 59.956371,78.8160488 C59.348371,78.8160488 58.8497044,78.9307154 58.460371,79.1600488 C58.0710377,79.3893821 57.7697044,79.6853821 57.556371,80.0480488 L57.556371,80.0480488 L57.556371,78.9600488 L55.860371,78.9600488 L55.860371,87.1680488 L57.652371,87.1680488 Z M68.596371,87.3280488 C69.236371,87.3280488 69.7457044,87.2000488 70.124371,86.9440488 C70.5030377,86.6880488 70.7670377,86.4053821 70.916371,86.0960488 L70.916371,86.0960488 L70.916371,87.1680488 L72.612371,87.1680488 L72.612371,78.9600488 L70.820371,78.9600488 L70.820371,83.6480488 C70.820371,83.9147154 70.780371,84.1680488 70.700371,84.4080488 C70.620371,84.6480488 70.5030377,84.8613821 70.348371,85.0480488 C70.1937044,85.2347154 70.0070377,85.3813821 69.788371,85.4880488 C69.5697044,85.5947154 69.3217044,85.6480488 69.044371,85.6480488 C68.500371,85.6480488 68.0870377,85.4800488 67.804371,85.1440488 C67.5217044,84.8080488 67.380371,84.3413821 67.380371,83.7440488 L67.380371,83.7440488 L67.380371,78.9600488 L65.588371,78.9600488 L65.588371,84.0160488 C65.588371,84.5173821 65.6577044,84.9707154 65.796371,85.3760488 C65.9350377,85.7813821 66.1350377,86.1280488 66.396371,86.4160488 C66.6577044,86.7040488 66.972371,86.9280488 67.340371,87.0880488 C67.708371,87.2480488 68.1270377,87.3280488 68.596371,87.3280488 Z M76.996371,87.1680488 L76.996371,82.4800488 C76.996371,81.9040488 77.164371,81.4267154 77.500371,81.0480488 C77.836371,80.6693821 78.292371,80.4800488 78.868371,80.4800488 C79.3590377,80.4800488 79.756371,80.6560488 80.060371,81.0080488 C80.364371,81.3600488 80.516371,81.8453821 80.516371,82.4640488 L80.516371,82.4640488 L80.516371,87.1680488 L82.324371,87.1680488 L82.324371,82.1760488 C82.3777044,81.6853821 82.5590377,81.2800488 82.868371,80.9600488 C83.1777044,80.6400488 83.588371,80.4800488 84.100371,80.4800488 C84.644371,80.4800488 85.0657044,80.6560488 85.364371,81.0080488 C85.6630377,81.3600488 85.812371,81.8453821 85.812371,82.4640488 L85.812371,82.4640488 L85.812371,87.1680488 L87.620371,87.1680488 L87.620371,82.1920488 C87.620371,81.6800488 87.5457044,81.2187154 87.396371,80.8080488 C87.2470377,80.3973821 87.0390377,80.0427154 86.772371,79.7440488 C86.5057044,79.4453821 86.1830377,79.2160488 85.804371,79.0560488 C85.4257044,78.8960488 85.0070377,78.8160488 84.548371,78.8160488 C83.8977044,78.8160488 83.3510377,78.9573821 82.908371,79.2400488 C82.4657044,79.5227154 82.1217044,79.8773821 81.876371,80.3040488 C81.6097044,79.8240488 81.252371,79.4560488 80.804371,79.2000488 C80.356371,78.9440488 79.844371,78.8160488 79.268371,78.8160488 C78.660371,78.8160488 78.1670377,78.9307154 77.788371,79.1600488 C77.4097044,79.3893821 77.1137044,79.6853821 76.900371,80.0480488 L76.900371,80.0480488 L76.900371,78.9600488 L75.204371,78.9600488 L75.204371,87.1680488 L76.996371,87.1680488 Z M94.532371,87.3280488 C95.108371,87.3280488 95.636371,87.2293821 96.116371,87.0320488 C96.596371,86.8347154 97.012371,86.5520488 97.364371,86.1840488 C97.716371,85.8160488 97.9910377,85.3680488 98.188371,84.8400488 C98.3857044,84.3120488 98.484371,83.7227154 98.484371,83.0720488 C98.484371,82.4213821 98.3857044,81.8320488 98.188371,81.3040488 C97.9910377,80.7760488 97.716371,80.3280488 97.364371,79.9600488 C97.012371,79.5920488 96.596371,79.3093821 96.116371,79.1120488 C95.636371,78.9147154 95.108371,78.8160488 94.532371,78.8160488 C93.9137044,78.8160488 93.380371,78.9253821 92.932371,79.1440488 C92.484371,79.3627154 92.148371,79.6320488 91.924371,79.9520488 L91.924371,79.9520488 L91.924371,74.7360488 L90.132371,74.7360488 L90.132371,87.1680488 L91.828371,87.1680488 L91.828371,86.0320488 C92.052371,86.4053821 92.3990377,86.7147154 92.868371,86.9600488 C93.3377044,87.2053821 93.892371,87.3280488 94.532371,87.3280488 Z M94.244371,85.7760488 C93.572371,85.7760488 93.0177044,85.5653821 92.580371,85.1440488 C92.1430377,84.7227154 91.924371,84.1013821 91.924371,83.2800488 L91.924371,83.2800488 L91.924371,82.8480488 C91.924371,82.0373821 92.1430377,81.4187154 92.580371,80.9920488 C93.0177044,80.5653821 93.572371,80.3520488 94.244371,80.3520488 C94.596371,80.3520488 94.9190377,80.4107154 95.212371,80.5280488 C95.5057044,80.6453821 95.7590377,80.8213821 95.972371,81.0560488 C96.1857044,81.2907154 96.3537044,81.5760488 96.476371,81.9120488 C96.5990377,82.2480488 96.660371,82.6347154 96.660371,83.0720488 C96.660371,83.5093821 96.5990377,83.8960488 96.476371,84.2320488 C96.3537044,84.5680488 96.1857044,84.8507154 95.972371,85.0800488 C95.7590377,85.3093821 95.5057044,85.4827154 95.212371,85.6000488 C94.9190377,85.7173821 94.596371,85.7760488 94.244371,85.7760488 Z M104.196371,87.3280488 C104.676371,87.3280488 105.124371,87.2587154 105.540371,87.1200488 C105.956371,86.9813821 106.327038,86.7947154 106.652371,86.5600488 C106.977704,86.3253821 107.247038,86.0480488 107.460371,85.7280488 C107.673704,85.4080488 107.823038,85.0667154 107.908371,84.7040488 L107.908371,84.7040488 L106.100371,84.6080488 C105.983038,84.9813821 105.759038,85.2693821 105.428371,85.4720488 C105.097704,85.6747154 104.671038,85.7760488 104.148371,85.7760488 C103.519038,85.7760488 103.009704,85.5947154 102.620371,85.2320488 C102.231038,84.8693821 102.009704,84.3733821 101.956371,83.7440488 L101.956371,83.7440488 L107.988371,83.7440488 L107.988371,82.8640488 C107.988371,82.2453821 107.897704,81.6853821 107.716371,81.1840488 C107.535038,80.6827154 107.279038,80.2560488 106.948371,79.9040488 C106.617704,79.5520488 106.215038,79.2827154 105.740371,79.0960488 C105.265704,78.9093821 104.735038,78.8160488 104.148371,78.8160488 C103.551038,78.8160488 103.001704,78.9120488 102.500371,79.1040488 C101.999038,79.2960488 101.567038,79.5760488 101.204371,79.9440488 C100.841704,80.3120488 100.559038,80.7573821 100.356371,81.2800488 C100.153704,81.8027154 100.052371,82.4000488 100.052371,83.0720488 C100.052371,83.7333821 100.153704,84.3280488 100.356371,84.8560488 C100.559038,85.3840488 100.844371,85.8320488 101.212371,86.2000488 C101.580371,86.5680488 102.017704,86.8480488 102.524371,87.0400488 C103.031038,87.2320488 103.588371,87.3280488 104.196371,87.3280488 Z M106.180371,82.3360488 L101.972371,82.3360488 C102.025704,81.6960488 102.247038,81.2053821 102.636371,80.8640488 C103.025704,80.5227154 103.524371,80.3520488 104.132371,80.3520488 C104.804371,80.3520488 105.308371,80.5333821 105.644371,80.8960488 C105.980371,81.2587154 106.159038,81.7387154 106.180371,82.3360488 L106.180371,82.3360488 Z M111.860371,87.1680488 L111.860371,82.7040488 C111.860371,82.4053821 111.913704,82.1280488 112.020371,81.8720488 C112.127038,81.6160488 112.279038,81.3947154 112.476371,81.2080488 C112.673704,81.0213821 112.913704,80.8747154 113.196371,80.7680488 C113.479038,80.6613821 113.796371,80.6080488 114.148371,80.6080488 L114.148371,80.6080488 L114.148371,78.8640488 C113.487038,78.8640488 112.969704,78.9920488 112.596371,79.2480488 C112.223038,79.5040488 111.961704,79.7920488 111.812371,80.1120488 L111.812371,80.1120488 L111.812371,78.9600488 L110.068371,78.9600488 L110.068371,87.1680488 L111.860371,87.1680488 Z" id="Modelnumber" fill="#F07350" fill-rule="nonzero"></path>
                <path d="M204.724371,50.5 C204.969831,50.5 205.173979,50.6768752 205.216315,50.9101244 L205.224371,51 L205.224371,81.2493325 C205.224371,82.5748159 204.192835,83.6593711 202.888747,83.7440148 L202.724371,83.7493325 L118.724371,83.7493325 C118.448229,83.7493325 118.224371,83.5254748 118.224371,83.2493325 C118.224371,83.0038726 118.401246,82.7997241 118.634495,82.7573881 L118.724371,82.7493325 L202.724371,82.7493325 C203.504067,82.7493325 204.14482,82.1544444 204.217504,81.3937925 L204.224371,81.2493325 L204.224371,51 C204.224371,50.7238576 204.448229,50.5 204.724371,50.5 Z" id="Path-2" fill="#F07350" fill-rule="nonzero"></path>
                <path d="M265.724371,94.5 C265.969831,94.5 266.173979,94.6768752 266.216315,94.9101244 L266.224371,95 L266.224371,164.249332 C266.224371,165.574816 265.192835,166.659371 263.888747,166.744015 L263.724371,166.749332 L199.724371,166.749332 C199.448229,166.749332 199.224371,166.525475 199.224371,166.249332 C199.224371,166.003873 199.401246,165.799724 199.634495,165.757388 L199.724371,165.749332 L263.724371,165.749332 C264.504067,165.749332 265.14482,165.154444 265.217504,164.393792 L265.224371,164.249332 L265.224371,95 C265.224371,94.7238576 265.448229,94.5 265.724371,94.5 Z" id="Path-2-Copy-3" fill="#F07350" fill-rule="nonzero"></path>
                <path d="M230.468371,87.4 L230.468371,85.704 L224.804371,85.704 L224.804371,75.432 L222.900371,75.432 L222.900371,87.4 L230.468371,87.4 Z M235.940371,87.56 C236.420371,87.56 236.868371,87.4906667 237.284371,87.352 C237.700371,87.2133333 238.071038,87.0266667 238.396371,86.792 C238.721704,86.5573333 238.991038,86.28 239.204371,85.96 C239.417704,85.64 239.567038,85.2986667 239.652371,84.936 L239.652371,84.936 L237.844371,84.84 C237.727038,85.2133333 237.503038,85.5013333 237.172371,85.704 C236.841704,85.9066667 236.415038,86.008 235.892371,86.008 C235.263038,86.008 234.753704,85.8266667 234.364371,85.464 C233.975038,85.1013333 233.753704,84.6053333 233.700371,83.976 L233.700371,83.976 L239.732371,83.976 L239.732371,83.096 C239.732371,82.4773333 239.641704,81.9173333 239.460371,81.416 C239.279038,80.9146667 239.023038,80.488 238.692371,80.136 C238.361704,79.784 237.959038,79.5146667 237.484371,79.328 C237.009704,79.1413333 236.479038,79.048 235.892371,79.048 C235.295038,79.048 234.745704,79.144 234.244371,79.336 C233.743038,79.528 233.311038,79.808 232.948371,80.176 C232.585704,80.544 232.303038,80.9893333 232.100371,81.512 C231.897704,82.0346667 231.796371,82.632 231.796371,83.304 C231.796371,83.9653333 231.897704,84.56 232.100371,85.088 C232.303038,85.616 232.588371,86.064 232.956371,86.432 C233.324371,86.8 233.761704,87.08 234.268371,87.272 C234.775038,87.464 235.332371,87.56 235.940371,87.56 Z M237.924371,82.568 L233.716371,82.568 C233.769704,81.928 233.991038,81.4373333 234.380371,81.096 C234.769704,80.7546667 235.268371,80.584 235.876371,80.584 C236.548371,80.584 237.052371,80.7653333 237.388371,81.128 C237.724371,81.4906667 237.903038,81.9706667 237.924371,82.568 L237.924371,82.568 Z M243.604371,87.4 L243.604371,82.712 C243.604371,82.136 243.777704,81.6586667 244.124371,81.28 C244.471038,80.9013333 244.932371,80.712 245.508371,80.712 C246.052371,80.712 246.487038,80.888 246.812371,81.24 C247.137704,81.592 247.300371,82.0773333 247.300371,82.696 L247.300371,82.696 L247.300371,87.4 L249.108371,87.4 L249.108371,82.456 C249.108371,81.9226667 249.028371,81.4453333 248.868371,81.024 C248.708371,80.6026667 248.487038,80.2453333 248.204371,79.952 C247.921704,79.6586667 247.585704,79.4346667 247.196371,79.28 C246.807038,79.1253333 246.377704,79.048 245.908371,79.048 C245.300371,79.048 244.801704,79.1626667 244.412371,79.392 C244.023038,79.6213333 243.721704,79.9173333 243.508371,80.28 L243.508371,80.28 L243.508371,79.192 L241.812371,79.192 L241.812371,87.4 L243.604371,87.4 Z M254.340371,87.56 C255.343038,87.56 256.129704,87.3306667 256.700371,86.872 C257.271038,86.4133333 257.556371,85.768 257.556371,84.936 C257.556371,84.5733333 257.487038,84.2613333 257.348371,84 C257.209704,83.7386667 257.017704,83.5173333 256.772371,83.336 C256.527038,83.1546667 256.231038,83 255.884371,82.872 C255.537704,82.744 255.151038,82.6266667 254.724371,82.52 C254.447038,82.456 254.199038,82.4 253.980371,82.352 C253.761704,82.304 253.575038,82.2453333 253.420371,82.176 C253.265704,82.1066667 253.145704,82.0213333 253.060371,81.92 C252.975038,81.8186667 252.932371,81.6773333 252.932371,81.496 C252.932371,81.2186667 253.039038,80.9973333 253.252371,80.832 C253.465704,80.6666667 253.785704,80.584 254.212371,80.584 C254.671038,80.584 255.012371,80.6933333 255.236371,80.912 C255.460371,81.1306667 255.588371,81.4106667 255.620371,81.752 L255.620371,81.752 L257.412371,81.656 C257.369704,81.2933333 257.273704,80.952 257.124371,80.632 C256.975038,80.312 256.769704,80.0346667 256.508371,79.8 C256.247038,79.5653333 255.929704,79.3813333 255.556371,79.248 C255.183038,79.1146667 254.751038,79.048 254.260371,79.048 C253.257704,79.048 252.487038,79.2773333 251.948371,79.736 C251.409704,80.1946667 251.140371,80.792 251.140371,81.528 C251.140371,81.944 251.209704,82.2826667 251.348371,82.544 C251.487038,82.8053333 251.684371,83.0213333 251.940371,83.192 C252.196371,83.3626667 252.497704,83.504 252.844371,83.616 C253.191038,83.728 253.572371,83.832 253.988371,83.928 C254.319038,84.0133333 254.599038,84.088 254.828371,84.152 C255.057704,84.216 255.241704,84.288 255.380371,84.368 C255.519038,84.448 255.617704,84.544 255.676371,84.656 C255.735038,84.768 255.764371,84.9093333 255.764371,85.08 C255.764371,85.3893333 255.633704,85.6213333 255.372371,85.776 C255.111038,85.9306667 254.777704,86.008 254.372371,86.008 C253.881704,86.008 253.505704,85.904 253.244371,85.696 C252.983038,85.488 252.825704,85.1973333 252.772371,84.824 L252.772371,84.824 L250.980371,84.936 C251.076371,85.7573333 251.412371,86.4 251.988371,86.864 C252.564371,87.328 253.348371,87.56 254.340371,87.56 Z M266.100371,87.56 C267.103038,87.56 267.889704,87.3306667 268.460371,86.872 C269.031038,86.4133333 269.316371,85.768 269.316371,84.936 C269.316371,84.5733333 269.247038,84.2613333 269.108371,84 C268.969704,83.7386667 268.777704,83.5173333 268.532371,83.336 C268.287038,83.1546667 267.991038,83 267.644371,82.872 C267.297704,82.744 266.911038,82.6266667 266.484371,82.52 C266.207038,82.456 265.959038,82.4 265.740371,82.352 C265.521704,82.304 265.335038,82.2453333 265.180371,82.176 C265.025704,82.1066667 264.905704,82.0213333 264.820371,81.92 C264.735038,81.8186667 264.692371,81.6773333 264.692371,81.496 C264.692371,81.2186667 264.799038,80.9973333 265.012371,80.832 C265.225704,80.6666667 265.545704,80.584 265.972371,80.584 C266.431038,80.584 266.772371,80.6933333 266.996371,80.912 C267.220371,81.1306667 267.348371,81.4106667 267.380371,81.752 L267.380371,81.752 L269.172371,81.656 C269.129704,81.2933333 269.033704,80.952 268.884371,80.632 C268.735038,80.312 268.529704,80.0346667 268.268371,79.8 C268.007038,79.5653333 267.689704,79.3813333 267.316371,79.248 C266.943038,79.1146667 266.511038,79.048 266.020371,79.048 C265.017704,79.048 264.247038,79.2773333 263.708371,79.736 C263.169704,80.1946667 262.900371,80.792 262.900371,81.528 C262.900371,81.944 262.969704,82.2826667 263.108371,82.544 C263.247038,82.8053333 263.444371,83.0213333 263.700371,83.192 C263.956371,83.3626667 264.257704,83.504 264.604371,83.616 C264.951038,83.728 265.332371,83.832 265.748371,83.928 C266.079038,84.0133333 266.359038,84.088 266.588371,84.152 C266.817704,84.216 267.001704,84.288 267.140371,84.368 C267.279038,84.448 267.377704,84.544 267.436371,84.656 C267.495038,84.768 267.524371,84.9093333 267.524371,85.08 C267.524371,85.3893333 267.393704,85.6213333 267.132371,85.776 C266.871038,85.9306667 266.537704,86.008 266.132371,86.008 C265.641704,86.008 265.265704,85.904 265.004371,85.696 C264.743038,85.488 264.585704,85.1973333 264.532371,84.824 L264.532371,84.824 L262.740371,84.936 C262.836371,85.7573333 263.172371,86.4 263.748371,86.864 C264.324371,87.328 265.108371,87.56 266.100371,87.56 Z M272.308371,77.464 C272.617704,77.464 272.884371,77.3546667 273.108371,77.136 C273.332371,76.9173333 273.444371,76.6533333 273.444371,76.344 C273.444371,76.0346667 273.332371,75.7706667 273.108371,75.552 C272.884371,75.3333333 272.617704,75.224 272.308371,75.224 C271.999038,75.224 271.735038,75.3333333 271.516371,75.552 C271.297704,75.7706667 271.188371,76.0346667 271.188371,76.344 C271.188371,76.6533333 271.297704,76.9173333 271.516371,77.136 C271.735038,77.3546667 271.999038,77.464 272.308371,77.464 Z M273.204371,87.4 L273.204371,79.192 L271.412371,79.192 L271.412371,87.4 L273.204371,87.4 Z M281.204371,87.4 L281.204371,85.944 L277.124371,85.944 L281.044371,80.392 L281.044371,79.192 L275.124371,79.192 L275.124371,80.664 L278.964371,80.664 L275.028371,86.216 L275.028371,87.4 L281.204371,87.4 Z M286.644371,87.56 C287.124371,87.56 287.572371,87.4906667 287.988371,87.352 C288.404371,87.2133333 288.775038,87.0266667 289.100371,86.792 C289.425704,86.5573333 289.695038,86.28 289.908371,85.96 C290.121704,85.64 290.271038,85.2986667 290.356371,84.936 L290.356371,84.936 L288.548371,84.84 C288.431038,85.2133333 288.207038,85.5013333 287.876371,85.704 C287.545704,85.9066667 287.119038,86.008 286.596371,86.008 C285.967038,86.008 285.457704,85.8266667 285.068371,85.464 C284.679038,85.1013333 284.457704,84.6053333 284.404371,83.976 L284.404371,83.976 L290.436371,83.976 L290.436371,83.096 C290.436371,82.4773333 290.345704,81.9173333 290.164371,81.416 C289.983038,80.9146667 289.727038,80.488 289.396371,80.136 C289.065704,79.784 288.663038,79.5146667 288.188371,79.328 C287.713704,79.1413333 287.183038,79.048 286.596371,79.048 C285.999038,79.048 285.449704,79.144 284.948371,79.336 C284.447038,79.528 284.015038,79.808 283.652371,80.176 C283.289704,80.544 283.007038,80.9893333 282.804371,81.512 C282.601704,82.0346667 282.500371,82.632 282.500371,83.304 C282.500371,83.9653333 282.601704,84.56 282.804371,85.088 C283.007038,85.616 283.292371,86.064 283.660371,86.432 C284.028371,86.8 284.465704,87.08 284.972371,87.272 C285.479038,87.464 286.036371,87.56 286.644371,87.56 Z M288.628371,82.568 L284.420371,82.568 C284.473704,81.928 284.695038,81.4373333 285.084371,81.096 C285.473704,80.7546667 285.972371,80.584 286.580371,80.584 C287.252371,80.584 287.756371,80.7653333 288.092371,81.128 C288.428371,81.4906667 288.607038,81.9706667 288.628371,82.568 L288.628371,82.568 Z M297.140371,77.464 C297.449704,77.464 297.716371,77.3546667 297.940371,77.136 C298.164371,76.9173333 298.276371,76.6533333 298.276371,76.344 C298.276371,76.0346667 298.164371,75.7706667 297.940371,75.552 C297.716371,75.3333333 297.449704,75.224 297.140371,75.224 C296.831038,75.224 296.567038,75.3333333 296.348371,75.552 C296.129704,75.7706667 296.020371,76.0346667 296.020371,76.344 C296.020371,76.6533333 296.129704,76.9173333 296.348371,77.136 C296.567038,77.3546667 296.831038,77.464 297.140371,77.464 Z M298.036371,87.4 L298.036371,79.192 L296.244371,79.192 L296.244371,87.4 L298.036371,87.4 Z M302.420371,87.4 L302.420371,82.712 C302.420371,82.136 302.593704,81.6586667 302.940371,81.28 C303.287038,80.9013333 303.748371,80.712 304.324371,80.712 C304.868371,80.712 305.303038,80.888 305.628371,81.24 C305.953704,81.592 306.116371,82.0773333 306.116371,82.696 L306.116371,82.696 L306.116371,87.4 L307.924371,87.4 L307.924371,82.456 C307.924371,81.9226667 307.844371,81.4453333 307.684371,81.024 C307.524371,80.6026667 307.303038,80.2453333 307.020371,79.952 C306.737704,79.6586667 306.401704,79.4346667 306.012371,79.28 C305.623038,79.1253333 305.193704,79.048 304.724371,79.048 C304.116371,79.048 303.617704,79.1626667 303.228371,79.392 C302.839038,79.6213333 302.537704,79.9173333 302.324371,80.28 L302.324371,80.28 L302.324371,79.192 L300.628371,79.192 L300.628371,87.4 L302.420371,87.4 Z M315.956371,87.4 L315.956371,82.712 C315.956371,82.136 316.124371,81.6586667 316.460371,81.28 C316.796371,80.9013333 317.252371,80.712 317.828371,80.712 C318.319038,80.712 318.716371,80.888 319.020371,81.24 C319.324371,81.592 319.476371,82.0773333 319.476371,82.696 L319.476371,82.696 L319.476371,87.4 L321.284371,87.4 L321.284371,82.408 C321.337704,81.9173333 321.519038,81.512 321.828371,81.192 C322.137704,80.872 322.548371,80.712 323.060371,80.712 C323.604371,80.712 324.025704,80.888 324.324371,81.24 C324.623038,81.592 324.772371,82.0773333 324.772371,82.696 L324.772371,82.696 L324.772371,87.4 L326.580371,87.4 L326.580371,82.424 C326.580371,81.912 326.505704,81.4506667 326.356371,81.04 C326.207038,80.6293333 325.999038,80.2746667 325.732371,79.976 C325.465704,79.6773333 325.143038,79.448 324.764371,79.288 C324.385704,79.128 323.967038,79.048 323.508371,79.048 C322.857704,79.048 322.311038,79.1893333 321.868371,79.472 C321.425704,79.7546667 321.081704,80.1093333 320.836371,80.536 C320.569704,80.056 320.212371,79.688 319.764371,79.432 C319.316371,79.176 318.804371,79.048 318.228371,79.048 C317.620371,79.048 317.127038,79.1626667 316.748371,79.392 C316.369704,79.6213333 316.073704,79.9173333 315.860371,80.28 L315.860371,80.28 L315.860371,79.192 L314.164371,79.192 L314.164371,87.4 L315.956371,87.4 Z M330.884371,87.4 L330.884371,82.712 C330.884371,82.136 331.052371,81.6586667 331.388371,81.28 C331.724371,80.9013333 332.180371,80.712 332.756371,80.712 C333.247038,80.712 333.644371,80.888 333.948371,81.24 C334.252371,81.592 334.404371,82.0773333 334.404371,82.696 L334.404371,82.696 L334.404371,87.4 L336.212371,87.4 L336.212371,82.408 C336.265704,81.9173333 336.447038,81.512 336.756371,81.192 C337.065704,80.872 337.476371,80.712 337.988371,80.712 C338.532371,80.712 338.953704,80.888 339.252371,81.24 C339.551038,81.592 339.700371,82.0773333 339.700371,82.696 L339.700371,82.696 L339.700371,87.4 L341.508371,87.4 L341.508371,82.424 C341.508371,81.912 341.433704,81.4506667 341.284371,81.04 C341.135038,80.6293333 340.927038,80.2746667 340.660371,79.976 C340.393704,79.6773333 340.071038,79.448 339.692371,79.288 C339.313704,79.128 338.895038,79.048 338.436371,79.048 C337.785704,79.048 337.239038,79.1893333 336.796371,79.472 C336.353704,79.7546667 336.009704,80.1093333 335.764371,80.536 C335.497704,80.056 335.140371,79.688 334.692371,79.432 C334.244371,79.176 333.732371,79.048 333.156371,79.048 C332.548371,79.048 332.055038,79.1626667 331.676371,79.392 C331.297704,79.6213333 331.001704,79.9173333 330.788371,80.28 L330.788371,80.28 L330.788371,79.192 L329.092371,79.192 L329.092371,87.4 L330.884371,87.4 Z" id="Lenssizeinmm" fill="#F07350" fill-rule="nonzero"></path>
                <g id="Group-9" transform="translate(1.724371, 108.000000)" stroke="#14145A" stroke-width="1.5">
                    <path d="M194.202498,23.0131579 C194.202498,21.3345252 188.190377,19.9736842 183.840656,19.9736842 C179.491685,19.9736842 175.965656,21.3345252 175.965656,23.0131579 C175.965656,24.6917906 179.491685,26.0526316 183.840656,26.0526316 C188.190377,26.0526316 194.202498,24.6917906 194.202498,23.0131579 Z" id="Stroke-1"></path>
                    <path d="M0.544603033,35.3759294 C0.544603033,36.9213639 1.69549076,38.2548273 3.23452102,38.4119264 C12.3295429,39.3409911 13.3126869,45.2686644 16.7375182,53.6355084 C27.5332964,83.5098994 39.9899636,111.72385 66.1482125,124.585684 C83.5875466,132.469203 113.898018,133.71397 135.0736,129.979671 C156.249934,126.245372 162.89349,120.437214 169.951516,110.479084 C177.010294,100.520954 188.221294,53.2205863 189.882183,44.922896 C191.129354,38.6922995 196.354987,36.6718093 198.881674,36.0516812 C199.717384,35.8464751 200.348492,35.1639584 200.464333,34.3123157 L203.735712,10.3415446 C203.884651,9.25312574 203.161773,8.23761894 202.082345,8.02639954 C193.0302,6.25696726 153.549485,-0.982370993 118.880685,0.112061205 C52.0314086,1.30496223 24.0776244,14.6914616 3.22624666,16.1699974 C1.70978283,16.2774862 0.544603033,17.5605877 0.544603033,19.0804654 L0.544603033,35.3759294 Z" id="Stroke-3"></path>
                    <path d="M104.22465,10.4210526 C134.799291,10.4210526 162.067817,13.3228918 167.439038,27.0005854 C172.80951,40.6775282 173.223429,52.282844 167.439038,79.6374805 C161.654646,106.992868 154.630742,114.867904 136.864397,118.597433 C119.0988,122.327713 80.9201694,122.579251 62.9083168,106.992868 C43.6008143,90.2839461 28.8613944,52.1199071 38.118816,29.4874388 C46.0701088,10.0483846 104.22465,10.4210526 104.22465,10.4210526 Z" id="Stroke-5"></path>
                    <path d="M171.619505,51.6272801 C171.942655,117.779237 152.937443,126.519694 102.610697,124.876177 C35.3851931,121.662553 33.8981084,58.835086 35.6716887,39.9473684" id="Stroke-7"></path>
                </g>
                <path d="M86.6368371,170.56 C87.2448371,170.56 87.7861705,170.466667 88.2608371,170.28 C88.7355038,170.093333 89.1408371,169.829333 89.4768371,169.488 C89.8128371,169.146667 90.0688371,168.736 90.2448371,168.256 C90.4208371,167.776 90.5088371,167.248 90.5088371,166.672 C90.5088371,166.074667 90.4181705,165.544 90.2368371,165.08 C90.0555038,164.616 89.8048371,164.226667 89.4848371,163.912 C89.1648371,163.597333 88.7835038,163.357333 88.3408371,163.192 C87.8981705,163.026667 87.4155038,162.944 86.8928371,162.944 C86.5408371,162.944 86.2208371,162.981333 85.9328371,163.056 C85.6448371,163.130667 85.3835038,163.237333 85.1488371,163.376 L85.1488371,163.376 L85.1488371,160.112 L90.0448371,160.112 L90.0448371,158.432 L83.2608371,158.432 L83.2608371,165.216 L85.0208371,165.216 C85.2661705,165.034667 85.5221705,164.893333 85.7888371,164.792 C86.0555038,164.690667 86.3595038,164.64 86.7008371,164.64 C87.2875038,164.64 87.7515038,164.826667 88.0928371,165.2 C88.4341705,165.573333 88.6048371,166.08 88.6048371,166.72 C88.6048371,167.349333 88.4395038,167.864 88.1088371,168.264 C87.7781705,168.664 87.2928371,168.864 86.6528371,168.864 C86.0555038,168.864 85.6021705,168.698667 85.2928371,168.368 C84.9835038,168.037333 84.8021705,167.584 84.7488371,167.008 L84.7488371,167.008 L82.8448371,167.12 C82.8981705,168.176 83.2501705,169.013333 83.9008371,169.632 C84.5515038,170.250667 85.4635038,170.56 86.6368371,170.56 Z M98.5408371,170.4 L98.5408371,167.888 L100.412837,167.888 L100.412837,166.192 L98.5408371,166.192 L98.5408371,158.432 L96.9408371,158.432 L91.6448371,166.32 L91.6448371,167.888 L96.6688371,167.888 L96.6688371,170.4 L98.5408371,170.4 Z M96.6528371,166.192 L93.7408371,166.192 L96.6528371,161.872 L96.6528371,166.192 Z M103.884837,170.4 L103.884837,165.712 C103.884837,165.136 104.052837,164.658667 104.388837,164.28 C104.724837,163.901333 105.180837,163.712 105.756837,163.712 C106.247504,163.712 106.644837,163.888 106.948837,164.24 C107.252837,164.592 107.404837,165.077333 107.404837,165.696 L107.404837,165.696 L107.404837,170.4 L109.212837,170.4 L109.212837,165.408 C109.26617,164.917333 109.447504,164.512 109.756837,164.192 C110.06617,163.872 110.476837,163.712 110.988837,163.712 C111.532837,163.712 111.95417,163.888 112.252837,164.24 C112.551504,164.592 112.700837,165.077333 112.700837,165.696 L112.700837,165.696 L112.700837,170.4 L114.508837,170.4 L114.508837,165.424 C114.508837,164.912 114.43417,164.450667 114.284837,164.04 C114.135504,163.629333 113.927504,163.274667 113.660837,162.976 C113.39417,162.677333 113.071504,162.448 112.692837,162.288 C112.31417,162.128 111.895504,162.048 111.436837,162.048 C110.78617,162.048 110.239504,162.189333 109.796837,162.472 C109.35417,162.754667 109.01017,163.109333 108.764837,163.536 C108.49817,163.056 108.140837,162.688 107.692837,162.432 C107.244837,162.176 106.732837,162.048 106.156837,162.048 C105.548837,162.048 105.055504,162.162667 104.676837,162.392 C104.29817,162.621333 104.00217,162.917333 103.788837,163.28 L103.788837,163.28 L103.788837,162.192 L102.092837,162.192 L102.092837,170.4 L103.884837,170.4 Z M118.812837,170.4 L118.812837,165.712 C118.812837,165.136 118.980837,164.658667 119.316837,164.28 C119.652837,163.901333 120.108837,163.712 120.684837,163.712 C121.175504,163.712 121.572837,163.888 121.876837,164.24 C122.180837,164.592 122.332837,165.077333 122.332837,165.696 L122.332837,165.696 L122.332837,170.4 L124.140837,170.4 L124.140837,165.408 C124.19417,164.917333 124.375504,164.512 124.684837,164.192 C124.99417,163.872 125.404837,163.712 125.916837,163.712 C126.460837,163.712 126.88217,163.888 127.180837,164.24 C127.479504,164.592 127.628837,165.077333 127.628837,165.696 L127.628837,165.696 L127.628837,170.4 L129.436837,170.4 L129.436837,165.424 C129.436837,164.912 129.36217,164.450667 129.212837,164.04 C129.063504,163.629333 128.855504,163.274667 128.588837,162.976 C128.32217,162.677333 127.999504,162.448 127.620837,162.288 C127.24217,162.128 126.823504,162.048 126.364837,162.048 C125.71417,162.048 125.167504,162.189333 124.724837,162.472 C124.28217,162.754667 123.93817,163.109333 123.692837,163.536 C123.42617,163.056 123.068837,162.688 122.620837,162.432 C122.172837,162.176 121.660837,162.048 121.084837,162.048 C120.476837,162.048 119.983504,162.162667 119.604837,162.392 C119.22617,162.621333 118.93017,162.917333 118.716837,163.28 L118.716837,163.28 L118.716837,162.192 L117.020837,162.192 L117.020837,170.4 L118.812837,170.4 Z" id="54mm" fill="#F07350" fill-rule="nonzero"></path>
                <path d="M162.188837,163.5 C162.434297,163.5 162.638446,163.676875 162.680781,163.910124 L162.688837,164 L162.688837,168.444444 C162.688837,168.464899 162.699892,168.482772 162.716353,168.492415 L162.744393,168.5 L167.188837,168.5 C167.46498,168.5 167.688837,168.723858 167.688837,169 C167.688837,169.24546 167.511962,169.449608 167.278713,169.491944 L167.188837,169.5 L162.744393,169.5 C162.20029,169.5 161.752339,169.088323 161.695031,168.559459 L161.688837,168.444444 L161.688837,164 C161.688837,163.723858 161.912695,163.5 162.188837,163.5 Z" id="Rectangle-Copy-2" fill="#F07350" fill-rule="nonzero" transform="translate(164.688837, 166.500000) rotate(-135.000000) translate(-164.688837, -166.500000) "></path>
                <path d="M44.224371,163.5 C44.4698309,163.5 44.6739794,163.676875 44.7163154,163.910124 L44.724371,164 L44.724371,168.444444 C44.724371,168.464899 44.7354257,168.482772 44.7518867,168.492415 L44.7799266,168.5 L49.224371,168.5 C49.5005134,168.5 49.724371,168.723858 49.724371,169 C49.724371,169.24546 49.5474959,169.449608 49.3142467,169.491944 L49.224371,169.5 L44.7799266,169.5 C44.2358238,169.5 43.7878734,169.088323 43.7305649,168.559459 L43.724371,168.444444 L43.724371,164 C43.724371,163.723858 43.9482287,163.5 44.224371,163.5 Z" id="Rectangle-Copy-5" fill="#F07350" fill-rule="nonzero" transform="translate(46.724371, 166.500000) rotate(-315.000000) translate(-46.724371, -166.500000) "></path>
                <path d="M199.724371,163.5 C199.969831,163.5 200.173979,163.676875 200.216315,163.910124 L200.224371,164 L200.224371,168.444444 C200.224371,168.464899 200.235426,168.482772 200.251887,168.492415 L200.279927,168.5 L204.724371,168.5 C205.000513,168.5 205.224371,168.723858 205.224371,169 C205.224371,169.24546 205.047496,169.449608 204.814247,169.491944 L204.724371,169.5 L200.279927,169.5 C199.735824,169.5 199.287873,169.088323 199.230565,168.559459 L199.224371,168.444444 L199.224371,164 C199.224371,163.723858 199.448229,163.5 199.724371,163.5 Z" id="Rectangle-Copy-6" fill="#F07350" fill-rule="nonzero" transform="translate(202.224371, 166.500000) rotate(-315.000000) translate(-202.224371, -166.500000) "></path>
                <path d="M264.724371,39.5 C264.969831,39.5 265.173979,39.6768752 265.216315,39.9101244 L265.224371,40 L265.224371,72.2493325 C265.224371,72.5254748 265.000513,72.7493325 264.724371,72.7493325 C264.478911,72.7493325 264.274763,72.5724573 264.232427,72.3392081 L264.224371,72.2493325 L264.224371,40 C264.224371,39.7238576 264.448229,39.5 264.724371,39.5 Z" id="Path-2-Copy" fill="#F07350" fill-rule="nonzero"></path>
                <path d="M76.724371,166 C77.0005134,166 77.224371,166.223858 77.224371,166.5 C77.224371,166.74546 77.0474959,166.949608 76.8142467,166.991944 L76.724371,167 L43.6888371,167 C43.4126948,167 43.1888371,166.776142 43.1888371,166.5 C43.1888371,166.25454 43.3657123,166.050392 43.5989615,166.008056 L43.6888371,166 L76.724371,166 Z" id="Line-5-Copy-2" fill="#F07350" fill-rule="nonzero"></path>
                <path d="M167.688837,166 C167.96498,166 168.188837,166.223858 168.188837,166.5 C168.188837,166.74546 168.011962,166.949608 167.778713,166.991944 L167.688837,167 L135.688837,167 C135.412695,167 135.188837,166.776142 135.188837,166.5 C135.188837,166.25454 135.365712,166.050392 135.598962,166.008056 L135.688837,166 L167.688837,166 Z" id="Line-5-Copy" fill="#F07350" fill-rule="nonzero"></path>
                <circle id="Oval" stroke="#F07350" fill-opacity="0.8" fill="#F07350" cx="204.224371" cy="25.5" r="25.5"></circle>
                <circle id="Oval-Copy" stroke="#F07350" fill-opacity="0.8" fill="#F07350" cx="265.224371" cy="25.5" r="15.5"></circle>
                <g id="Group-4" transform="translate(185.724371, 23.478261)" fill-rule="nonzero">
                    <path d="M1.00482644,5.17397833 L1.00482644,2.21369304 L2.02843468,2.21369304 L3.69062422,5.17397833 L4.81753238,5.17397833 L3.12717014,2.16451887 C3.60923641,2.07272707 3.97548156,1.85963899 4.22590559,1.5252546 C4.47632963,1.19087022 4.60154165,0.76797232 4.60154165,0.256560909 C4.60154165,-0.340085738 4.42937512,-0.817075227 4.08504207,-1.17440756 C3.74070902,-1.53173989 3.23986095,-1.71040606 2.58249786,-1.71040606 L2.58249786,-1.71040606 L0,-1.71040606 L0,5.17397833 L1.00482644,5.17397833 Z M2.58249786,1.20070505 L1.00482644,1.20070505 L1.00482644,-0.667913566 L2.58249786,-0.667913566 C2.88926731,-0.667913566 3.13186559,-0.587595748 3.31029271,-0.426960112 C3.48871984,-0.266324477 3.5779334,-0.035205858 3.5779334,0.266395744 C3.5779334,0.567997345 3.48871984,0.799115964 3.31029271,0.959751599 C3.13186559,1.12038724 2.88926731,1.20070505 2.58249786,1.20070505 L2.58249786,1.20070505 Z M8.32972947,5.17397833 C8.99335316,5.17397833 9.49576638,4.9969513 9.83696913,4.64289725 C10.1781719,4.28884319 10.3487733,3.80365801 10.3487733,3.18734169 C10.3487733,2.87918353 10.2846021,2.59069504 10.1562598,2.32187622 C10.0279175,2.05305741 9.82288278,1.83013448 9.54115574,1.65310746 C9.75401617,1.4957501 9.91522664,1.29741426 10.0247872,1.05809995 C10.1343477,0.818785633 10.1891279,0.551605954 10.1891279,0.256560909 C10.1891279,-0.340085738 10.0169614,-0.817075227 9.67262836,-1.17440756 C9.32829531,-1.53173989 8.82744724,-1.71040606 8.17008415,-1.71040606 L8.17008415,-1.71040606 L5.63454079,-1.71040606 L5.63454079,5.17397833 L8.32972947,5.17397833 Z M8.17008415,1.18103538 L6.63936723,1.18103538 L6.63936723,-0.667913566 L8.17008415,-0.667913566 C8.47685359,-0.667913566 8.71945187,-0.589234887 8.897879,-0.43187753 C9.07630612,-0.274520172 9.16551969,-0.0450406929 9.16551969,0.256560909 C9.16551969,0.55816251 9.07630612,0.78764199 8.897879,0.944999347 C8.71945187,1.1023567 8.47685359,1.18103538 8.17008415,1.18103538 L8.17008415,1.18103538 Z M8.32972947,4.13148583 L6.63936723,4.13148583 L6.63936723,2.22352788 L8.32972947,2.22352788 C8.64275951,2.22352788 8.88692295,2.30384569 9.06221977,2.46448133 C9.2375166,2.62511696 9.32516501,2.86279214 9.32516501,3.17750685 C9.32516501,3.49222157 9.2375166,3.72989674 9.06221977,3.89053238 C8.88692295,4.05116802 8.64275951,4.13148583 8.32972947,4.13148583 L8.32972947,4.13148583 Z M21.6554184,5.17397833 L21.6554184,4.18066001 L19.9462744,4.18066001 L19.9462744,-1.71040606 L18.9602298,-1.71040606 L17.3543856,-0.0286493015 L18.0211396,0.669623972 L18.9602298,-0.313859512 L18.9602298,4.18066001 L17.2510857,4.18066001 L17.2510857,5.17397833 L21.6554184,5.17397833 Z M27.0457958,5.17397833 L27.0457958,4.18066001 L24.3506071,4.18066001 L26.172442,2.1743537 C26.485472,1.8268562 26.7092885,1.50886321 26.8438914,1.22037472 C26.9784943,0.931886234 27.0457958,0.627006354 27.0457958,0.305735083 C27.0457958,0.0106900379 26.9925807,-0.264685338 26.8861505,-0.520391043 C26.7797203,-0.776096749 26.6357264,-0.999019672 26.454169,-1.18915981 C26.2726116,-1.37929995 26.0597512,-1.53010075 25.8155877,-1.64156221 C25.5714243,-1.75302368 25.3084791,-1.80875441 25.026752,-1.80875441 C24.745025,-1.80875441 24.4820797,-1.75302368 24.2379163,-1.64156221 C23.9937529,-1.53010075 23.7808924,-1.37929995 23.599335,-1.18915981 C23.4177776,-0.999019672 23.2737838,-0.776096749 23.1673536,-0.520391043 C23.0609233,-0.264685338 23.0077082,0.0106900379 23.0077082,0.305735083 C23.0077082,0.620449798 23.0656188,0.910577425 23.1814399,1.17611797 C23.297261,1.44165851 23.4553412,1.66949885 23.6556804,1.85963899 L23.6556804,1.85963899 L24.3318253,1.13186121 C24.1064437,0.915494843 23.9937529,0.640119467 23.9937529,0.305735083 C23.9937529,0.154934282 24.0187953,0.0106900379 24.0688801,-0.12699765 C24.1189649,-0.264685338 24.1893966,-0.384342495 24.2801754,-0.485969121 C24.3709541,-0.587595748 24.4805146,-0.667913566 24.6088569,-0.726922575 C24.7371992,-0.785931584 24.8764976,-0.815436088 25.026752,-0.815436088 C25.1770064,-0.815436088 25.3163048,-0.785931584 25.4446471,-0.726922575 C25.5729894,-0.667913566 25.68255,-0.587595748 25.7733287,-0.485969121 C25.8641074,-0.384342495 25.9345391,-0.264685338 25.9846239,-0.12699765 C26.0347088,0.0106900379 26.0597512,0.154934282 26.0597512,0.305735083 C26.0597512,0.417196544 26.04723,0.52046231 26.0221876,0.61553238 C25.9971451,0.71060245 25.9595815,0.80567252 25.9094967,0.90074259 C25.8594119,0.99581266 25.7952408,1.09252187 25.7169833,1.19087022 C25.6387257,1.28921857 25.5432516,1.39740175 25.4305608,1.51541977 L25.4305608,1.51541977 L23.0077082,4.18066001 L23.0077082,5.17397833 L27.0457958,5.17397833 Z M32.2107915,5.17397833 L32.2107915,3.4725519 L32.8963273,3.4725519 L32.8963273,2.47923358 L32.2107915,2.47923358 L32.2107915,1.05318253 L31.2247469,1.05318253 L31.2247469,2.47923358 L29.4874301,2.47923358 L32.0323644,-1.16949014 L31.2623105,-1.75958023 L28.3041766,2.47923358 L28.3041766,3.4725519 L31.2247469,3.4725519 L31.2247469,5.17397833 L32.2107915,5.17397833 Z M36.3991335,5.27232667 C36.6808605,5.27232667 36.9438058,5.21659594 37.1879692,5.10513448 C37.4321327,4.99367302 37.6449931,4.84287222 37.8265505,4.65273208 C38.0081079,4.46259194 38.1521018,4.23966902 38.258532,3.98396331 C38.3649622,3.72825761 38.4181773,3.45288223 38.4181773,3.15783719 L38.4181773,3.15783719 L38.4181773,2.85295731 C38.4181773,2.55791226 38.3649622,2.28253688 38.258532,2.02683118 C38.1521018,1.77112547 38.0096731,1.54820255 37.831246,1.35806241 C37.6528188,1.16792227 37.4446539,1.01712147 37.206751,0.905660008 C36.9688482,0.794198546 36.7152939,0.738467816 36.446088,0.738467816 C36.2707912,0.738467816 36.1033201,0.766333181 35.9436748,0.822063912 C35.7840295,0.877794642 35.654122,0.941721069 35.5539524,1.01384319 L35.5539524,1.01384319 L35.9201975,-0.71708774 L38.0049776,-0.71708774 L38.0049776,-1.71040606 L35.1313618,-1.71040606 L34.4646078,1.47608043 L35.5163888,2.28253688 C35.6040372,2.12517953 35.7245538,1.9940484 35.8779385,1.88914349 C36.0313232,1.78423859 36.2050549,1.73178613 36.3991335,1.73178613 C36.5493879,1.73178613 36.6886863,1.76129064 36.8170286,1.82029965 C36.9453709,1.87930866 37.0549315,1.95962647 37.1457102,2.0612531 C37.2364889,2.16287973 37.3069206,2.28253688 37.3570054,2.42022457 C37.4070902,2.55791226 37.4321327,2.7021565 37.4321327,2.85295731 L37.4321327,2.85295731 L37.4321327,3.15783719 C37.4321327,3.30863799 37.4070902,3.45288223 37.3570054,3.59056992 C37.3069206,3.72825761 37.2364889,3.84791476 37.1457102,3.94954139 C37.0549315,4.05116802 36.9453709,4.13148583 36.8170286,4.19049484 C36.6886863,4.24950385 36.5493879,4.27900836 36.3991335,4.27900836 C36.2488791,4.27900836 36.1095807,4.24950385 35.9812384,4.19049484 C35.8528961,4.13148583 35.7433356,4.05116802 35.6525569,3.94954139 C35.5617781,3.84791476 35.4913464,3.72825761 35.4412616,3.59056992 C35.3911768,3.45288223 35.3661344,3.30863799 35.3661344,3.15783719 L35.3661344,3.15783719 L34.3800897,3.15783719 C34.3800897,3.45288223 34.4333048,3.72825761 34.539735,3.98396331 C34.6461653,4.23966902 34.7901591,4.46259194 34.9717165,4.65273208 C35.1532739,4.84287222 35.3661344,4.99367302 35.6102978,5.10513448 C35.8544612,5.21659594 36.1174065,5.27232667 36.3991335,5.27232667 Z M47.8466422,5.27232667 C48.1283693,5.27232667 48.3913145,5.21659594 48.6354779,5.10513448 C48.8796414,4.99367302 49.0925018,4.84287222 49.2740592,4.65273208 C49.4556166,4.46259194 49.5996105,4.23966902 49.7060407,3.98396331 C49.8124709,3.72825761 49.865686,3.45288223 49.865686,3.15783719 C49.865686,2.8234528 49.7983845,2.51529464 49.6637816,2.23336271 C49.5291787,1.95143078 49.3460561,1.71539474 49.1144139,1.5252546 C49.2959713,1.35478413 49.4384,1.14989174 49.5416999,0.910577425 C49.6449998,0.671263111 49.6966498,0.410639988 49.6966498,0.128708056 C49.6966498,-0.140110763 49.6481301,-0.39253819 49.5510908,-0.628574226 C49.4540515,-0.864610262 49.3225789,-1.06950265 49.1566729,-1.2432514 C48.990767,-1.41700015 48.7951232,-1.55468784 48.5697416,-1.65631447 C48.34436,-1.75794109 48.1033269,-1.80875441 47.8466422,-1.80875441 C47.5899576,-1.80875441 47.3504896,-1.75794109 47.1282383,-1.65631447 C46.9059869,-1.55468784 46.7119083,-1.41700015 46.5460024,-1.2432514 C46.3800965,-1.06950265 46.2486238,-0.864610262 46.1515845,-0.628574226 C46.0545452,-0.39253819 46.0060256,-0.140110763 46.0060256,0.128708056 C46.0060256,0.410639988 46.0561104,0.671263111 46.15628,0.910577425 C46.2564496,1.14989174 46.3973131,1.35478413 46.5788705,1.5252546 C46.3472283,1.71539474 46.1641057,1.95143078 46.0295028,2.23336271 C45.8948999,2.51529464 45.8275984,2.8234528 45.8275984,3.15783719 C45.8275984,3.45288223 45.8808135,3.72825761 45.9872438,3.98396331 C46.093674,4.23966902 46.2376678,4.46259194 46.4192252,4.65273208 C46.6007826,4.84287222 46.8136431,4.99367302 47.0578065,5.10513448 C47.3019699,5.21659594 47.5649152,5.27232667 47.8466422,5.27232667 Z M47.8466422,1.06301737 C47.5899576,1.06301737 47.3833578,0.971225573 47.2268427,0.78764199 C47.0703277,0.604058406 46.9920702,0.384413762 46.9920702,0.128708056 C46.9920702,-0.12699765 47.0703277,-0.348281434 47.2268427,-0.535143295 C47.3833578,-0.722005157 47.5899576,-0.815436088 47.8466422,-0.815436088 C48.1033269,-0.815436088 48.3114918,-0.722005157 48.4711372,-0.535143295 C48.6307825,-0.348281434 48.7106051,-0.12699765 48.7106051,0.128708056 C48.7106051,0.384413762 48.6307825,0.604058406 48.4711372,0.78764199 C48.3114918,0.971225573 48.1033269,1.06301737 47.8466422,1.06301737 Z M47.8466422,4.26917352 C47.6963878,4.26917352 47.5586546,4.23966902 47.4334426,4.18066001 C47.3082305,4.121651 47.19867,4.04133318 47.104761,3.93970655 C47.010852,3.83807993 46.9388551,3.72006191 46.8887703,3.5856525 C46.8386855,3.45124309 46.8136431,3.30863799 46.8136431,3.15783719 C46.8136431,3.00703638 46.8386855,2.86443128 46.8887703,2.73002187 C46.9388551,2.59561246 47.010852,2.47759444 47.104761,2.37596782 C47.19867,2.27434119 47.3082305,2.19402337 47.4334426,2.13501436 C47.5586546,2.07600535 47.6963878,2.04650085 47.8466422,2.04650085 C47.9968966,2.04650085 48.1346299,2.07600535 48.2598419,2.13501436 C48.3850539,2.19402337 48.4946144,2.27434119 48.5885234,2.37596782 C48.6824324,2.47759444 48.7544293,2.59561246 48.8045141,2.73002187 C48.854599,2.86443128 48.8796414,3.00703638 48.8796414,3.15783719 C48.8796414,3.30863799 48.854599,3.45124309 48.8045141,3.5856525 C48.7544293,3.72006191 48.6824324,3.83807993 48.5885234,3.93970655 C48.4946144,4.04133318 48.3850539,4.121651 48.2598419,4.18066001 C48.1346299,4.23966902 47.9968966,4.26917352 47.8466422,4.26917352 Z M53.4999648,5.2231525 L55.5471813,-0.71708774 L55.5471813,-1.71040606 L51.5654391,-1.71040606 L51.5654391,0.335239587 L52.5514838,0.335239587 L52.5514838,-0.71708774 L54.532964,-0.71708774 L52.5984383,4.88876812 L53.4999648,5.2231525 Z M59.1814601,5.27232667 C59.4631871,5.27232667 59.7261324,5.21659594 59.9702958,5.10513448 C60.2144593,4.99367302 60.4273197,4.84287222 60.6088771,4.65273208 C60.7904345,4.46259194 60.9344284,4.23966902 61.0408586,3.98396331 C61.1472888,3.72825761 61.2005039,3.45288223 61.2005039,3.15783719 C61.2005039,2.8234528 61.1316373,2.51529464 60.9939041,2.23336271 C60.8561708,1.95143078 60.6714831,1.71539474 60.4398409,1.5252546 C60.6213983,1.35478413 60.7653921,1.14989174 60.8718223,0.910577425 C60.9782526,0.671263111 61.0314677,0.410639988 61.0314677,0.128708056 C61.0314677,-0.140110763 60.982948,-0.39253819 60.8859087,-0.628574226 C60.7888694,-0.864610262 60.6573968,-1.06950265 60.4914908,-1.2432514 C60.3255849,-1.41700015 60.1299411,-1.55468784 59.9045595,-1.65631447 C59.6791779,-1.75794109 59.4381447,-1.80875441 59.1814601,-1.80875441 C58.9247755,-1.80875441 58.6853075,-1.75794109 58.4630562,-1.65631447 C58.2408048,-1.55468784 58.0467262,-1.41700015 57.8808203,-1.2432514 C57.7149144,-1.06950265 57.5834417,-0.864610262 57.4864024,-0.628574226 C57.3893631,-0.39253819 57.3408434,-0.140110763 57.3408434,0.128708056 L57.3408434,0.128708056 L58.3268881,0.128708056 C58.3268881,-0.12699765 58.4051456,-0.348281434 58.5616606,-0.535143295 C58.7181756,-0.722005157 58.9247755,-0.815436088 59.1814601,-0.815436088 C59.4381447,-0.815436088 59.6463097,-0.722005157 59.805955,-0.535143295 C59.9656004,-0.348281434 60.045423,-0.12699765 60.045423,0.128708056 C60.045423,0.25328263 60.0250761,0.371300648 59.9843822,0.48276211 C59.9436883,0.594223571 59.8873429,0.69257192 59.8153459,0.777807155 C59.743349,0.86304239 59.6557006,0.931886234 59.5524007,0.984338687 C59.4491008,1.03679114 59.3379751,1.06629564 59.2190237,1.0728522 L59.2190237,1.0728522 L59.1814601,1.0728522 L59.1814601,2.02683118 L59.2284146,2.02683118 C59.3724084,2.03338774 59.5054462,2.06780966 59.6275279,2.13009694 C59.7496096,2.19238423 59.8544747,2.27598033 59.9421231,2.38088523 C60.0297715,2.48579014 60.097073,2.6054473 60.1440275,2.7398567 C60.190982,2.87426611 60.2144593,3.01359294 60.2144593,3.15783719 C60.2144593,3.30863799 60.1894168,3.45288223 60.139332,3.59056992 C60.0892472,3.72825761 60.0188155,3.84791476 59.9280368,3.94954139 C59.837258,4.05116802 59.7276975,4.13148583 59.5993552,4.19049484 C59.4710129,4.24950385 59.3317145,4.27900836 59.1814601,4.27900836 C59.0312057,4.27900836 58.8919073,4.24950385 58.763565,4.19049484 C58.6352227,4.13148583 58.5256622,4.05116802 58.4348835,3.94954139 C58.3441047,3.84791476 58.273673,3.72825761 58.2235882,3.59056992 C58.1735034,3.45288223 58.148461,3.30863799 58.148461,3.15783719 L58.148461,3.15783719 L57.1624163,3.15783719 C57.1624163,3.45288223 57.2156314,3.72825761 57.3220616,3.98396331 C57.4284919,4.23966902 57.5724857,4.46259194 57.7540431,4.65273208 C57.9356005,4.84287222 58.148461,4.99367302 58.3926244,5.10513448 C58.6367878,5.21659594 58.8997331,5.27232667 59.1814601,5.27232667 Z M64.3746285,5.2231525 L66.712963,1.87930866 C66.838175,1.70228163 66.9367794,1.50558493 67.0087764,1.28921857 C67.0807733,1.0728522 67.1167717,0.846650999 67.1167717,0.610614963 L67.1167717,0.610614963 L67.1167717,0.305735083 C67.1167717,0.0106900379 67.0635566,-0.264685338 66.9571264,-0.520391043 C66.8506962,-0.776096749 66.7067024,-0.999019672 66.5251449,-1.18915981 C66.3435875,-1.37929995 66.1307271,-1.53010075 65.8865636,-1.64156221 C65.6424002,-1.75302368 65.379455,-1.80875441 65.0977279,-1.80875441 C64.8160009,-1.80875441 64.5530557,-1.75302368 64.3088922,-1.64156221 C64.0647288,-1.53010075 63.8518684,-1.37929995 63.6703109,-1.18915981 C63.4887535,-0.999019672 63.3447597,-0.776096749 63.2383295,-0.520391043 C63.1318993,-0.264685338 63.0786842,0.0106900379 63.0786842,0.305735083 L63.0786842,0.305735083 L63.0786842,0.610614963 C63.0786842,1.04990425 63.1929401,1.44493678 63.4214521,1.79571256 C63.649964,2.14648834 63.9489077,2.4005549 64.3182831,2.55791226 C64.5061012,2.6431475 64.7158313,2.69559995 64.9474735,2.71526962 L64.9474735,2.71526962 L63.6045746,4.63306241 L64.3746285,5.2231525 Z M65.0977279,1.73178613 C64.9474735,1.73178613 64.8081751,1.70228163 64.6798328,1.64327262 C64.5514905,1.58426361 64.44193,1.50394579 64.3511513,1.40231917 C64.2603726,1.30069254 64.1899408,1.18103538 64.139856,1.0433477 C64.0897712,0.905660008 64.0647288,0.761415764 64.0647288,0.610614963 L64.0647288,0.610614963 L64.0647288,0.305735083 C64.0647288,0.154934282 64.0897712,0.0106900379 64.139856,-0.12699765 C64.1899408,-0.264685338 64.2603726,-0.384342495 64.3511513,-0.485969121 C64.44193,-0.587595748 64.5514905,-0.667913566 64.6798328,-0.726922575 C64.8081751,-0.785931584 64.9474735,-0.815436088 65.0977279,-0.815436088 C65.2479824,-0.815436088 65.3872807,-0.785931584 65.515623,-0.726922575 C65.6439654,-0.667913566 65.7535259,-0.587595748 65.8443046,-0.485969121 C65.9350833,-0.384342495 66.0055151,-0.264685338 66.0555999,-0.12699765 C66.1056847,0.0106900379 66.1307271,0.154934282 66.1307271,0.305735083 L66.1307271,0.305735083 L66.1307271,0.610614963 C66.1307271,0.761415764 66.1056847,0.905660008 66.0555999,1.0433477 C66.0055151,1.18103538 65.9350833,1.30069254 65.8443046,1.40231917 C65.7535259,1.50394579 65.6439654,1.58426361 65.515623,1.64327262 C65.3872807,1.70228163 65.2479824,1.73178613 65.0977279,1.73178613 Z M76.3668095,5.27232667 C76.6485366,5.27232667 76.9114818,5.21659594 77.1556452,5.10513448 C77.3998087,4.99367302 77.6126691,4.84287222 77.7942265,4.65273208 C77.9757839,4.46259194 78.1197778,4.23966902 78.226208,3.98396331 C78.3326382,3.72825761 78.3858533,3.45288223 78.3858533,3.15783719 L78.3858533,3.15783719 L78.3858533,2.85295731 C78.3858533,2.55791226 78.3326382,2.28253688 78.226208,2.02683118 C78.1197778,1.77112547 77.9773491,1.54820255 77.798922,1.35806241 C77.6204948,1.16792227 77.4123299,1.01712147 77.174427,0.905660008 C76.9365242,0.794198546 76.6829699,0.738467816 76.413764,0.738467816 C76.2384672,0.738467816 76.0709961,0.766333181 75.9113508,0.822063912 C75.7517055,0.877794642 75.621798,0.941721069 75.5216284,1.01384319 L75.5216284,1.01384319 L75.8878736,-0.71708774 L77.9726536,-0.71708774 L77.9726536,-1.71040606 L75.0990378,-1.71040606 L74.4322838,1.47608043 L75.4840648,2.28253688 C75.5717132,2.12517953 75.6922298,1.9940484 75.8456145,1.88914349 C75.9989992,1.78423859 76.1727309,1.73178613 76.3668095,1.73178613 C76.5170639,1.73178613 76.6563623,1.76129064 76.7847046,1.82029965 C76.9130469,1.87930866 77.0226075,1.95962647 77.1133862,2.0612531 C77.2041649,2.16287973 77.2745966,2.28253688 77.3246815,2.42022457 C77.3747663,2.55791226 77.3998087,2.7021565 77.3998087,2.85295731 L77.3998087,2.85295731 L77.3998087,3.15783719 C77.3998087,3.30863799 77.3747663,3.45288223 77.3246815,3.59056992 C77.2745966,3.72825761 77.2041649,3.84791476 77.1133862,3.94954139 C77.0226075,4.05116802 76.9130469,4.13148583 76.7847046,4.19049484 C76.6563623,4.24950385 76.5170639,4.27900836 76.3668095,4.27900836 C76.2165551,4.27900836 76.0772567,4.24950385 75.9489144,4.19049484 C75.8205721,4.13148583 75.7110116,4.05116802 75.6202329,3.94954139 C75.5294542,3.84791476 75.4590224,3.72825761 75.4089376,3.59056992 C75.3588528,3.45288223 75.3338104,3.30863799 75.3338104,3.15783719 L75.3338104,3.15783719 L74.3477657,3.15783719 C74.3477657,3.45288223 74.4009808,3.72825761 74.5074111,3.98396331 C74.6138413,4.23966902 74.7578351,4.46259194 74.9393925,4.65273208 C75.1209499,4.84287222 75.3338104,4.99367302 75.5779738,5.10513448 C75.8221372,5.21659594 76.0850825,5.27232667 76.3668095,5.27232667 Z M83.5978035,5.17397833 L83.5978035,3.4725519 L84.2833393,3.4725519 L84.2833393,2.47923358 L83.5978035,2.47923358 L83.5978035,1.05318253 L82.6117589,1.05318253 L82.6117589,2.47923358 L80.8744422,2.47923358 L83.4193764,-1.16949014 L82.6493225,-1.75958023 L79.6911886,2.47923358 L79.6911886,3.4725519 L82.6117589,3.4725519 L82.6117589,5.17397833 L83.5978035,5.17397833 Z M101.59077,5.17397833 L101.59077,4.18066001 L99.8816264,4.18066001 L99.8816264,-1.71040606 L98.8955818,-1.71040606 L97.2897377,-0.0286493015 L97.9564916,0.669623972 L98.8955818,-0.313859512 L98.8955818,4.18066001 L97.1864377,4.18066001 L97.1864377,5.17397833 L101.59077,5.17397833 Z M104.821241,5.27232667 C105.102968,5.27232667 105.365913,5.21659594 105.610076,5.10513448 C105.85424,4.99367302 106.0671,4.84287222 106.248658,4.65273208 C106.430215,4.46259194 106.574209,4.23966902 106.680639,3.98396331 C106.787069,3.72825761 106.840284,3.45288223 106.840284,3.15783719 L106.840284,3.15783719 L106.840284,2.85295731 C106.840284,2.41366802 106.726028,2.01863548 106.497516,1.66785971 C106.269004,1.31708393 105.970061,1.06301737 105.600685,0.905660008 C105.412867,0.820424773 105.203137,0.76797232 104.971495,0.74830265 L104.971495,0.74830265 L106.314394,-1.16949014 L105.54434,-1.75958023 L103.206005,1.58426361 C103.080793,1.76129064 102.982189,1.95798734 102.910192,2.1743537 C102.838195,2.39072007 102.802197,2.61692127 102.802197,2.85295731 L102.802197,2.85295731 L102.802197,3.15783719 C102.802197,3.45288223 102.855412,3.72825761 102.961842,3.98396331 C103.068272,4.23966902 103.212266,4.46259194 103.393824,4.65273208 C103.575381,4.84287222 103.788241,4.99367302 104.032405,5.10513448 C104.276568,5.21659594 104.539513,5.27232667 104.821241,5.27232667 Z M104.821241,4.27900836 C104.670986,4.27900836 104.531688,4.24950385 104.403345,4.19049484 C104.275003,4.13148583 104.165443,4.05116802 104.074664,3.94954139 C103.983885,3.84791476 103.913453,3.72825761 103.863369,3.59056992 C103.813284,3.45288223 103.788241,3.30863799 103.788241,3.15783719 L103.788241,3.15783719 L103.788241,2.85295731 C103.788241,2.7021565 103.813284,2.55791226 103.863369,2.42022457 C103.913453,2.28253688 103.983885,2.16287973 104.074664,2.0612531 C104.165443,1.95962647 104.275003,1.87930866 104.403345,1.82029965 C104.531688,1.76129064 104.670986,1.73178613 104.821241,1.73178613 C104.971495,1.73178613 105.110793,1.76129064 105.239136,1.82029965 C105.367478,1.87930866 105.477038,1.95962647 105.567817,2.0612531 C105.658596,2.16287973 105.729028,2.28253688 105.779112,2.42022457 C105.829197,2.55791226 105.85424,2.7021565 105.85424,2.85295731 L105.85424,2.85295731 L105.85424,3.15783719 C105.85424,3.30863799 105.829197,3.45288223 105.779112,3.59056992 C105.729028,3.72825761 105.658596,3.84791476 105.567817,3.94954139 C105.477038,4.05116802 105.367478,4.13148583 105.239136,4.19049484 C105.110793,4.24950385 104.971495,4.27900836 104.821241,4.27900836 Z M117.855812,5.17397833 L117.855812,3.4725519 L118.541347,3.4725519 L118.541347,2.47923358 L117.855812,2.47923358 L117.855812,1.05318253 L116.869767,1.05318253 L116.869767,2.47923358 L115.13245,2.47923358 L117.677384,-1.16949014 L116.907331,-1.75958023 L113.949197,2.47923358 L113.949197,3.4725519 L116.869767,3.4725519 L116.869767,5.17397833 L117.855812,5.17397833 Z M121.987808,5.27232667 C122.269535,5.27232667 122.53248,5.21659594 122.776644,5.10513448 C123.020807,4.99367302 123.233668,4.84287222 123.415225,4.65273208 C123.596783,4.46259194 123.740776,4.23966902 123.847207,3.98396331 C123.953637,3.72825761 124.006852,3.45288223 124.006852,3.15783719 C124.006852,2.8234528 123.937985,2.51529464 123.800252,2.23336271 C123.662519,1.95143078 123.477831,1.71539474 123.246189,1.5252546 C123.427746,1.35478413 123.57174,1.14989174 123.67817,0.910577425 C123.784601,0.671263111 123.837816,0.410639988 123.837816,0.128708056 C123.837816,-0.140110763 123.789296,-0.39253819 123.692257,-0.628574226 C123.595217,-0.864610262 123.463745,-1.06950265 123.297839,-1.2432514 C123.131933,-1.41700015 122.936289,-1.55468784 122.710908,-1.65631447 C122.485526,-1.75794109 122.244493,-1.80875441 121.987808,-1.80875441 C121.731123,-1.80875441 121.491656,-1.75794109 121.269404,-1.65631447 C121.047153,-1.55468784 120.853074,-1.41700015 120.687168,-1.2432514 C120.521262,-1.06950265 120.38979,-0.864610262 120.29275,-0.628574226 C120.195711,-0.39253819 120.147191,-0.140110763 120.147191,0.128708056 L120.147191,0.128708056 L121.133236,0.128708056 C121.133236,-0.12699765 121.211494,-0.348281434 121.368009,-0.535143295 C121.524524,-0.722005157 121.731123,-0.815436088 121.987808,-0.815436088 C122.244493,-0.815436088 122.452658,-0.722005157 122.612303,-0.535143295 C122.771948,-0.348281434 122.851771,-0.12699765 122.851771,0.128708056 C122.851771,0.25328263 122.831424,0.371300648 122.79073,0.48276211 C122.750036,0.594223571 122.693691,0.69257192 122.621694,0.777807155 C122.549697,0.86304239 122.462049,0.931886234 122.358749,0.984338687 C122.255449,1.03679114 122.144323,1.06629564 122.025372,1.0728522 L122.025372,1.0728522 L121.987808,1.0728522 L121.987808,2.02683118 L122.034763,2.02683118 C122.178756,2.03338774 122.311794,2.06780966 122.433876,2.13009694 C122.555958,2.19238423 122.660823,2.27598033 122.748471,2.38088523 C122.83612,2.48579014 122.903421,2.6054473 122.950376,2.7398567 C122.99733,2.87426611 123.020807,3.01359294 123.020807,3.15783719 C123.020807,3.30863799 122.995765,3.45288223 122.94568,3.59056992 C122.895595,3.72825761 122.825163,3.84791476 122.734385,3.94954139 C122.643606,4.05116802 122.534046,4.13148583 122.405703,4.19049484 C122.277361,4.24950385 122.138063,4.27900836 121.987808,4.27900836 C121.837554,4.27900836 121.698255,4.24950385 121.569913,4.19049484 C121.441571,4.13148583 121.33201,4.05116802 121.241231,3.94954139 C121.150453,3.84791476 121.080021,3.72825761 121.029936,3.59056992 C120.979851,3.45288223 120.954809,3.30863799 120.954809,3.15783719 L120.954809,3.15783719 L119.968764,3.15783719 C119.968764,3.45288223 120.021979,3.72825761 120.12841,3.98396331 C120.23484,4.23966902 120.378834,4.46259194 120.560391,4.65273208 C120.741949,4.84287222 120.954809,4.99367302 121.198972,5.10513448 C121.443136,5.21659594 121.706081,5.27232667 121.987808,5.27232667 Z M129.81982,5.17397833 L129.81982,4.18066001 L127.124631,4.18066001 L128.946466,2.1743537 C129.259496,1.8268562 129.483313,1.50886321 129.617915,1.22037472 C129.752518,0.931886234 129.81982,0.627006354 129.81982,0.305735083 C129.81982,0.0106900379 129.766605,-0.264685338 129.660174,-0.520391043 C129.553744,-0.776096749 129.40975,-0.999019672 129.228193,-1.18915981 C129.046636,-1.37929995 128.833775,-1.53010075 128.589612,-1.64156221 C128.345448,-1.75302368 128.082503,-1.80875441 127.800776,-1.80875441 C127.519049,-1.80875441 127.256104,-1.75302368 127.01194,-1.64156221 C126.767777,-1.53010075 126.554916,-1.37929995 126.373359,-1.18915981 C126.191802,-0.999019672 126.047808,-0.776096749 125.941378,-0.520391043 C125.834947,-0.264685338 125.781732,0.0106900379 125.781732,0.305735083 C125.781732,0.620449798 125.839643,0.910577425 125.955464,1.17611797 C126.071285,1.44165851 126.229365,1.66949885 126.429704,1.85963899 L126.429704,1.85963899 L127.105849,1.13186121 C126.880468,0.915494843 126.767777,0.640119467 126.767777,0.305735083 C126.767777,0.154934282 126.792819,0.0106900379 126.842904,-0.12699765 C126.892989,-0.264685338 126.963421,-0.384342495 127.054199,-0.485969121 C127.144978,-0.587595748 127.254539,-0.667913566 127.382881,-0.726922575 C127.511223,-0.785931584 127.650522,-0.815436088 127.800776,-0.815436088 C127.95103,-0.815436088 128.090329,-0.785931584 128.218671,-0.726922575 C128.347013,-0.667913566 128.456574,-0.587595748 128.547353,-0.485969121 C128.638131,-0.384342495 128.708563,-0.264685338 128.758648,-0.12699765 C128.808733,0.0106900379 128.833775,0.154934282 128.833775,0.305735083 C128.833775,0.417196544 128.821254,0.52046231 128.796212,0.61553238 C128.771169,0.71060245 128.733606,0.80567252 128.683521,0.90074259 C128.633436,0.99581266 128.569265,1.09252187 128.491007,1.19087022 C128.41275,1.28921857 128.317276,1.39740175 128.204585,1.51541977 L128.204585,1.51541977 L125.781732,4.18066001 L125.781732,5.17397833 L129.81982,5.17397833 Z" id="RB124587395416432" fill="#1C2650"></path>
                    <path d="M94.4144144,-0.628574226 L88.5135135,-0.628574226 L88.5135135,4.09214649 L94.4144144,4.09214649 L94.4144144,-0.628574226 Z M93.7584309,0.0631687165 L93.7584309,3.39971118 L89.1688413,3.39971118 L89.1688413,0.0631687165 L93.7584309,0.0631687165 Z" id="Rectangle" fill="#14145A"></path>
                </g>
            </g>
        </g>
    </g>
</svg>