<?xml version="1.0" encoding="UTF-8"?>
<svg width="14px" height="9px" viewBox="0 0 14 9" version="1.1" xmlns="http://www.w3.org/2000/svg" xmlns:xlink="http://www.w3.org/1999/xlink">
    <!-- Generator: Sketch 62 (91390) - https://sketch.com -->
    <title>Combined Shape</title>
    <desc>Created with Sketch.</desc>
    <g id="Results-Page-/-Brand-Page" stroke="none" stroke-width="1" fill="none" fill-rule="evenodd">
        <g id="Search-Results-Page" transform="translate(-504.000000, -1711.000000)" fill="#14145A" fill-rule="nonzero">
            <path d="M509.065864,1711.43414 C509.334349,1711.70262 509.356723,1712.12402 509.132985,1712.41799 L509.065864,1712.4948 L506.81,1714.74947 L517,1714.75 C517.414214,1714.75 517.75,1715.08579 517.75,1715.5 C517.75,1715.8797 517.467846,1716.19349 517.101771,1716.24315 L517,1716.25 L506.81,1716.24947 L509.065864,1718.5052 C509.334349,1718.77369 509.356723,1719.19509 509.132985,1719.48906 L509.065864,1719.56586 C508.797379,1719.83435 508.375979,1719.85672 508.082008,1719.63299 L508.005204,1719.56586 L504.862507,1716.42317 C504.784834,1716.34549 504.718995,1716.26047 504.664988,1716.17033 C504.41916,1716.04848 504.25,1715.794 504.25,1715.5 C504.25,1715.20561 504.419617,1714.95083 504.666456,1714.82806 C504.697285,1714.77587 504.733053,1714.72482 504.772885,1714.67599 L504.862507,1714.57683 L508.005204,1711.43414 C508.298097,1711.14124 508.772971,1711.14124 509.065864,1711.43414 Z" id="Combined-Shape" transform="translate(511.000000, 1715.500000) scale(-1, 1) translate(-511.000000, -1715.500000) "></path>
        </g>
    </g>
</svg>