<?xml version="1.0" encoding="UTF-8"?>
<svg width="21px" height="21px" viewBox="0 0 21 21" version="1.1" xmlns="http://www.w3.org/2000/svg" xmlns:xlink="http://www.w3.org/1999/xlink">
    <!-- Generator: Sketch 62 (91390) - https://sketch.com -->
    <title>Combined Shape</title>
    <desc>Created with Sketch.</desc>
    <g id="Product-Page" stroke="none" stroke-width="1" fill="none" fill-rule="evenodd">
        <g id="Mobile-Product-Page-Fixed-Footer-Example" transform="translate(-21.000000, -597.000000)" fill="#A5E0F0" fill-rule="nonzero">
            <path d="M31.5,597 C37.2989899,597 42,601.70101 42,607.5 C42,613.29899 37.2989899,618 31.5,618 C25.7010101,618 21,613.29899 21,607.5 C21,601.70101 25.7010101,597 31.5,597 Z M31.5,598 C26.2532949,598 22,602.253295 22,607.5 C22,612.746705 26.2532949,617 31.5,617 C36.7467051,617 41,612.746705 41,607.5 C41,602.253295 36.7467051,598 31.5,598 Z M35.50314,604.499149 L35.5783311,604.568073 C35.8403761,604.842848 35.8527535,605.264659 35.6221094,605.553244 L35.5531861,605.628435 L30.7395444,610.218775 C30.3505325,610.607787 29.7324338,610.649096 29.308205,610.309331 L29.2204204,610.230679 L27.4341797,608.444438 C27.1412864,608.151545 27.1412864,607.676671 27.4341797,607.383778 C27.7026651,607.115293 28.1240647,607.092919 28.4180359,607.316657 L28.4948398,607.383778 L29.9804712,608.869409 L34.5179691,604.542927 C34.792744,604.280882 35.2145556,604.268505 35.50314,604.499149 Z" id="Combined-Shape"></path>
        </g>
    </g>
</svg>