<?xml version="1.0" encoding="UTF-8"?>
<svg width="15px" height="19px" viewBox="0 0 15 19" version="1.1" xmlns="http://www.w3.org/2000/svg" xmlns:xlink="http://www.w3.org/1999/xlink">
    <!-- Generator: Sketch 62 (91390) - https://sketch.com -->
    <title>p</title>
    <desc>Created with Sketch.</desc>
    <g id="Symbols" stroke="none" stroke-width="1" fill="none" fill-rule="evenodd">
        <g id="Footer" transform="translate(-1454.000000, -791.000000)" fill="#FFFFFF" fill-rule="nonzero">
            <path d="M1457.39454,807.390642 C1457.47266,807.390642 1457.49998,807.36329 1457.51173,807.292986 C1457.67187,806.304676 1458.21485,802.808591 1458.35157,802.058623 C1458.57812,800.839868 1459.59764,801.140657 1461.29296,801.113305 C1463.93356,801.082063 1465.92575,800.031269 1466.76559,797.585978 C1467.60936,795.210953 1467.39451,793.015676 1465.04684,792.105491 C1463.52734,791.515664 1463.02731,791.660203 1457.07811,791.660203 C1456.69142,791.660203 1456.35546,791.945351 1456.29686,792.320335 L1454.00782,806.847659 C1453.96876,807.132807 1454.1836,807.390642 1454.48046,807.390642 L1457.39454,807.390642 Z M1460.91016,809.359364 C1461.24608,809.359364 1461.5234,809.113279 1461.58982,808.777357 C1461.61717,808.566405 1461.54686,809.015623 1462.15233,805.210929 C1462.332,804.351556 1462.71092,804.44143 1463.29685,804.44143 C1466.07028,804.44143 1468.23436,803.316402 1468.87889,800.054691 C1469.13279,798.695327 1469.05856,797.265658 1467.94917,796.437528 C1467.87887,796.386754 1467.85151,796.367223 1467.83198,796.488301 C1467.75386,796.933628 1467.63278,797.367205 1467.48824,797.800821 C1465.92967,802.246115 1461.60935,801.859382 1459.49998,801.859382 C1459.26171,801.859382 1459.10546,801.98828 1459.07422,802.226584 C1458.19139,807.710923 1458.01561,808.855482 1458.01561,808.855482 C1457.97655,809.13281 1458.15233,809.359364 1458.42969,809.359364 L1460.91016,809.359364 Z" id="p"></path>
        </g>
    </g>
</svg>