<?xml version="1.0" encoding="UTF-8"?>
<svg width="12px" height="15px" viewBox="0 0 12 15" version="1.1" xmlns="http://www.w3.org/2000/svg" xmlns:xlink="http://www.w3.org/1999/xlink">
    <!-- Generator: Sketch 64 (93537) - https://sketch.com -->
    <title>p</title>
    <desc>Created with Sketch.</desc>
    <g id="Cart-/-Checkout" stroke="none" stroke-width="1" fill="none" fill-rule="evenodd">
        <g id="Shopping-Cart-Page" transform="translate(-1267.000000, -693.000000)" fill="#FFFFFF" fill-rule="nonzero">
            <path d="M1269.71563,705.912513 C1269.77813,705.912513 1269.79998,705.890632 1269.80938,705.834389 C1269.93749,705.043741 1270.37188,702.246873 1270.48125,701.646899 C1270.6625,700.671895 1271.47811,700.912525 1272.83437,700.890644 C1274.94685,700.86565 1276.5406,700.025015 1277.21247,698.068782 C1277.88749,696.168762 1277.71561,694.412541 1275.83747,693.684393 C1274.62187,693.212531 1274.22185,693.328162 1269.46249,693.328162 C1269.15313,693.328162 1268.88436,693.556281 1268.83749,693.856268 L1267.00626,705.478127 C1266.97501,705.706246 1267.14688,705.912513 1267.38437,705.912513 L1269.71563,705.912513 Z M1272.52812,707.487491 C1272.79686,707.487491 1273.01872,707.290623 1273.07185,707.021886 C1273.09374,706.853124 1273.03749,707.212498 1273.52187,704.168743 C1273.6656,703.481245 1273.96873,703.553144 1274.43748,703.553144 C1276.65623,703.553144 1278.38749,702.653122 1278.90311,700.043753 C1279.10623,698.956262 1279.04685,697.812527 1278.15934,697.150022 C1278.10309,697.109403 1278.08121,697.093778 1278.06559,697.190641 C1278.00309,697.546902 1277.90622,697.893764 1277.79059,698.240657 C1276.54374,701.796892 1273.08748,701.487506 1271.39998,701.487506 C1271.20937,701.487506 1271.08437,701.590624 1271.05938,701.781267 C1270.35311,706.168738 1270.21249,707.084386 1270.21249,707.084386 C1270.18124,707.306248 1270.32186,707.487491 1270.54375,707.487491 L1272.52812,707.487491 Z" id="p"></path>
        </g>
    </g>
</svg>