<?xml version="1.0" encoding="UTF-8"?>
<svg width="18px" height="16px" viewBox="0 0 18 16" version="1.1" xmlns="http://www.w3.org/2000/svg" xmlns:xlink="http://www.w3.org/1999/xlink">
    <!-- Generator: Sketch 62 (91390) - https://sketch.com -->
    <title>p</title>
    <desc>Created with Sketch.</desc>
    <g id="Symbols" stroke="none" stroke-width="1" fill="none" fill-rule="evenodd">
        <g id="Top-Bar" transform="translate(-874.000000, -12.000000)" fill="#A5E0F0" fill-rule="nonzero">
            <path d="M881.709637,28 C881.88902,28 882.05464,27.9037476 882.14369,27.7481384 L885.428405,22 L888.999986,22 C890.104666,22 892,21.1046753 892,20 C892,18.8953247 890.104666,18 888.999986,18 L885.428405,18 L882.144026,12.2518616 C882.077701,12.1360219 881.931521,12.0383445 881.791935,12.0090031 L881.709637,12 L879.662752,12 C879.330566,12 879.09088,12.3178101 879.182128,12.6371765 L880.714332,18 L877.49993,18 L876.149918,16.2000122 C876.055557,16.0740662 875.907118,16 875.749922,16 L874.500221,16 C874.174902,16 873.936162,16.3056335 874.015233,16.6212463 L874.999918,20 L874.015233,23.3787537 C873.936162,23.6943665 874.174902,24 874.500221,24 L875.749922,24 C875.907424,24 876.055557,23.9259338 876.149918,23.7999878 L877.49993,22 L880.714332,22 L879.182128,27.3624878 C879.09088,27.6818848 879.330566,28 879.662752,28 L881.709637,28 Z" id="p"></path>
        </g>
    </g>
</svg>