<?xml version="1.0" encoding="UTF-8"?>
<svg width="22px" height="22px" viewBox="0 0 22 22" version="1.1" xmlns="http://www.w3.org/2000/svg" xmlns:xlink="http://www.w3.org/1999/xlink">
    <!-- Generator: Sketch 62 (91390) - https://sketch.com -->
    <title>Combined Shape</title>
    <desc>Created with Sketch.</desc>
    <g id="Menu-Design" stroke="none" stroke-width="1" fill="none" fill-rule="evenodd">
        <g id="Menu-Cart-Hover" transform="translate(-1006.000000, -236.000000)" fill="#D3DAE8" fill-rule="nonzero">
            <path d="M1017.3429,236.642136 C1023.14189,236.642136 1027.8429,241.343146 1027.8429,247.142136 C1027.8429,252.941125 1023.14189,257.642136 1017.3429,257.642136 C1011.54391,257.642136 1006.8429,252.941125 1006.8429,247.142136 C1006.8429,241.343146 1011.54391,236.642136 1017.3429,236.642136 Z M1017.3429,237.642136 C1012.0962,237.642136 1007.8429,241.895431 1007.8429,247.142136 C1007.8429,252.388841 1012.0962,256.642136 1017.3429,256.642136 C1022.58961,256.642136 1026.8429,252.388841 1026.8429,247.142136 C1026.8429,241.895431 1022.58961,237.642136 1017.3429,237.642136 Z M1022.3429,246.642136 C1022.61905,246.642136 1022.8429,246.865993 1022.8429,247.142136 C1022.8429,247.387596 1022.66603,247.591744 1022.43278,247.63408 L1022.3429,247.642136 L1012.3429,247.642136 C1012.06676,247.642136 1011.8429,247.418278 1011.8429,247.142136 C1011.8429,246.896676 1012.01978,246.692527 1012.25303,246.650191 L1012.3429,246.642136 L1022.3429,246.642136 Z" id="Combined-Shape"></path>
        </g>
    </g>
</svg>