<?xml version="1.0" encoding="UTF-8"?>
<svg width="27px" height="27px" viewBox="0 0 27 27" version="1.1" xmlns="http://www.w3.org/2000/svg" xmlns:xlink="http://www.w3.org/1999/xlink">
    <!-- Generator: Sketch 62 (91390) - https://sketch.com -->
    <title>Combined Shape</title>
    <desc>Created with Sketch.</desc>
    <g id="Menu-Design" stroke="none" stroke-width="1" fill="none" fill-rule="evenodd">
        <g id="Plain-Menu" transform="translate(-96.000000, -71.000000)" fill="#14145A" fill-rule="nonzero">
            <path d="M107,71.25 C112.937061,71.25 117.75,76.0629389 117.75,82 C117.75,84.6985766 116.755656,87.1649117 115.113366,89.052606 L122.03033,95.9696699 C122.323223,96.2625631 122.323223,96.7374369 122.03033,97.0303301 C121.764064,97.2965966 121.3474,97.3208027 121.053788,97.1029482 L120.96967,97.0303301 L114.052606,90.113366 C112.164912,91.7556556 109.698577,92.75 107,92.75 C101.062939,92.75 96.25,87.9370611 96.25,82 C96.25,76.0629389 101.062939,71.25 107,71.25 Z M107,72.75 C101.891366,72.75 97.75,76.8913661 97.75,82 C97.75,87.1086339 101.891366,91.25 107,91.25 C112.108634,91.25 116.25,87.1086339 116.25,82 C116.25,76.8913661 112.108634,72.75 107,72.75 Z" id="Combined-Shape"></path>
        </g>
    </g>
</svg>