<?xml version="1.0" encoding="utf-8"?>
<!-- Generator: Adobe Illustrator 24.1.2, SVG Export Plug-In . SVG Version: 6.00 Build 0)  -->
<svg version="1.1" id="Layer_1" xmlns="http://www.w3.org/2000/svg" xmlns:xlink="http://www.w3.org/1999/xlink" x="0px" y="0px"
	 viewBox="0 0 22 22" style="enable-background:new 0 0 22 22;" xml:space="preserve">
<desc>Created with Sketch.</desc>
<g id="Product-Page">
	<g id="Mobile-Product-Page-Fixed-Footer-Example" transform="translate(-20.000000, -596.000000)">
		<g id="Group" transform="translate(0.000000, 567.000000)">
			<path id="Combined-Shape" style="fill:#14145A;" d="M31,50.5c-5.8,0-10.5-4.7-10.5-10.5S25.2,29.5,31,29.5S41.5,34.2,41.5,40
				S36.8,50.5,31,50.5z M31,49.5c5.2,0,9.5-4.3,9.5-9.5s-4.3-9.5-9.5-9.5s-9.5,4.3-9.5,9.5S25.8,49.5,31,49.5z M30.4,39.9L30.4,39.9
				l-2.6-2.6c-0.2-0.2-0.2-0.5,0-0.7c0.2-0.2,0.4-0.2,0.6-0.1l0.1,0.1l2.5,2.5l2.5-2.5c0.2-0.2,0.4-0.2,0.6-0.1l0.1,0.1
				c0.2,0.2,0.2,0.4,0.1,0.6l-0.1,0.1l-2.5,2.5C31.3,40.2,30.8,40.2,30.4,39.9z M30.4,43.9L30.4,43.9l-2.6-2.6
				c-0.2-0.2-0.2-0.5,0-0.7c0.2-0.2,0.4-0.2,0.6-0.1l0.1,0.1l2.5,2.5l2.5-2.5c0.2-0.2,0.4-0.2,0.6-0.1l0.1,0.1
				c0.2,0.2,0.2,0.4,0.1,0.6l-0.1,0.1l-2.5,2.5C31.3,44.2,30.8,44.2,30.4,43.9z"/>
		</g>
	</g>
</g>
</svg>
