<?xml version="1.0" encoding="UTF-8"?>
<svg width="22px" height="22px" viewBox="0 0 22 22" version="1.1" xmlns="http://www.w3.org/2000/svg" xmlns:xlink="http://www.w3.org/1999/xlink">
    <!-- Generator: Sketch 62 (91390) - https://sketch.com -->
    <title>Combined Shape</title>
    <desc>Created with Sketch.</desc>
    <g id="Product-Page" stroke="none" stroke-width="1" fill="none" fill-rule="evenodd">
        <g id="Mobile-Product-Page-Fixed-Footer-Example" transform="translate(-20.000000, -596.000000)" fill="#14145A" fill-rule="nonzero">
            <g id="Group" transform="translate(0.000000, 567.000000)">
                <path d="M31,29.5 C36.7989899,29.5 41.5,34.2010101 41.5,40 C41.5,45.7989899 36.7989899,50.5 31,50.5 C25.2010101,50.5 20.5,45.7989899 20.5,40 C20.5,34.2010101 25.2010101,29.5 31,29.5 Z M31,30.5 C25.7532949,30.5 21.5,34.7532949 21.5,40 C21.5,45.2467051 25.7532949,49.5 31,49.5 C36.2467051,49.5 40.5,45.2467051 40.5,40 C40.5,34.7532949 36.2467051,30.5 31,30.5 Z M31.5854479,40.0588998 L31.6678231,40.1322892 L34.1819805,42.6464466 C34.3772427,42.8417088 34.3772427,43.1582912 34.1819805,43.3535534 C34.0084142,43.5271197 33.7389898,43.5464049 33.5441216,43.4114088 L33.4748737,43.3535534 L31,40.8786797 L28.5251263,43.3535534 C28.3515599,43.5271197 28.0821355,43.5464049 27.8872674,43.4114088 L27.8180195,43.3535534 C27.6444531,43.179987 27.625168,42.9105626 27.760164,42.7156945 L27.8180195,42.6464466 L30.3321769,40.1322892 C30.6746605,39.7898056 31.2147367,39.7653424 31.5854479,40.0588998 Z M31.5854479,36.0588998 L31.6678231,36.1322892 L34.1819805,38.6464466 C34.3772427,38.8417088 34.3772427,39.1582912 34.1819805,39.3535534 C34.0084142,39.5271197 33.7389898,39.5464049 33.5441216,39.4114088 L33.4748737,39.3535534 L31,36.8786797 L28.5251263,39.3535534 C28.3515599,39.5271197 28.0821355,39.5464049 27.8872674,39.4114088 L27.8180195,39.3535534 C27.6444531,39.179987 27.625168,38.9105626 27.760164,38.7156945 L27.8180195,38.6464466 L30.3321769,36.1322892 C30.6746605,35.7898056 31.2147367,35.7653424 31.5854479,36.0588998 Z" id="Combined-Shape"></path>
            </g>
        </g>
    </g>
</svg>