<?xml version="1.0" encoding="UTF-8"?>
<svg width="22px" height="22px" viewBox="0 0 22 22" version="1.1" xmlns="http://www.w3.org/2000/svg" xmlns:xlink="http://www.w3.org/1999/xlink">
    <!-- Generator: Sketch 64 (93537) - https://sketch.com -->
    <title>Group 2</title>
    <desc>Created with Sketch.</desc>
    <g id="Home-Page" stroke="none" stroke-width="1" fill="none" fill-rule="evenodd">
        <g id="Home-Page-Video-Copy" transform="translate(-1439.000000, -813.000000)" fill="#14145A" fill-rule="nonzero">
            <g id="Group-2" transform="translate(1450.000000, 824.000000) scale(-1, 1) translate(-1450.000000, -824.000000) translate(1434.500000, 808.500000)">
                <path d="M15.5,5 C9.70101013,5 5,9.70101013 5,15.5 C5,21.2989899 9.70101013,26 15.5,26 C21.2989899,26 26,21.2989899 26,15.5 C26,9.70101013 21.2989899,5 15.5,5 Z M15.5,6 C20.7467051,6 25,10.2532949 25,15.5 C25,20.7467051 20.7467051,25 15.5,25 C10.2532949,25 6,20.7467051 6,15.5 C6,10.2532949 10.2532949,6 15.5,6 Z" id="Oval-Copy-6" transform="translate(15.500000, 15.500000) scale(-1, 1) rotate(-135.000000) translate(-15.500000, -15.500000) "></path>
                <path d="M16.8071492,12.5991543 L16.8570706,12.6427822 L18.8997772,14.6854889 C18.9568136,14.7425252 19.0040334,14.8056608 19.0414368,14.872796 C19.1815652,14.9594099 19.2748012,15.1175598 19.2748012,15.298045 C19.2748012,15.489475 19.1699146,15.6557786 19.0158693,15.7397977 C18.9989002,15.7678469 18.979362,15.7949759 18.9580304,15.82113 L18.8997772,15.8855791 L16.8570705,17.9282858 C16.6666942,18.118662 16.3580333,18.118662 16.167657,17.9282858 C15.9931454,17.7537742 15.9786028,17.4798706 16.1240291,17.2887937 L16.167657,17.2388723 L17.607,15.798 L10.987489,15.798045 C10.7182562,15.798045 10.5,15.5741874 10.5,15.298045 C10.5,15.0449145 10.6833959,14.8357177 10.9213396,14.8026094 L10.987489,14.798045 L17.633,14.798 L16.1676571,13.3321957 C15.9931455,13.1576842 15.9786029,12.8837806 16.1240292,12.6927037 L16.1676571,12.6427822 C16.3421687,12.4682707 16.6160722,12.453728 16.8071492,12.5991543 Z" id="Combined-Shape"></path>
            </g>
        </g>
    </g>
</svg>