<?xml version="1.0" encoding="UTF-8"?>
<svg width="101px" height="68px" viewBox="0 0 101 68" version="1.1" xmlns="http://www.w3.org/2000/svg" xmlns:xlink="http://www.w3.org/1999/xlink">
    <!-- Generator: Sketch 62 (91390) - https://sketch.com -->
    <title>Logo Dark</title>
    <desc>Created with Sketch.</desc>
    <g id="Symbols" stroke="none" stroke-width="1" fill="none" fill-rule="evenodd">
        <g id="Footer" transform="translate(-711.000000, -862.000000)" fill="#FFFFFF">
            <g id="Logo-White" transform="translate(711.000000, 862.000000)">
                <g id="Group-9">
                    <path d="M37.0027693,18.489068 C33.9688085,18.2632816 31.0635732,19.2298058 28.8191288,21.2130291 C26.5548804,23.2134175 25.2260373,25.9961359 25.0768477,29.0501942 C24.7870503,34.9754369 29.5743183,40.2292621 35.5306778,40.5237087 C35.7254163,40.5329515 35.9194948,40.538233 36.1129131,40.538233 C38.9191288,40.538233 41.561632,39.5287961 43.6060569,37.6637476 C45.7917497,35.6706214 47.0776843,32.8991262 47.227534,29.8576117 L47.227534,29.8536505 C47.4037889,23.9237864 42.9122595,18.9313981 37.0027693,18.489068 M44.3619527,29.5407184 C44.3480438,34.0280583 40.6770569,37.6749709 36.1756255,37.6743107 L36.1644033,37.6743107 C31.6365667,37.6677087 27.9543575,33.9891068 27.9556774,29.4733786 C27.956998,27.2953981 28.8125275,25.2468155 30.3644948,23.7052621 C31.915802,22.1637087 33.9727693,21.3153592 36.1597824,21.3153592 L36.1663837,21.3153592 C38.3586778,21.3173398 40.420266,22.1755922 41.9702529,23.7329903 C43.5195797,25.2884078 44.369168,27.3508544 44.3619527,29.5407184" id="Fill-1"></path>
                    <path d="M61.9136601,18.465235 L61.9037582,18.465235 C55.8206536,18.4698563 50.8624118,23.3896233 50.8518268,29.4317204 C50.8459085,32.4025942 51.9965163,35.1945553 54.0891307,37.2919922 C56.1764641,39.3834874 58.9523137,40.5361864 61.9063987,40.5375068 L61.9116797,40.5375068 C68.0251503,40.5368466 73.0005556,35.5754874 73.0031972,29.474633 C73.0045163,26.5532738 71.8598497,23.7989437 69.7817582,21.7206524 C67.6812222,19.6205748 64.8882092,18.465235 61.9136601,18.465235 M70.1316452,29.631099 C70.1283268,31.7635262 69.2655359,33.779099 67.700366,35.3067883 C66.1371765,36.8324971 64.079549,37.6722641 61.9050784,37.6722641 L61.8918758,37.6722641 C59.7127843,37.6683029 57.6577974,36.8093903 56.1058301,35.254633 C54.5538627,33.6998757 53.7022941,31.6460117 53.7075507,29.4719922 C53.7135163,27.3025942 54.5776275,25.255332 56.1401569,23.7065165 C57.696085,22.1636427 59.7457908,21.3152932 61.913,21.3152932 L61.9400654,21.3152932 C66.5418366,21.3298175 70.1408693,24.983332 70.1316452,29.631099" id="Fill-3"></path>
                    <path d="M73.1327137,14.297099 L49.8452824,0.226380583 C49.3449033,-0.0759883495 48.7177791,-0.0753281553 48.2180601,0.228361165 L24.9755176,14.3525553 L26.6060405,17.0369049 L49.035302,3.40653592 L71.5087922,16.9854097 L73.1327137,14.297099 Z" id="Fill-5"></path>
                    <path d="M4.95032026,49.1765437 C1.82922222,49.1765437 0.304980392,50.9881165 0.304980392,53.104699 C0.304980392,55.6702136 2.27811111,56.351534 4.68098693,56.9437282 C6.7260719,57.4276505 7.89186275,57.7867961 7.89186275,59.1316117 C7.89186275,60.5312233 6.76171895,61.104932 5.21965359,61.104932 C3.53367974,61.104932 2.25962745,60.1899029 2.1705098,58.755301 L0,58.8807379 C0.0897777778,61.4997282 2.27811111,62.9528155 5.21965359,62.9528155 C7.87403922,62.9528155 10.0617124,61.7506019 10.0617124,58.9883495 C10.0617124,56.6208932 8.28662092,55.8134757 5.47050327,55.1321553 C3.53367974,54.6832233 2.49331373,54.3782136 2.49331373,53.0333981 C2.49331373,51.8859806 3.35412418,51.023767 4.98596732,51.023767 C6.49304575,51.023767 7.47928105,51.8490097 7.55123529,53.1944854 L9.72108497,53.0690485 C9.63130719,50.6118058 7.69448366,49.1765437 4.95032026,49.1765437 L4.95032026,49.1765437 Z M19.4045425,62.7732427 L19.4045425,53.5714563 L17.3957647,53.5714563 L17.3957647,58.8266019 C17.3957647,60.0288155 16.6603791,61.0692816 15.4048105,61.0692816 C14.185549,61.0692816 13.5399412,60.2618641 13.5399412,58.9342136 L13.5399412,53.5714563 L11.5311634,53.5714563 L11.5311634,59.2392233 C11.5311634,61.4634175 12.8223791,62.9528155 14.9031111,62.9528155 C16.3375752,62.9528155 17.1627386,62.2530097 17.503366,61.5710291 L17.503366,62.7732427 L19.4045425,62.7732427 Z M26.0639412,53.4097087 C24.7192549,53.4097087 23.8399608,53.9840777 23.3739085,54.790835 L23.3739085,53.5714563 L21.472732,53.5714563 L21.472732,62.7732427 L23.4815098,62.7732427 L23.4815098,57.5174369 C23.4815098,56.2439223 24.3423203,55.2754175 25.6157124,55.2754175 C26.835634,55.2754175 27.6244902,56.1184854 27.6244902,57.4996117 L27.6244902,62.7732427 L29.6510915,62.7732427 L29.6510915,57.2302524 C29.6510915,54.8449709 28.1624967,53.4097087 26.0639412,53.4097087 L26.0639412,53.4097087 Z M35.8873464,53.4097087 C33.3227386,53.4097087 31.4572092,55.2575922 31.4572092,58.180932 C31.4572092,61.1227573 33.3227386,62.9528155 35.8873464,62.9528155 C37.2683399,62.9528155 38.3087059,62.3962718 38.8110654,61.6786408 L38.8110654,63.3647767 C38.8110654,64.9617864 37.7706993,65.8048544 36.2457974,65.8048544 C34.9011111,65.8048544 33.9142157,65.140699 33.7353203,64.0645825 L31.7265425,64.1365437 C32.0849935,66.1276893 33.5914118,67.5088155 36.2999281,67.5088155 C39.026268,67.5088155 40.8198431,65.8583301 40.8198431,63.2215146 L40.8198431,53.5714563 L38.9186667,53.5714563 L38.9186667,54.8627961 C38.4163072,54.0197282 37.3224706,53.4097087 35.8873464,53.4097087 L35.8873464,53.4097087 Z M36.2101503,55.1499806 C37.7165686,55.1499806 38.8110654,56.1184854 38.8110654,57.9478835 L38.8110654,58.4331262 C38.8110654,60.2440388 37.7165686,61.2303689 36.2101503,61.2303689 C34.6496013,61.2303689 33.501634,60.1364272 33.501634,58.180932 C33.501634,56.2260971 34.6496013,55.1499806 36.2101503,55.1499806 L36.2101503,55.1499806 Z M43.197634,62.7725825 L45.2064118,62.7725825 L45.2064118,48.8358835 L43.197634,48.8358835 L43.197634,62.7725825 Z M51.0281046,53.4097087 C48.7328301,53.4097087 47.3696601,55.0423689 47.3696601,56.6565437 L49.3962614,56.7285049 C49.3962614,55.9032621 49.8986209,55.1678058 51.0465882,55.1678058 C52.1760719,55.1678058 52.6784314,55.9032621 52.6784314,57.0869903 L52.6784314,57.3556893 L50.490098,57.4817864 C48.6074052,57.5893981 47.1181503,58.2885437 47.1181503,60.2618641 C47.1181503,61.9836505 48.3558954,62.9528155 50.1851176,62.9528155 C51.2076601,62.9528155 52.0328235,62.5580194 52.6784314,61.948 L52.6784314,62.7732427 L54.7050327,62.7732427 L54.7050327,57.0513398 C54.7050327,54.7010485 53.3959935,53.4097087 51.0281046,53.4097087 L51.0281046,53.4097087 Z M52.6962549,58.9163883 L52.6962549,59.2392233 C52.6962549,60.638835 51.7997974,61.2666796 50.5264052,61.2666796 C49.7190654,61.2666796 49.1454118,60.9973204 49.1454118,60.2262136 C49.1454118,59.4009709 49.8266667,59.0959612 50.7772549,59.0418252 L52.6962549,58.9163883 Z M60.1161242,53.4097087 C57.8921438,53.4097087 56.6187516,54.5399612 56.6187516,56.1897864 C56.6187516,58.0376699 57.9462745,58.4331262 59.8111438,58.8807379 C61.3182222,59.2392233 61.802098,59.4187961 61.802098,60.1720777 C61.802098,60.8540583 61.1564902,61.2125437 60.241549,61.2125437 C59.1477124,61.2125437 58.5555752,60.7279612 58.4479739,59.8848932 L56.4391961,60.0109903 C56.6543987,61.8403883 57.9997451,62.9528155 60.205902,62.9528155 C62.4477059,62.9528155 63.8108758,61.8582136 63.8108758,60.0109903 C63.8108758,58.3605049 62.5374837,57.7867961 60.6363072,57.3022136 C59.4170458,57.0150291 58.6275294,56.9437282 58.6275294,56.1541359 C58.6275294,55.5262913 59.1120654,55.1321553 60.0626536,55.1321553 C61.0845359,55.1321553 61.5690719,55.6702136 61.6410261,56.4413204 L63.6498039,56.3337087 C63.4702484,54.7010485 62.3044575,53.4097087 60.1161242,53.4097087 L60.1161242,53.4097087 Z M68.806085,53.4097087 C66.5821046,53.4097087 65.3087124,54.5399612 65.3087124,56.1897864 C65.3087124,58.0376699 66.6355752,58.4331262 68.5011046,58.8807379 C70.0075229,59.2392233 70.4920588,59.4187961 70.4920588,60.1720777 C70.4920588,60.8540583 69.846451,61.2125437 68.9315098,61.2125437 C67.8376732,61.2125437 67.2455359,60.7279612 67.1379346,59.8848932 L65.1291569,60.0109903 C65.3443595,61.8403883 66.6897059,62.9528155 68.8958627,62.9528155 C71.1376667,62.9528155 72.5008366,61.8582136 72.5008366,60.0109903 C72.5008366,58.3605049 71.2274444,57.7867961 69.326268,57.3022136 C68.1063464,57.0150291 67.3174902,56.9437282 67.3174902,56.1541359 C67.3174902,55.5262913 67.8020261,55.1321553 68.7526144,55.1321553 C69.7744967,55.1321553 70.2590327,55.6702136 70.3309869,56.4413204 L72.3397647,56.3337087 C72.1602092,54.7010485 70.9944183,53.4097087 68.806085,53.4097087 L68.806085,53.4097087 Z M86.7953072,51.2396505 L86.7953072,49.3561165 L78.3654379,49.3561165 L78.3654379,62.7732427 L80.5003007,62.7732427 L80.5003007,56.871767 L85.7014706,56.871767 L85.7014706,54.988233 L80.5003007,54.988233 L80.5003007,51.2396505 L86.7953072,51.2396505 Z M89.4193268,49.1224078 C88.7374118,49.1224078 88.1637582,49.6789515 88.1637582,50.3780971 C88.1637582,51.0779029 88.7195882,51.6337864 89.4193268,51.6337864 C90.1190654,51.6337864 90.692719,51.0779029 90.692719,50.3780971 C90.692719,49.6789515 90.1190654,49.1224078 89.4193268,49.1224078 L89.4193268,49.1224078 Z M88.4139477,62.7732427 L90.4233856,62.7732427 L90.4233856,53.5714563 L88.4139477,53.5714563 L88.4139477,62.7732427 Z M97.6980261,58.0911456 L100.621745,53.5714563 L98.2360327,53.5714563 L96.2272549,56.7285049 L94.1828301,53.5714563 L91.7971176,53.5714563 L94.7030131,58.0554951 L91.7258235,62.7732427 L94.0752288,62.7732427 L96.2272549,59.472932 L98.3614575,62.7732427 L100.764993,62.7732427 L97.6980261,58.0911456 Z" id="Fill-7"></path>
                </g>
            </g>
        </g>
    </g>
</svg>