<?xml version="1.0" encoding="UTF-8"?>
<svg width="120px" height="80px" viewBox="0 0 120 80" version="1.1" xmlns="http://www.w3.org/2000/svg" xmlns:xlink="http://www.w3.org/1999/xlink">
    <!-- Generator: Sketch 62 (91390) - https://sketch.com -->
    <title>Group 4</title>
    <desc>Created with Sketch.</desc>
    <g id="Menu-Design" stroke="none" stroke-width="1" fill="none" fill-rule="evenodd">
        <g id="Menu-Cart-Hover" transform="translate(-700.000000, -60.000000)" fill="#FFFFFF">
            <g id="Group-4" transform="translate(700.390897, 60.000000)">
                <path class="lockup" d="M62.3683748,70.1594606 C62.3683748,71.8240632 61.307008,72.5709903 59.7993692,72.5709903 C58.8446986,72.5709903 58.1651614,72.2517103 58.1651614,71.3327736 C58.1651614,70.3514555 58.9711712,69.9886152 60.0968838,69.9238084 L62.3683748,69.7753737 L62.3683748,70.1594606 Z M60.3933372,63.2204793 C57.676732,63.2204793 56.0635547,65.1632272 56.0635547,67.0846315 L58.4616148,67.1705878 C58.4616148,66.1881055 59.0566439,65.3128261 60.4155254,65.3128261 C61.7522186,65.3128261 62.3472478,66.1881055 62.3472478,67.5970707 L62.3472478,67.917515 L59.7572117,68.0671138 C57.5279747,68.1954661 55.7660401,69.0273794 55.7660401,71.3764308 C55.7660401,73.4251203 57.2303636,74.5783509 59.3963161,74.5783509 C60.6064402,74.5783509 61.5824308,74.1084048 62.3472478,73.3826272 L62.3472478,74.3651095 L64.7453079,74.3651095 L64.7453079,67.5546746 C64.7453079,64.7578938 63.1954152,63.2204793 60.3933372,63.2204793 Z M92.7488194,74.3651095 L95.2745098,74.3651095 L95.2745098,67.3414332 L101.430573,67.3414332 L101.430573,65.0994876 L95.2745098,65.0994876 L95.2745098,60.6381041 L102.725205,60.6381041 L102.725205,58.3962556 L92.7488194,58.3962556 L92.7488194,74.3651095 Z M71.7649734,67.8538724 C70.3217769,67.5121816 69.3881368,67.4263223 69.3881368,66.4873033 C69.3881368,65.7403761 69.9609777,65.270333 71.0855327,65.270333 C72.2956568,65.270333 72.8685943,65.9112215 72.9539705,66.828897 L75.3310001,66.7005447 C75.1189583,64.7578938 73.7389498,63.2204793 71.1499749,63.2204793 C68.5176847,63.2204793 67.010046,64.5658019 67.010046,66.5296993 C67.010046,68.7291518 68.5809693,69.1980308 70.7891758,69.7317165 C72.5720444,70.1594606 73.1449819,70.372702 73.1449819,71.269131 C73.1449819,72.0808649 72.381226,72.5073478 71.2987322,72.5073478 C70.0032318,72.5073478 69.302664,71.931169 69.1750337,70.9275372 L66.7980042,71.0772331 C67.0523,73.2542749 68.6443503,74.5783509 71.255417,74.5783509 C73.9088341,74.5783509 75.5229761,73.2755214 75.5229761,71.0772331 C75.5229761,69.1132387 74.0153374,68.4299541 71.7649734,67.8538724 Z M82.049871,67.8538724 C80.6066745,67.5121816 79.6729379,67.4263223 79.6729379,66.4873033 C79.6729379,65.7403761 80.2457789,65.270333 81.3704303,65.270333 C82.5805545,65.270333 83.1533954,65.9112215 83.2388682,66.828897 L85.6158013,66.7005447 C85.4037594,64.7578938 84.0238475,63.2204793 81.4348725,63.2204793 C78.8024859,63.2204793 77.2949436,64.5658019 77.2949436,66.5296993 C77.2949436,68.7291518 78.8658669,69.1980308 81.0739769,69.7317165 C82.856942,70.1594606 83.429783,70.372702 83.429783,71.269131 C83.429783,72.0808649 82.6660272,72.5073478 81.5824722,72.5073478 C80.2880329,72.5073478 79.5874652,71.931169 79.4597384,70.9275372 L77.0828053,71.0772331 C77.3371012,73.2542749 78.9291515,74.5783509 81.5402181,74.5783509 C84.1936353,74.5783509 85.8078738,73.2755214 85.8078738,71.0772331 C85.8078738,69.1132387 84.300235,68.4299541 82.049871,67.8538724 Z M104.641106,74.3651095 L107.0191,74.3651095 L107.0191,63.4136384 L104.641106,63.4136384 L104.641106,74.3651095 Z M115.630044,68.7928914 L119.089471,63.4136384 L116.265784,63.4136384 L113.888755,67.1705878 L111.469278,63.4136384 L108.645591,63.4136384 L112.083794,68.7503984 L108.559732,74.3651095 L111.340972,74.3651095 L113.888755,70.4362476 L116.414348,74.3651095 L119.259259,74.3651095 L115.630044,68.7928914 Z M105.83155,58.1193715 C105.024093,58.1193715 104.344942,58.7803424 104.344942,59.6132258 C104.344942,60.4460122 105.00287,61.1081473 105.83155,61.1081473 C106.658301,61.1081473 107.337453,60.4460122 107.337453,59.6132258 C107.337453,58.7803424 106.658301,58.1193715 105.83155,58.1193715 Z M45.9341673,69.1980308 C45.9341673,71.3551843 44.6385704,72.5284973 42.8556052,72.5284973 C41.0093556,72.5284973 39.6504741,71.2268319 39.6504741,68.8999972 C39.6504741,66.5721924 41.0093556,65.2915795 42.8556052,65.2915795 C44.6385704,65.2915795 45.9341673,66.4448102 45.9341673,68.622046 L45.9341673,69.1980308 Z M46.0607364,64.9498887 C45.4667684,63.9473241 44.1723291,63.2204793 42.4736791,63.2204793 C39.4384323,63.2204793 37.2302258,65.4199319 37.2302258,68.8999972 C37.2302258,72.4001449 39.4384323,74.5783509 42.4736791,74.5783509 C44.1078869,74.5783509 45.3391381,73.9163129 45.9341673,73.062183 L45.9341673,75.0696406 C45.9341673,76.9687312 44.7030126,77.97246 42.8977628,77.97246 C41.305809,77.97246 40.139,77.1819727 39.9269582,75.9014568 L37.5489639,75.9874131 C37.9730476,78.3565469 39.7570739,80 42.962205,80 C46.1883666,80 48.3111004,78.0361026 48.3111004,74.8987952 L48.3111004,63.4136384 L46.0607364,63.4136384 L46.0607364,64.9498887 Z M30.847747,63.2204793 C29.2557932,63.2204793 28.2155534,63.9037639 27.6637429,64.8650967 L27.6637429,63.4136384 L25.4133789,63.4136384 L25.4133789,74.3651095 L27.790312,74.3651095 L27.790312,68.1096069 C27.790312,66.5944091 28.8094249,65.4411784 30.3170636,65.4411784 C31.7603566,65.4411784 32.6939967,66.4448102 32.6939967,68.0883603 L32.6939967,74.3651095 L35.0932145,74.3651095 L35.0932145,67.7679161 C35.0932145,64.9287392 33.3312799,63.2204793 30.847747,63.2204793 Z M20.5885105,69.6681709 C20.5885105,71.0982856 19.718155,72.3365024 18.2315468,72.3365024 C16.7882538,72.3365024 16.024498,71.3764308 16.024498,69.7965232 L16.024498,63.4136384 L13.6465037,63.4136384 L13.6465037,70.1594606 C13.6465037,72.8065455 15.1751729,74.5783509 17.6375788,74.5783509 C19.3362288,74.5783509 20.3120265,73.7454675 20.7161408,72.9338306 L20.7161408,74.3651095 L22.9654436,74.3651095 L22.9654436,63.4136384 L20.5885105,63.4136384 L20.5885105,69.6681709 Z M6.47460797,65.270333 C4.18092878,64.7366473 2.94977409,64.373807 2.94977409,62.7728469 C2.94977409,61.4062778 3.96888693,60.3813025 5.90060935,60.3813025 C7.68367095,60.3813025 8.85154108,61.3637848 8.93701382,62.9648418 L11.5048618,62.815243 C11.3994197,59.891177 9.10574047,58.1829171 5.8584518,58.1829171 C2.1647948,58.1829171 0.360799133,60.3389064 0.360799133,62.857639 C0.360799133,65.9112215 2.69547823,66.7217912 5.53981022,67.4263223 C7.96005852,68.0034712 9.33997049,68.4299541 9.33997049,70.0310112 C9.33997049,71.6957109 8.00221606,72.3788984 6.17709339,72.3788984 C4.18092878,72.3788984 2.67444769,71.2903775 2.56784795,69.5821176 L-3.55271368e-14,69.7317165 C0.1054421,72.8489415 2.69547823,74.5783509 6.17709339,74.5783509 C9.31893996,74.5783509 11.9079149,73.1481393 11.9079149,69.8602628 C11.9079149,67.0422355 9.8063082,66.0819699 6.47460797,65.270333 Z M51.1254301,74.3651095 L53.5034244,74.3651095 L53.5034244,57.7777778 L51.1254301,57.7777778 L51.1254301,74.3651095 Z" id="Fill-1"></path>
                <path d="M34.8866881,24.8100009 C37.5866606,22.4146386 41.0816178,21.2479672 44.7312452,21.5203216 C51.8394139,22.0547102 57.2423934,28.083168 57.0310436,35.2445848 L57.0310436,35.2445848 C56.850334,38.9224994 55.303535,42.2699717 52.6745346,44.6770302 C50.2146924,46.9287946 47.0362215,48.1481481 43.6604973,48.1481481 C43.4280026,48.1481481 43.1948228,48.1418578 42.9607618,48.1302598 C35.7956198,47.775344 30.0368989,41.4304007 30.3853962,34.2744881 C30.5652246,30.5864499 32.1634172,27.2259053 34.8866881,24.8100009 Z M74.7984258,21.4814815 C78.3789106,21.4814815 81.7421053,22.8776312 84.2703304,25.4144763 C86.7728883,27.925363 88.1501033,31.2526615 88.1481461,34.782416 C88.145009,42.1527376 82.1555246,48.1473615 74.7959766,48.1481481 L74.7959766,48.1481481 C71.2335177,48.1465749 67.8915817,46.7537683 65.3794231,44.2270509 C62.8596231,41.692664 61.4750606,38.3196433 61.4815039,34.7305975 C61.4946539,27.4304816 67.4635654,21.4867912 74.7871596,21.4814815 L74.7871596,21.4814815 Z M43.7251063,24.9338431 C41.0865124,24.9338431 38.6116927,25.9583909 36.7462536,27.8192663 C34.8793462,29.6813212 33.8502025,32.1554117 33.8486355,34.785386 C33.8464826,40.2388626 38.2757257,44.6815515 43.7223653,44.6885299 L43.7223653,44.6885299 L43.7361682,44.6885299 C49.1509927,44.6893162 53.5670203,40.2859422 53.5839094,34.8671611 C53.5922766,32.2226403 52.5704749,29.7315461 50.7069937,27.8532738 C48.8420441,25.9726426 46.3625255,24.936202 43.7251063,24.9338431 L43.7251063,24.9338431 Z M74.8302649,24.9246096 L74.797642,24.9246096 C72.1884965,24.9246096 69.7218924,25.9498686 67.8480845,27.8134665 C65.9666352,29.6847339 64.9271111,32.1582562 64.9201251,34.7791712 C64.9136897,37.4055924 65.9386167,39.8869809 67.8069385,41.7651312 C69.6747705,43.6441665 72.148918,44.6818148 74.7722687,44.6864362 L74.7722687,44.6864362 L74.789119,44.6864362 C77.4065917,44.6864362 79.8833843,43.6720915 81.7647356,41.828454 C83.6484382,39.9826534 84.6879622,37.5476754 84.69229,34.9714994 C84.7022654,29.3559273 80.3702785,24.9424068 74.8302649,24.9246096 L74.8302649,24.9246096 Z M59.6335937,-3.73034936e-14 L59.8206972,0.0163987501 C60.0691662,0.0493965427 60.3123013,0.130782536 60.5342121,0.264030503 L60.5342121,0.264030503 L88.1481481,16.8480702 L86.2107793,20 L59.6296296,4.03585387 L33.0485767,20 L31.1111111,16.8480702 L58.7251439,0.264030503 C59.0025324,0.0974705438 59.3130838,0.0119449196 59.6256656,0.000668915497 L59.6256656,0.000668915497 L59.6335937,-3.73034936e-14 Z" id="Combined-Shape"></path>
            </g>
        </g>
    </g>
</svg>