<?xml version="1.0" encoding="UTF-8"?>
<svg width="118px" height="29px" viewBox="0 0 118 29" version="1.1" xmlns="http://www.w3.org/2000/svg" xmlns:xlink="http://www.w3.org/1999/xlink">
    <!-- Generator: Sketch 64 (93537) - https://sketch.com -->
    <title>Group 9</title>
    <desc>Created with Sketch.</desc>
    <defs>
        <polygon id="path-1" points="0.062509797 0.0414492857 87.0679612 0.0414492857 87.0679612 18.6428571 0.062509797 18.6428571"></polygon>
        <polygon id="path-3" points="0 0.0828675 28.2554072 0.0828675 28.2554072 26.8042961 0 26.8042961"></polygon>
    </defs>
    <g id="Home-Page" stroke="none" stroke-width="1" fill="none" fill-rule="evenodd">
        <g id="Home-Page-Video" transform="translate(-61.000000, -3103.000000)">
            <g id="Group-9" transform="translate(61.000000, 3103.000000)">
                <g id="Group-3" transform="translate(30.932039, 10.274286)">
                    <mask id="mask-2" fill="white">
                        <use xlink:href="#path-1"></use>
                    </mask>
                    <g id="Clip-2"></g>
                    <path d="M80.7878408,4.09109214 L82.5687763,4.09109214 L82.5687763,0.901092143 L84.9225274,0.901092143 L84.9225274,4.09109214 L87.0471523,4.09109214 L87.0471523,5.84134571 L84.9225274,5.84134571 L84.9225274,11.5171636 C84.9225274,11.765735 84.9329423,11.9728779 84.9537719,12.1592029 C84.9746016,12.3353779 85.0266757,12.490735 85.0994754,12.6150207 C85.1724833,12.7393064 85.2870464,12.8324171 85.4432688,12.8946636 C85.5994913,12.9568064 85.797373,12.9877743 86.0681585,12.9877743 C86.2347958,12.9877743 86.4013289,12.9877743 86.5680703,12.9775207 C86.7347075,12.9671636 86.9013447,12.9464493 87.067982,12.9050207 L87.067982,14.7175207 C86.8076113,14.7484886 86.5472406,14.7693064 86.3076996,14.8002743 C86.0577437,14.8314493 85.8077878,14.8418064 85.5474171,14.8418064 C84.9225274,14.8418064 84.4225116,14.7796636 84.0476819,14.665735 C83.6727481,14.5518064 83.3707181,14.375735 83.1624215,14.1478779 C82.9437102,13.9199171 82.8082132,13.6403779 82.7249988,13.2984886 C82.6519908,12.9568064 82.5999167,12.563235 82.589606,12.128235 L82.589606,5.86216357 L80.8086704,5.86216357 L80.8086704,4.09109214 L80.7878408,4.09109214 Z M74.7055813,13.1535921 C75.2263227,13.1535921 75.6845751,13.03956 76.0699237,12.8221636 C76.4551682,12.6046636 76.7676131,12.31456 77.0176731,11.9625207 C77.2676289,11.6103779 77.4445769,11.2064493 77.569659,10.7609886 C77.6842221,10.315735 77.746711,9.86002071 77.746711,9.39394929 C77.746711,8.938235 77.6842221,8.49287786 77.569659,8.03716357 C77.4550959,7.58144929 77.2676289,7.18777429 77.0176731,6.835735 C76.7676131,6.48359214 76.4551682,6.20384571 76.0699237,5.98644929 C75.6845751,5.76894929 75.2263227,5.65502071 74.7055813,5.65502071 C74.1848399,5.65502071 73.7265875,5.76894929 73.3412388,5.98644929 C72.9558902,6.20384571 72.6434454,6.49394929 72.3933853,6.835735 C72.1435336,7.18777429 71.9664816,7.58144929 71.8415036,8.03716357 C71.7269405,8.49287786 71.6643474,8.938235 71.6643474,9.39394929 C71.6643474,9.86002071 71.7269405,10.315735 71.8415036,10.7609886 C71.9560667,11.2064493 72.1435336,11.6103779 72.3933853,11.9625207 C72.6434454,12.31456 72.9558902,12.6046636 73.3412388,12.8221636 C73.7265875,13.0500207 74.1848399,13.1535921 74.7055813,13.1535921 L74.7055813,13.1535921 Z M74.7055813,15.0074171 C73.8514613,15.0074171 73.091283,14.8625207 72.424734,14.5828779 C71.758185,14.303235 71.1956801,13.9096636 70.7270129,13.4228779 C70.2688646,12.925735 69.9147605,12.3353779 69.6752194,11.6518064 C69.4356784,10.9681314 69.3107004,10.2121636 69.3107004,9.39394929 C69.3107004,8.58598857 69.4356784,7.84037786 69.6752194,7.15680643 C69.9147605,6.473235 70.2688646,5.88287786 70.7270129,5.385735 C71.1853695,4.88859214 71.758185,4.50537786 72.424734,4.225735 C73.091283,3.94609214 73.8514613,3.80109214 74.7055813,3.80109214 C75.5595972,3.80109214 76.3198796,3.94609214 76.9864286,4.225735 C77.6528734,4.50537786 78.2153783,4.89894929 78.6840455,5.385735 C79.142298,5.88287786 79.4964021,6.473235 79.735839,7.15680643 C79.9754842,7.84037786 80.100358,8.58598857 80.100358,9.39394929 C80.100358,10.2121636 79.9754842,10.9681314 79.735839,11.6518064 C79.4964021,12.3353779 79.142298,12.925735 78.6840455,13.4228779 C78.225689,13.9199171 77.6528734,14.303235 76.9864286,14.5828779 C76.3198796,14.8625207 75.5595972,15.0074171 74.7055813,15.0074171 L74.7055813,15.0074171 Z M65.1343545,14.7175207 L67.4881056,14.7175207 L67.4881056,0.0414492857 L65.1343545,0.0414492857 L65.1343545,14.7175207 Z M60.676704,14.7175207 L63.0305592,14.7175207 L63.0305592,4.09109214 L60.676704,4.09109214 L60.676704,14.7175207 Z M60.676704,2.25787786 L63.0305592,2.25787786 L63.0305592,0.0414492857 L60.676704,0.0414492857 L60.676704,2.25787786 Z M56.5212918,9.41456 C56.5212918,8.938235 56.4586987,8.47216357 56.3338249,8.01634571 C56.208847,7.560735 56.0213801,7.16716357 55.7714242,6.81502071 C55.5213642,6.46277429 55.2089193,6.183235 54.8444004,5.97609214 C54.4695707,5.76894929 54.0425628,5.65502071 53.5634807,5.65502071 C52.574072,5.65502071 51.8241003,5.99670286 51.3242927,6.68037786 C50.8243809,7.36394929 50.5743209,8.27527429 50.5743209,9.41456 C50.5743209,9.953235 50.636914,10.4502743 50.7723068,10.9060921 C50.9076996,11.3618064 51.0950623,11.7553779 51.365952,12.0868064 C51.6263227,12.4181314 51.9387675,12.67706 52.3032865,12.8635921 C52.6678055,13.0603779 53.0948134,13.1535921 53.5738955,13.1535921 C54.1153624,13.1535921 54.5633041,13.03956 54.938238,12.8221636 C55.3130676,12.6046636 55.6152018,12.31456 55.8547428,11.9728779 C56.0941797,11.620735 56.2713359,11.22706 56.3754842,10.7818064 C56.4692177,10.3364493 56.5212918,9.88063143 56.5212918,9.41456 L56.5212918,9.41456 Z M48.2935778,4.09109214 L50.5222468,4.09109214 L50.5222468,5.53063143 L50.5640102,5.53063143 C50.8972847,4.90920286 51.355433,4.47430643 51.9491823,4.20502071 C52.5428275,3.935735 53.1780279,3.80109214 53.8759255,3.80109214 C54.7195266,3.80109214 55.4485645,3.94609214 56.0734542,4.24644929 C56.6983439,4.53644929 57.2190853,4.94037786 57.6356784,5.458235 C58.0522715,5.97609214 58.3543015,6.57680643 58.5625981,7.26037786 C58.7708946,7.94394929 58.8750429,8.67930643 58.8750429,9.45609214 C58.8750429,10.170735 58.7813094,10.86456 58.5937384,11.5275207 C58.4063756,12.200735 58.1250711,12.7910921 57.7502415,13.3089493 C57.3753077,13.8268064 56.8962256,14.2306314 56.3129952,14.5413457 C55.7296607,14.85206 55.0526969,15.0074171 54.2612741,15.0074171 C53.9175848,15.0074171 53.5738955,14.9764493 53.230102,14.9143064 C52.8865169,14.85206 52.5531382,14.7484886 52.2406934,14.6139493 C51.9282485,14.4793064 51.6263227,14.303235 51.365952,14.085735 C51.0950623,13.8681314 50.8764551,13.6196636 50.6889882,13.3400207 L50.6473289,13.3400207 L50.6473289,18.6428779 L48.2935778,18.6428779 L48.2935778,4.09109214 Z M40.3677896,4.09109214 L42.1488293,4.09109214 L42.1488293,0.901092143 L44.5025804,0.901092143 L44.5025804,4.09109214 L46.6272053,4.09109214 L46.6272053,5.84134571 L44.5025804,5.84134571 L44.5025804,11.5171636 C44.5025804,11.765735 44.5129952,11.9728779 44.5337207,12.1592029 C44.5546545,12.3353779 44.6067287,12.490735 44.6796325,12.6150207 C44.7525363,12.7393064 44.8670994,12.8324171 45.0233218,12.8946636 C45.1795442,12.9568064 45.3774259,12.9877743 45.6482115,12.9877743 C45.8148487,12.9877743 45.981486,12.9877743 46.1480191,12.9775207 C46.3147605,12.9671636 46.4813977,12.9464493 46.648035,12.9050207 L46.648035,14.7175207 C46.3876643,14.7484886 46.1272936,14.7693064 45.8876484,14.8002743 C45.6377966,14.8314493 45.3878408,14.8418064 45.1274701,14.8418064 C44.5025804,14.8418064 44.0026687,14.7796636 43.6277349,14.665735 C43.2528011,14.5518064 42.9507711,14.375735 42.7424745,14.1478779 C42.5237631,13.9199171 42.3883703,13.6403779 42.3050517,13.2984886 C42.2321479,12.9568064 42.1800738,12.563235 42.169659,12.128235 L42.169659,5.86216357 L40.3887234,5.86216357 L40.3887234,4.09109214 L40.3677896,4.09109214 Z M32.5984321,11.3100207 C32.6713359,11.9935921 32.9317066,12.4699171 33.3795442,12.7496636 C33.8377966,13.0189493 34.3792635,13.1639493 35.0146722,13.1639493 C35.2333836,13.1639493 35.4833395,13.1431314 35.7645398,13.1121636 C36.045636,13.0810921 36.3165257,13.0085921 36.5560667,12.9153779 C36.8060226,12.8221636 37.0039043,12.67706 37.1705416,12.490735 C37.326764,12.3043064 37.3995636,12.0660921 37.389253,11.765735 C37.3788381,11.4653779 37.264275,11.2168064 37.0559785,11.0303779 C36.8476819,10.8335921 36.5873112,10.6885921 36.2644515,10.5643064 C35.9414877,10.4502743 35.5769688,10.3467029 35.1603756,10.2639493 C34.7437825,10.1810921 34.3271894,10.0877743 33.9002856,9.99466357 C33.4628628,9.90144929 33.0358549,9.77706 32.6296766,9.64252071 C32.2234983,9.50787786 31.8589793,9.32144929 31.5361197,9.083235 C31.21326,8.85537786 30.9528893,8.55502071 30.7654224,8.19252071 C30.5675407,7.83002071 30.4737031,7.38466357 30.4737031,6.84609214 C30.4737031,6.26609214 30.6196148,5.78956 30.9008152,5.39609214 C31.1820155,5.00252071 31.5465345,4.69180643 31.9735425,4.45359214 C32.4109652,4.21537786 32.8900473,4.04966357 33.4212035,3.94609214 C33.9523598,3.85287786 34.4626863,3.80109214 34.9417684,3.80109214 C35.4937543,3.80109214 36.0249105,3.863235 36.5248222,3.97716357 C37.024734,4.09109214 37.4829864,4.27752071 37.8891647,4.54670286 C38.295343,4.80563143 38.6286175,5.14752071 38.899403,5.56180643 C39.1700844,5.97609214 39.3368258,6.48359214 39.4097296,7.07394929 L36.9518302,7.07394929 C36.8372671,6.51456 36.5873112,6.13144929 36.1811329,5.94491714 C35.7749546,5.748235 35.3062874,5.65502071 34.785546,5.65502071 C34.6189087,5.65502071 34.421027,5.66537786 34.1919008,5.69644929 C33.9626704,5.72752071 33.7543739,5.77930643 33.5460773,5.85180643 C33.3482997,5.92430643 33.1815583,6.038235 33.0358549,6.183235 C32.9004621,6.328235 32.8275583,6.51456 32.8275583,6.75287786 C32.8275583,7.04287786 32.9317066,7.270735 33.1294842,7.44670286 C33.3274701,7.62287786 33.5878408,7.76787786 33.9105963,7.89216357 C34.2335601,8.00609214 34.5980791,8.10966357 35.0146722,8.19252071 C35.4312653,8.27527429 35.8582733,8.36859214 36.295696,8.46180643 C36.7225998,8.55502071 37.1391929,8.67930643 37.5557861,8.81394929 C37.9723792,8.94848857 38.3368981,9.13502071 38.659862,9.373235 C38.9827216,9.61144929 39.2430923,9.90144929 39.4409741,10.2535921 C39.6387516,10.6056314 39.7428999,11.0510921 39.7428999,11.5689493 C39.7428999,12.200735 39.5971965,12.7288457 39.3055813,13.1743064 C39.013862,13.6092029 38.6390323,13.9717029 38.1806757,14.2410921 C37.7225274,14.5103779 37.2017861,14.7175207 36.6393853,14.8418064 C36.0769846,14.9660921 35.5145839,15.028235 34.9625981,15.028235 C34.2856342,15.028235 33.6607446,14.9556314 33.087929,14.8002743 C32.5151135,14.6449171 32.0152018,14.4171636 31.5986086,14.1168064 C31.1820155,13.8060921 30.848741,13.4228779 30.6092,12.9671636 C30.3695548,12.5114493 30.244681,11.9625207 30.2238514,11.3306314 L32.5984321,11.3306314 L32.5984321,11.3100207 Z M28.5887234,14.7175207 L26.2766316,14.7175207 L26.2766316,13.2364493 L26.2349723,13.2364493 C25.9433571,13.7750207 25.5163492,14.1996636 24.9435336,14.520735 C24.3707181,14.8418064 23.7874877,15.0074171 23.1938425,15.0074171 C21.7878408,15.0074171 20.7671876,14.665735 20.142298,13.9717029 C19.5174083,13.2778779 19.2049635,12.2318064 19.2049635,10.8335921 L19.2049635,4.09109214 L21.5587146,4.09109214 L21.5587146,10.6056314 C21.5587146,11.5377743 21.7357666,12.200735 22.1002856,12.5839493 C22.4543898,12.9671636 22.9647163,13.1639493 23.6104357,13.1639493 C24.1103474,13.1639493 24.5165257,13.0913457 24.8498002,12.9359886 C25.1830747,12.7806314 25.4538602,12.5839493 25.6517419,12.3250207 C25.8600385,12.0764493 26.0058461,11.765735 26.0995795,11.4135921 C26.193313,11.0614493 26.2349723,10.678235 26.2349723,10.2639493 L26.2349723,4.10144929 L28.5887234,4.10144929 L28.5887234,14.7175207 Z M11.5084056,4.09109214 L13.7163492,4.09109214 L13.7163492,6.14180643 L13.7580085,6.14180643 C13.8309123,5.85180643 13.966305,5.57216357 14.1641868,5.30287786 C14.3620685,5.03359214 14.6016095,4.77466357 14.8828099,4.55716357 C15.1640102,4.32930643 15.4764551,4.153235 15.8201444,4.008235 C16.1638337,3.87359214 16.5179379,3.80109214 16.872042,3.80109214 C17.1428275,3.80109214 17.3407093,3.81144929 17.4448575,3.82180643 C17.5490058,3.83216357 17.6531541,3.85287786 17.7677172,3.863235 L17.7677172,6.12109214 C17.60108,6.09002071 17.4344427,6.06930643 17.2573906,6.04848857 C17.0803386,6.02787786 16.9137013,6.01752071 16.7470641,6.01752071 C16.3513006,6.01752071 15.9763668,6.10027429 15.6222627,6.25563143 C15.2681585,6.41098857 14.9661285,6.64930643 14.7057578,6.94966357 C14.4453871,7.26037786 14.2370906,7.633235 14.0808681,8.08894929 C13.9246457,8.54466357 13.8517419,9.06252071 13.8517419,9.65287786 L13.8517419,14.7071636 L11.4979908,14.7071636 L11.4979908,4.09109214 L11.5084056,4.09109214 Z M0.0729246249,0.0414492857 L12.0187322,0.0414492857 L12.0187322,2.25787786 L7.32164484,2.25787786 L7.32164484,14.7175207 L4.73876752,14.7175207 L4.73876752,2.25787786 L0.062509797,2.25787786 L0.062509797,0.0414492857 L0.0729246249,0.0414492857 Z" id="Fill-1" fill="#000000" mask="url(#mask-2)"></path>
                </g>
                <g id="Group-6" transform="translate(0.000000, 0.020714)">
                    <mask id="mask-4" fill="white">
                        <use xlink:href="#path-3"></use>
                    </mask>
                    <g id="Clip-5"></g>
                    <polygon id="Fill-4" fill="#00B67A" mask="url(#mask-4)" points="28.2554072 10.2950104 17.4656455 10.2950104 14.1329006 0.0828675 10.7897409 10.2950104 -2.08296558e-05 10.2846532 8.73801977 16.6025104 5.39486002 26.8042961 14.1329006 20.4967961 22.8605264 26.8042961 19.5277815 16.6025104"></polygon>
                </g>
                <polygon id="Fill-7" fill="#005128" points="20.2776907 18.9328364 19.5278231 16.6231936 14.1329423 20.5174793"></polygon>
            </g>
        </g>
    </g>
</svg>