<?xml version="1.0" encoding="UTF-8"?>
<svg width="26px" height="26px" viewBox="0 0 26 26" version="1.1" xmlns="http://www.w3.org/2000/svg" xmlns:xlink="http://www.w3.org/1999/xlink">
    <!-- Generator: Sketch 62 (91390) - https://sketch.com -->
    <title>Group 17</title>
    <desc>Created with Sketch.</desc>
    <g id="Product-Page" stroke="none" stroke-width="1" fill="none" fill-rule="evenodd">
        <g id="Single-Product-Page-Update-Copy-4" transform="translate(-712.000000, -640.000000)">
            <g id="Group-15" transform="translate(712.000000, 640.000000)">
                <g id="Group-17">
                    <circle id="Oval" fill="#DC3255" cx="13" cy="13" r="13"></circle>
                    <path d="M15.4696699,9.46966991 C15.7625631,9.1767767 16.2374369,9.1767767 16.5303301,9.46966991 C16.7965966,9.73593648 16.8208027,10.1526002 16.6029482,10.4462117 L16.5303301,10.5303301 L10.5303301,16.5303301 C10.2374369,16.8232233 9.76256313,16.8232233 9.46966991,16.5303301 C9.20340335,16.2640635 9.1791973,15.8473998 9.39705176,15.5537883 L9.46966991,15.4696699 L15.4696699,9.46966991 Z" id="Line" fill="#FFFFFF" fill-rule="nonzero"></path>
                    <path d="M9.46966991,9.46966991 C9.73593648,9.20340335 10.1526002,9.1791973 10.4462117,9.39705176 L10.5303301,9.46966991 L16.5303301,15.4696699 C16.8232233,15.7625631 16.8232233,16.2374369 16.5303301,16.5303301 C16.2640635,16.7965966 15.8473998,16.8208027 15.5537883,16.6029482 L15.4696699,16.5303301 L9.46966991,10.5303301 C9.1767767,10.2374369 9.1767767,9.76256313 9.46966991,9.46966991 Z" id="Line" fill="#FFFFFF" fill-rule="nonzero"></path>
                </g>
            </g>
        </g>
    </g>
</svg>