<?xml version="1.0" encoding="UTF-8"?>
<svg width="212px" height="111px" viewBox="0 0 212 111" version="1.1" xmlns="http://www.w3.org/2000/svg" xmlns:xlink="http://www.w3.org/1999/xlink">
    <!-- Generator: Sketch 64 (93537) - https://sketch.com -->
    <title>Group 8</title>
    <desc>Created with Sketch.</desc>
    <defs>
        <polygon id="path-1" points="1.54927397e-05 0.157689034 211.942082 0.157689034 211.942082 110.636589 1.54927397e-05 110.636589"></polygon>
    </defs>
    <g id="Home-Page" stroke="none" stroke-width="1" fill="none" fill-rule="evenodd">
        <g id="Home-Page-Video" transform="translate(-825.000000, -1077.000000)">
            <g id="Group-8" transform="translate(825.000000, 1077.000000)">
                <g id="Group-3" transform="translate(0.000000, 0.023980)">
                    <mask id="mask-2" fill="white">
                        <use xlink:href="#path-1"></use>
                    </mask>
                    <g id="Clip-2"></g>
                    <path d="M100.597497,104.193865 C100.674174,104.417682 100.701311,104.657667 100.73628,104.97577 C100.754676,105.143814 100.775074,105.329117 100.804944,105.538582 C100.879799,106.060336 100.923146,106.778839 100.94828,107.435574 C100.306634,106.672381 99.7085175,105.799823 99.7085175,105.48717 C99.7085175,105.128009 100.205916,104.539764 100.597497,104.193865 M159.187085,59.4308897 C147.367538,69.5635002 108.666792,102.759404 106.918339,104.503611 C106.110225,105.309497 105.335624,106.178422 104.652088,106.945248 C103.24349,108.525045 101.786445,110.158616 101.126951,109.876665 L101.108555,109.869399 C96.8029883,108.297958 66.135112,97.2649944 41.4930261,88.3997097 C23.1898131,81.8149208 7.38269966,76.1281237 6.76764467,75.8981303 C6.1032323,75.6494249 5.50639038,75.5778471 5.02702268,75.5204396 C4.38774433,75.4435935 4.04442818,75.390546 3.8420811,75.1216753 C3.3144488,74.3699273 2.7558543,73.7093774 2.26300893,73.1264003 C1.57838007,72.3168815 0.987184192,71.617636 0.79303299,71.0366573 C0.580486598,70.4009961 0.965146392,69.9626278 2.22330447,69.221235 L2.33440412,69.6332612 C2.36773402,69.6243594 5.71893677,68.7409011 11.7286997,68.4207997 C19.1594454,68.0253054 26.3574282,68.7012972 32.1475416,69.599834 C32.2054591,69.8672514 32.6491292,70.9765247 36.035301,72.0431057 L36.2238062,72.10233 C44.812356,74.8003021 74.7673732,85.0053987 99.6646241,103.04735 C100.027428,103.358368 100.25582,103.594901 100.405167,103.813813 L100.203913,103.573101 C100.078607,103.677016 98.9799952,104.615338 98.9799952,105.48717 C98.9799952,106.290693 100.30627,107.823075 100.712603,108.273615 L100.967586,108.044711 C100.983067,108.655665 100.983432,109.110202 100.983432,109.120557 L101.711954,109.120557 C101.711954,109.023001 101.709768,106.718161 101.526181,105.435575 C101.497404,105.235194 101.478098,105.057703 101.460432,104.896744 C101.353703,103.924086 101.258813,103.453199 100.127782,102.486173 L100.104834,102.468006 C75.115789,84.3553856 45.0593251,74.1161352 36.4427271,71.4092612 L36.2545863,71.350037 C34.2515141,70.7190992 33.4188131,70.1041483 33.0802323,69.7478946 C34.7592942,70.0220337 36.3079505,70.3121597 37.6941464,70.5952007 C40.4767375,71.3040746 42.5384557,71.7524347 44.9230914,71.7524347 C49.9384213,71.7524347 56.381655,69.7684232 73.9588955,64.0485624 C98.3607512,56.1079748 115.423109,46.5699682 116.907473,45.7281123 C117.254978,45.7611761 118.331552,45.8387489 120.211504,45.7729846 C119.94705,45.9724576 119.771294,46.1050763 119.705363,46.154672 L120.144662,46.7343791 C120.368682,46.5656082 142.556741,29.8333119 144.168414,28.7616442 L143.764267,28.1570484 C143.533871,28.3101957 142.905521,28.7663676 141.994504,29.438181 C141.855902,29.2060075 141.703641,29.0054445 141.576878,28.8552039 C149.408129,22.2137342 154.010569,16.4644429 156.499748,12.7934494 C159.487054,8.38796661 160.995823,4.67173748 160.703868,2.48044124 L161.988071,2.48044124 C182.351727,2.9882072 208.120473,10.0720419 211.144023,10.922073 C211.100858,11.4676262 211.042394,12.7473054 211.162964,15.031798 C208.627707,17.1102776 182.668452,39.3010124 159.187085,59.4308897 M4.07939725,68.2020697 C4.80354845,67.8167489 114.041284,7.53630049 124.36481,1.44819574 C124.600669,1.30903699 124.866397,1.2365509 125.137772,1.2365509 C125.161813,1.2365509 125.185854,1.23709591 125.209896,1.23818592 C128.050586,1.37280295 133.521607,1.24054763 139.314088,1.10084386 C147.262995,0.909000982 156.272267,0.691542717 158.829562,1.20185205 C159.409466,1.31739378 159.76717,1.66801571 159.923438,2.27315646 C160.412095,4.16633322 158.906421,7.94705499 155.896349,12.3863283 C151.377689,19.0501434 145.202188,24.8515738 140.817212,28.5449126 L140.50759,28.8065165 L140.801184,29.0859241 C140.805191,29.0897391 141.151603,29.4231025 141.405493,29.8734609 C136.442253,33.5475427 125.342122,41.9063332 121.239449,44.9983463 C118.308057,45.1633021 116.887985,44.9958029 116.873779,44.9939863 L116.752115,44.9789077 L116.646298,45.0401303 C116.473456,45.1398668 99.0783457,55.1098831 73.7330536,63.3576736 C47.9890777,71.7351761 46.3132942,72.0403807 37.8573354,69.8874167 C26.3414007,67.5335264 17.2549058,67.3970926 11.6600364,67.6968471 C7.43624605,67.9233889 4.5554866,68.4133512 3.14397457,68.7038406 C3.42736976,68.5496033 3.73863093,68.3831941 4.07939725,68.2020697 M211.897315,10.7069764 L211.942119,10.3945051 L211.637961,10.3067588 C211.360758,10.2266426 183.658514,2.29386678 161.997177,1.75394534 L160.518277,1.75394534 C160.242349,1.07159509 159.713806,0.637223568 158.972353,0.489344681 C156.33583,-0.0367698854 147.673518,0.172331588 139.296421,0.374347954 C133.517418,0.513870049 128.059146,0.64558036 125.2445,0.512416694 C124.807569,0.491524714 124.373552,0.598891326 123.994174,0.82252635 C113.673562,6.90899607 4.46059656,67.1756376 3.73644536,67.5609584 C0.981720275,69.0263038 -0.40101512,69.7618831 0.101847423,71.2664691 C0.340074227,71.9795214 0.973160137,72.728181 1.70605361,73.5949257 C2.18906392,74.1660943 2.73654845,74.8133823 3.25216014,75.5480534 C3.65812921,76.0879748 4.28083368,76.1626409 4.93996426,76.2418488 C5.40366873,76.2974396 5.92929759,76.3606606 6.51193333,76.5784822 C7.13117732,76.8101106 22.9402942,82.4976344 41.2458749,89.0833316 C65.8706584,97.9422579 96.5130364,108.96632 100.849566,110.548479 C100.99272,110.608248 101.138971,110.636589 101.289047,110.636589 C102.335751,110.636589 103.569322,109.253176 105.196294,107.427944 C105.906421,106.631687 106.64059,105.808361 107.433404,105.017373 C108.80849,103.645769 135.314682,80.854253 159.662081,59.981893 C186.689713,36.8119601 210.548456,16.4339224 211.76181,15.4830648 L211.910975,15.3662514 L211.900411,15.1773152 C211.72338,11.9986458 211.895676,10.7191483 211.897315,10.7069764" id="Fill-1" fill="#14145A" mask="url(#mask-2)"></path>
                </g>
                <path d="M2.13821306,71.514793 C2.71757045,71.7366113 60.4682646,93.8036293 95.049945,104.223822 L95.260488,103.52821 C60.704488,93.115829 2.97819931,71.0578944 2.39920619,70.8364394 L2.13821306,71.514793 Z" id="Fill-4" fill="#14145A"></path>
                <path d="M102.022778,102.508936 L102.49395,103.063209 C103.475634,102.23298 200.760685,19.9641766 209.757208,12.9646365 L209.309166,12.3914696 C200.30117,19.4000931 103.004462,101.678707 102.022778,102.508936" id="Fill-6" fill="#14145A"></path>
            </g>
        </g>
    </g>
</svg>