<?xml version="1.0" encoding="UTF-8"?>
<svg width="207px" height="181px" viewBox="0 0 207 181" version="1.1" xmlns="http://www.w3.org/2000/svg" xmlns:xlink="http://www.w3.org/1999/xlink">
    <!-- Generator: Sketch 64 (93537) - https://sketch.com -->
    <title>Group 10</title>
    <desc>Created with Sketch.</desc>
    <defs>
        <polygon id="path-1" points="8.29659319e-05 0.144360721 177.956407 0.144360721 177.956407 206.792502 8.29659319e-05 206.792502"></polygon>
    </defs>
    <g id="Home-Page" stroke="none" stroke-width="1" fill="none" fill-rule="evenodd">
        <g id="Home-Page-Video" transform="translate(-1191.000000, -1034.000000)">
            <g id="Group-10" transform="translate(1300.980962, 1126.500000) rotate(-345.000000) translate(-1300.980962, -1126.500000) translate(1212.000000, 1023.000000)">
                <g id="Group-3" transform="translate(0.000000, 0.063054)">
                    <mask id="mask-2" fill="white">
                        <use xlink:href="#path-1"></use>
                    </mask>
                    <g id="Clip-2"></g>
                    <path d="M155.363124,42.1947307 C153.5638,43.1372236 151.023176,43.7198519 148.333421,44.3364962 C146.081933,44.8527517 143.786058,45.3814521 141.776623,46.1522056 L141.763556,46.1011816 C136.230143,47.5165804 132.483816,46.7205222 130.505286,45.9665693 C130.957866,45.9545393 131.44052,45.9252938 131.949723,45.8790403 C135.387209,45.5515323 138.219874,44.1574972 139.526587,42.1499291 C140.502889,40.6503198 140.654716,38.8605373 139.978336,36.8307758 C138.585753,32.6536485 132.77233,33.2507958 129.333807,34.0115934 C132.882883,31.3046224 141.3284,25.8133148 148.569874,28.4331715 L148.63832,28.4578539 L148.710916,28.4578539 C151.139121,28.4578539 153.734503,28.883884 155.832089,29.6266365 C158.609374,30.610405 160.557206,32.098399 161.621244,34.0493429 C163.806567,38.0557677 163.162959,39.6841816 163.092023,39.8397427 C160.813778,39.8907667 158.298044,40.682884 155.363124,42.1947307 M138.288528,48.045903 C138.278157,48.0541996 138.268616,48.0618739 138.258245,48.0699631 C138.49055,47.8115242 138.645489,47.6385403 138.74007,47.5325513 C138.851452,47.5180323 138.966567,47.4997798 139.079608,47.483394 C138.803954,47.6613559 138.537218,47.8467848 138.288528,48.045903 M136.28739,56.3827347 C137.987569,61.4832727 133.668363,65.7284321 128.633575,67.6729461 C128.369536,67.7747868 128.07231,67.7355854 127.838346,67.5682016 C126.196243,66.3936114 125.183644,64.6507046 124.873144,64.062891 C126.72681,61.2818729 128.750349,58.560383 130.972799,56.1157918 C131.678217,55.3398529 132.322655,54.6304942 132.915447,53.9773449 C133.52172,54.0262948 135.502117,54.3421876 136.28739,56.3827347 M117.132423,75.4279792 C116.664702,76.2640683 116.216064,77.0665563 115.785886,77.8254872 C114.846089,79.4839762 113.528175,81.6732397 112.10365,83.9873669 C112.056567,84.0008489 112.010521,84.0145383 111.967379,84.0290573 L112.006373,84.145417 C108.496084,89.8426876 104.379729,96.2393609 103.668296,97.3432226 C103.518543,97.3575343 103.368167,97.3714311 103.223806,97.3903058 C105.12103,94.7285513 111.108059,86.131414 115.065949,78.2156345 C120.038719,68.2700934 129.404743,55.1676986 133.655503,50.529903 C135.017389,49.1680172 135.686924,48.2352727 135.99929,47.7227507 C136.480285,47.7200543 136.985755,47.6984832 137.513004,47.6580373 C136.526746,48.7552617 134.401989,51.1102497 130.358852,55.5576385 C124.864433,61.6017066 120.577168,69.2679661 117.132423,75.4279792 M114.915158,85.8957908 C115.645881,87.9056405 114.892965,91.2649311 114.200199,92.1310954 C113.473832,93.0391575 110.406375,94.5339962 107.048743,94.9073429 C106.694064,94.9579521 106.398913,94.9865754 106.155408,95.0027537 C107.827586,92.3860082 110.344358,88.4214812 112.624054,84.7245192 C113.250654,84.6216415 114.448475,84.6127226 114.915158,85.8957908 M96.4830319,100.669949 C95.730116,101.287008 95.080078,101.820272 94.404113,102.127453 C94.3512222,102.151306 94.2960499,102.170181 94.2423295,102.192581 C96.6833946,99.0633138 104.945557,88.3789611 108.102203,83.117884 C111.823225,76.9159731 115.089179,68.8684852 113.095508,64.8811425 C111.041271,60.7722547 99.6697533,56.9630814 88.2642192,56.5627707 C82.0208255,56.3495483 76.8393956,59.6264952 73.5898275,62.4187136 C70.0859687,65.4293399 68.0754968,68.4445293 67.9881752,68.5766525 C65.3129387,72.7641505 62.9820108,77.4741265 61.593576,81.4985964 C59.8214236,86.6350172 59.5202573,90.5839882 60.6992032,93.2362016 C61.7709156,95.6476064 65.4637293,98.4804782 71.6749737,101.655999 C74.763588,103.235048 77.7377092,104.510857 79.3623896,105.180599 C78.056091,105.538805 76.864078,105.884773 75.7763946,106.218296 C74.9098154,105.859883 70.0480118,103.829707 65.2046681,101.407931 C60.4986331,99.0552246 58.0530048,94.765886 57.6159818,93.9416194 C59.0768044,88.9026836 60.5328565,81.9387307 61.588598,76.6596084 C61.726114,75.9722357 61.7649006,75.352895 61.7356551,74.7893489 L61.9584186,74.91442 C64.3851721,70.5887838 67.127611,66.085393 70.7322733,62.4552186 C74.8399166,58.3183299 79.3267142,56.0850944 84.4492383,55.6277447 C90.0598094,55.1262156 95.4490689,56.0599972 99.7790609,56.8102166 C104.515171,57.6305423 108.256105,58.2780914 110.384596,56.7876084 C110.606737,56.616906 110.727245,56.3742307 110.724134,56.1045914 C110.711897,55.0550723 108.856571,53.649422 104.997618,50.8219431 C99.4888876,46.7854431 91.9443806,41.2572156 91.5641892,36.2973048 C91.4503184,34.8132517 91.9885599,33.4984491 93.209611,32.277398 C95.6958926,29.7911164 98.3425058,29.2261184 99.1348305,29.1080994 C99.1788024,29.2806685 99.2242263,29.4528228 99.271102,29.6245623 C97.7322914,30.1242246 92.1607142,32.2885984 92.9213044,37.2323309 L92.9256601,37.2561836 C93.6024547,40.4146966 96.7873094,43.6244411 102.662542,47.0683569 C104.731297,48.2811114 106.490175,49.433923 108.041845,50.4510854 C110.61773,52.1394421 112.842462,53.5977758 115.568515,54.7659361 C116.656613,55.2322046 117.849871,55.4584942 119.112612,55.4582868 C123.314007,55.4580794 128.276199,52.9531305 132.618429,48.4557547 L133.501394,47.5727898 C133.97347,47.6348068 134.47728,47.6808529 135.015522,47.704913 C134.665198,48.1991826 134.062451,48.9498168 133.056489,49.9561936 C128.184937,55.2705764 118.940873,68.6104611 114.323818,77.8445693 C109.902357,86.6877006 102.920773,96.4021816 102.046935,97.6068469 C99.4810058,98.2149872 97.8445028,99.5536425 96.4830319,100.669949 M90.540597,102.825404 C89.1210499,102.926622 87.5125479,103.041115 85.7580259,103.555919 C83.9087152,103.993357 82.2255439,104.415654 80.6892222,104.822601 C79.7214246,104.439091 75.9763425,102.923511 72.0466611,100.914076 C66.0973816,97.8721305 62.4356802,95.1004461 61.4573044,92.8991525 C59.1832082,87.7826435 63.4499387,77.2208729 68.6836371,69.0290242 C68.7632844,68.9085162 76.7871271,56.9817487 88.2349737,57.3922226 C93.7758535,57.5865703 99.4052994,58.5732427 104.086445,60.1701295 C108.473891,61.6670423 111.487006,63.5194641 112.353378,65.2522076 C113.156903,66.8588429 113.013786,69.5131305 111.94,72.9278008 C111.009952,75.8842918 109.394398,79.3516455 107.39077,82.6908168 C103.713513,88.8195102 93.0092483,102.422812 92.9016,102.559498 L92.9165339,102.571321 C92.1883004,102.705518 91.3995018,102.764217 90.540597,102.825404 M64.3387112,110.958347 C63.4663244,111.457594 62.8359908,111.818081 62.0878455,112.067394 C60.5498645,112.580123 59.4578255,112.618703 57.9461862,112.67263 C56.5177202,112.72324 54.7401752,112.786501 51.980106,113.297571 C49.6821571,113.722979 46.6972503,114.186551 43.9869607,114.583751 C44.366115,113.660755 45.2656731,111.884247 47.1734747,109.840174 C47.5524216,109.434263 47.9560509,109.010722 48.3758585,108.57038 C51.2068635,105.598748 54.7306341,101.900749 56.3829006,97.6781976 C56.4042643,97.6234401 56.4258355,97.5649491 56.4471992,97.5089471 C57.129594,98.8355723 58.6599006,101.310446 61.3538044,103.256205 C64.2092844,105.318323 68.2134277,107.377537 69.9496972,108.236857 C67.1406782,109.356067 65.549599,110.265581 64.3387112,110.958347 M57.2859848,95.0456886 C58.2527453,96.6537758 60.6782543,100.072594 64.833603,102.150269 C68.7717884,104.119258 72.7199297,105.829808 74.5482914,106.603258 C73.2027914,107.034473 72.0319347,107.44308 71.004609,107.829079 C70.0631531,107.3765 65.1519848,104.975881 61.8395699,102.583558 C58.6414407,100.273787 57.1399647,97.0910062 56.8441912,96.4081966 C56.9910409,95.9786405 57.1383054,95.5239872 57.2859848,95.0456886 M100.532184,54.2050864 C98.0417543,53.2470373 96.6414968,51.5576435 94.9288725,48.7747587 C94.6675299,48.3495583 94.3904236,47.9092166 94.1093766,47.4622377 C92.6753104,45.1815042 91.049593,42.5964932 91.049593,41.3175733 C91.049593,40.1371756 91.1076691,39.1175242 91.1839978,38.2870353 C92.9658986,43.0324792 99.5428154,47.853422 104.507289,51.4910633 C106.507391,52.9566565 109.143426,54.8885182 109.763181,55.775424 C108.441741,55.3251265 106.760229,55.1598168 105.123726,55.0001074 C103.460674,54.8377016 101.740998,54.669903 100.532184,54.2050864 M129.656545,45.1383619 C129.121207,45.1238429 128.632745,44.8444551 128.350246,44.3912537 C127.743351,43.4178559 126.968241,41.8692968 126.721418,40.0183269 C126.444311,37.9414822 126.650274,36.7266535 126.871793,36.072882 C126.983797,35.7426776 127.23871,35.4757347 127.567255,35.3369741 L127.626369,35.401895 C127.633835,35.3954651 127.687141,35.3471375 127.782344,35.2647938 C129.063961,34.8893729 131.474328,34.2911886 133.820398,34.2911886 L133.875363,34.2911886 C136.786844,34.3028038 138.575383,35.2455042 139.191197,37.0931555 C139.783781,38.8711154 139.662651,40.4200894 138.831332,41.6973499 C137.661098,43.4950142 135.059079,44.7492517 131.872772,45.0526996 C131.054936,45.1273689 130.309487,45.1549551 129.656545,45.1383619 M106.348096,44.535407 L106.665856,45.0587146 C109.934091,50.4515002 113.9009,52.7915543 117.061279,52.7915543 C118.109969,52.7915543 119.070299,52.5337377 119.886269,52.0440313 C122.609833,50.4100172 127.763885,46.9970062 128.97498,46.1924441 C129.632692,46.5537607 130.80106,47.0762387 132.492528,47.4085172 L132.026674,47.8741635 C126.615843,53.4785122 120.283469,55.8832798 115.895401,54.0036866 C113.236342,52.8637347 111.039819,51.4240683 108.496499,49.7570754 C106.936739,48.7347277 105.168735,47.5756936 103.081935,46.3525683 C97.4265619,43.0372497 94.3703044,40.0087858 93.7393485,37.0941926 C93.0911772,32.8172988 98.0884226,30.8802517 99.4986361,30.4222798 C101.179941,36.02891 104.287637,41.1445894 106.348096,44.535407 M103.380197,11.9430703 C115.101417,-0.384007816 118.296849,-0.386081964 123.827151,2.68635391 C129.303732,5.72871463 142.262181,16.9844952 141.453471,24.0608669 C141.28505,25.7438309 140.831434,27.0125874 140.69537,27.3643629 C138.619769,27.8345723 136.434862,28.674395 134.177773,29.8811345 C130.805623,31.6837768 128.211693,33.8041786 127.364404,34.5295082 C126.762278,34.7429381 126.287713,35.2112808 126.086106,35.8065613 C125.836171,36.5441285 125.600755,37.8923248 125.899018,40.1280493 C126.165131,42.1254541 126.996035,43.7876766 127.64628,44.8303509 C127.838969,45.1396064 128.0972,45.3920303 128.394011,45.5824371 C126.99645,46.5102036 122.085696,49.7570754 119.45941,51.3328058 C115.638621,53.6247397 110.3819,49.5894842 107.375422,44.6287437 L107.05704,44.1046064 C102.781805,37.0684731 93.885576,22.4272677 103.380197,11.9430703 M111.998491,104.371682 C112.435514,104.371682 112.983296,104.349488 113.563228,104.32605 C114.921588,104.270463 117.74803,104.155763 118.096487,104.620787 C118.402424,105.028357 118.721013,106.430689 118.524798,107.700275 C118.44681,108.203878 118.253085,108.876317 117.772505,109.219588 C116.728379,109.965245 114.50904,111.216371 111.376246,111.216371 L111.334971,111.218445 C110.075133,111.347665 109.156493,108.093533 108.891831,106.441474 C109.083275,105.144094 110.23982,104.371682 111.998491,104.371682 M56.1690559,73.1843729 C55.5777162,74.0409962 52.4289517,78.3531505 47.6841301,80.3822898 C47.7919858,80.133392 47.9139457,79.8471595 48.0533285,79.5196515 C49.1395599,76.9669972 51.3632543,71.7403509 53.1130058,70.6142958 C55.4385409,71.6777116 56.032577,72.8114411 56.1690559,73.1843729 M175.626101,98.3338359 C174.873185,97.3527637 174.22294,96.5054741 174.22294,95.6602587 C174.22294,95.0091836 174.719698,94.204414 175.295067,93.2724992 C176.519229,91.2891986 178.195763,88.5731014 176.899628,84.5403349 C175.666547,80.7046124 173.109744,79.1210002 171.417862,78.0731405 C170.578246,77.5531515 169.915141,77.1422627 169.864117,76.7340703 C169.789655,76.1383749 170.36295,74.9903339 170.969845,73.774883 C171.872307,71.967885 172.89507,69.9196635 172.770206,68.0467076 C172.696781,66.9472016 172.402252,65.8593108 172.117472,64.8073028 C171.587319,62.848892 171.086413,60.9991665 172.087189,59.3726194 L172.107931,59.3348699 C174.565382,54.2152497 174.532817,47.0756164 172.039691,44.3559932 C169.444102,41.5245733 166.889374,40.044876 163.962128,39.8588248 C164.173484,39.0708559 164.274495,37.1810994 162.349685,33.6519361 C161.184636,31.5161856 159.084976,29.8987647 156.108988,28.84489 C153.168468,27.8032527 150.285194,27.6335874 148.783303,27.628402 C146.641745,26.8688489 144.235941,26.7219992 141.644085,27.1739561 C141.851915,26.5430002 142.146236,25.4710804 142.278567,24.1494331 C142.755414,19.9752096 138.943751,14.8983168 135.662241,11.3745463 C131.602303,7.01530882 126.890253,3.43885491 124.229951,1.96102425 C118.41632,-1.26925431 114.848371,-1.32235251 102.772264,11.378902 C98.1043936,16.5327457 97.6532663,22.5834511 98.9392383,28.2964852 C97.9525659,28.4481054 95.2267202,29.0871505 92.6230419,31.6906214 C91.4360068,32.8776565 90.8019397,34.2038669 90.7287222,35.640422 C90.6606902,35.936403 90.2199337,37.9842096 90.2199337,41.3175733 C90.2199337,42.8358499 91.8402583,45.4123569 93.4070699,47.9038238 C93.6866651,48.3485212 93.9623194,48.7865814 94.2224176,49.2092928 C96.0302453,52.1471164 97.5238395,53.936899 100.234336,54.9793659 C101.548309,55.4846285 103.325025,55.6582347 105.043042,55.8258259 C106.517554,55.9695643 108.029815,56.1184882 109.220791,56.4727527 C107.252839,57.2596846 103.966766,56.6930273 99.9205178,55.9925874 C95.542613,55.2342788 90.0944477,54.2903339 84.3753986,54.8011966 C79.0500228,55.2767988 74.394597,57.5892667 70.1434226,61.8705162 C66.6549126,65.3837086 63.9746982,69.6715954 61.6112062,73.8420854 C61.2880539,72.3652918 60.4370309,71.3854641 59.6276982,70.7673679 C57.5684838,69.1945413 54.4902403,68.9856745 52.9072503,69.7771695 C51.0199828,70.720907 49.0180148,75.1332427 47.2898345,79.1948399 C46.9438665,80.0083208 46.6447743,80.7106275 46.5145178,80.9277908 C46.3106291,81.2679511 44.7145719,82.6677938 43.1709908,84.0215904 C40.1680389,86.6557587 36.4306311,89.9341575 35.1172804,91.9041836 C33.1022453,94.9266325 23.7959567,100.71724 18.2745739,103.375883 C12.7272643,106.046764 0.126606012,113.065267 8.29659319e-05,113.13558 L0.403919639,113.860495 C0.530235271,113.789974 13.1093224,106.783501 18.6344387,104.123199 C24.3744367,101.359603 33.6844587,95.5490844 35.8075569,92.3644371 C37.0601351,90.4854661 40.9085098,87.1102046 43.7181511,84.6454942 C45.6537463,82.947389 46.7547042,81.9733689 47.1324066,81.4867737 C53.1376882,79.3545493 56.8132864,73.7242737 56.967603,73.48388 L57.049117,73.3573569 L57.0304497,73.2080182 C57.0217383,73.1383269 56.8029156,71.6447327 54.2081561,70.2318228 C55.646578,69.981888 57.6887844,70.3305523 59.124095,71.4269471 C60.1787994,72.2323389 61.3214477,73.7657567 60.775117,76.4967878 C59.4262984,83.2404661 57.4237082,92.7415172 55.6102804,97.3759942 C54.0173345,101.44651 50.5562032,105.079174 47.7751852,107.997915 C47.3533034,108.440538 46.9478074,108.866154 46.5669938,109.274138 C44.2080649,111.801696 43.3192924,113.923134 43.0455048,114.720644 C39.6573836,115.209729 36.9118335,115.568971 36.860602,115.575608 L36.9680429,116.398423 C37.0634537,116.385771 46.5842092,115.140452 52.131104,114.113334 C54.8310228,113.613257 56.5745519,113.551447 57.9756391,113.501668 C59.4970269,113.447532 60.6987884,113.404805 62.3502253,112.854533 C63.1763585,112.579086 63.8711982,112.18168 64.7508445,111.678491 C67.3159437,110.211239 71.6096381,107.75524 85.9598405,104.360689 L85.9814116,104.354881 C87.6544196,103.862893 89.2189497,103.751304 90.5995028,103.653197 C92.0953786,103.546585 93.5082884,103.445989 94.7473846,102.882651 C95.522079,102.530668 96.2442974,101.938498 97.0090359,101.311691 C98.6590208,99.9587236 100.528658,98.4257206 103.925076,98.1492367 C104.944105,98.1602297 106.030544,99.2178379 106.20332,99.9093589 L106.275708,100.178583 L106.549496,100.219652 C106.603838,100.227741 107.884418,100.443867 108.059061,102.539379 C108.223541,104.513553 107.710189,106.006318 107.28727,106.869164 L106.817268,106.801961 C106.791341,106.983864 106.762096,107.242718 106.726213,107.561307 C106.479804,109.74497 105.902984,114.858575 103.823443,116.938116 C101.591867,119.169693 97.1336922,120.410033 95.4552914,120.876924 C95.3144567,120.915918 95.1900078,120.950556 95.0840188,120.981046 C94.4263064,121.168757 93.5559938,121.917939 92.4542062,122.86624 C90.8440449,124.252393 88.8400028,125.977255 86.7843144,126.582076 C85.057586,127.090035 83.4837222,127.596335 81.3054517,128.297397 C78.9830279,129.045127 76.0929096,129.975176 71.6374317,131.354277 C62.7596621,134.102108 62.2382212,139.376045 62.2203836,139.599224 L63.0471391,139.667048 C63.0514948,139.618098 63.5818545,134.716056 71.8828034,132.146809 C76.3426371,130.766256 79.2352443,129.835378 81.5597423,129.087233 C83.7319978,128.388245 85.3017132,127.882982 87.0184858,127.377927 C89.2457062,126.722704 91.3248325,124.933128 92.9955589,123.495121 C93.9386741,122.6833 94.8295208,121.916487 95.3119677,121.778556 C95.41609,121.748896 95.5388796,121.71488 95.6776401,121.676093 C96.7078695,121.389446 98.4883184,120.893725 100.282664,120.119445 C100.013025,121.592298 99.1607573,125.118142 96.7078695,129.25752 C94.1873645,133.510769 93.3079257,137.108586 92.7823365,139.258441 C92.6064487,139.978171 92.4674808,140.546902 92.3206311,140.938501 C91.7869527,142.361782 88.2644267,146.064759 82.1797052,148.582775 C79.1736421,149.826434 75.3636391,151.775096 71.9877553,153.795524 C69.8366561,155.082741 66.0664768,157.484397 64.9850158,159.106588 C64.9120058,159.215896 64.8362994,159.331219 64.7572743,159.451312 C63.0349016,162.066398 59.829098,166.934009 49.4898836,168.885161 L49.643578,169.700093 C60.3285529,167.684229 63.6600499,162.625381 65.4500399,159.907624 C65.5282353,159.788776 65.6033194,159.674905 65.6752924,159.566842 C66.9969397,157.584164 75.1821511,152.376185 82.4968425,149.349173 C84.4782764,148.529469 86.2182794,147.573702 87.6903024,146.595741 C87.4192112,147.286847 87.0450349,147.856408 86.6532283,148.445051 C86.3317353,148.928328 85.9990419,149.428198 85.7005719,150.02493 C85.4427553,150.540771 85.2992242,151.165504 85.133085,151.88876 C84.720122,153.686424 84.1545018,156.148231 81.396092,159.487402 C79.7649818,161.461991 77.2289206,163.382445 74.2923415,165.606347 C70.1994246,168.705954 65.1057313,172.56387 60.0400389,178.353025 C51.5688024,188.034527 40.5658605,187.760325 40.4555158,187.752651 L40.4250259,188.582102 C40.4322854,188.582102 40.4835168,188.583554 40.5758164,188.583554 C41.9557473,188.583554 52.4718866,188.262269 60.6645649,178.899563 C65.6742553,173.173877 70.7304066,169.344584 74.7932483,166.267793 C74.9270309,166.166574 75.0589467,166.0666 75.1910699,165.966419 C74.2292874,168.168127 72.4102593,172.311239 71.3841782,174.510043 C70.5474667,176.303144 69.2809918,177.219918 67.6774677,178.381026 C66.6339637,179.136431 65.451077,179.992847 64.2072102,181.236714 C62.9025709,182.541353 60.763087,184.339639 58.6943315,186.078398 C55.8104357,188.502248 52.8286401,191.008648 51.7237413,192.481501 C49.9688044,194.821763 45.7369196,197.297466 41.0445739,197.501355 C39.1658104,197.582662 35.965607,197.36612 32.5772784,197.136305 C27.3340389,196.780796 21.3913966,196.377581 17.9788004,196.883259 C12.4997303,197.69508 1.40386653,196.274289 1.29227735,196.259977 L1.18566613,197.082792 C1.64529739,197.14232 12.5074046,198.531999 18.1003455,197.703999 C21.4247904,197.211182 27.3197273,197.611285 32.5210689,197.964097 C35.425084,198.160934 38.1913756,198.348437 40.1373415,198.348437 C40.478124,198.348437 40.7940168,198.342837 41.0806641,198.330392 C46.2608495,198.105139 50.5730038,195.398791 52.3874687,192.979504 C53.4353285,191.582358 56.3799968,189.107277 59.2280098,186.71371 C61.4062804,184.882859 63.4638355,183.153641 64.7937794,181.82349 C65.9911852,180.626084 67.1454487,179.79041 68.1640629,179.05305 C69.7974547,177.870371 71.2082904,176.848853 72.1360569,174.860782 C73.4803124,171.980205 76.17712,165.782649 76.546111,164.933701 C78.7749908,163.220662 80.6854888,161.650324 82.0357593,160.015688 C84.9192403,156.525311 85.5344327,153.846963 85.941588,152.074603 C86.1023345,151.375615 86.2290649,150.82327 86.4427022,150.395995 C86.7181491,149.845309 87.0363234,149.36701 87.3441271,148.904683 C87.9170068,148.043289 88.5054427,147.149538 88.776119,145.83681 C91.1997613,144.048479 92.7020669,142.284001 93.0973996,141.229919 C93.2616721,140.791859 93.4058255,140.202179 93.5883505,139.455278 C94.1361331,137.214161 94.9639257,133.827491 97.421584,129.680439 C100.356711,124.727166 101.056944,120.707674 101.193423,119.701089 C102.390828,119.11452 103.538247,118.396658 104.410012,117.524893 C106.586001,115.348697 107.233342,110.425706 107.511071,108.000819 L107.571429,108.04168 C107.661654,107.908312 107.800829,107.686585 107.955561,107.386664 C107.941664,108.091459 108.037905,109.081865 108.508321,110.14051 L108.543167,110.218913 C109.392738,112.133352 110.355558,114.303326 117.329052,115.360104 C119.307997,115.660026 120.846393,115.719347 122.176129,115.672264 C119.138539,118.983227 117.700117,122.104198 117.635818,122.24524 L118.391223,122.588719 C118.407402,122.553251 120.032704,119.033214 123.388054,115.599254 C124.010506,115.5474 124.598527,115.478953 125.179703,115.410714 C127.105342,115.184217 128.924163,114.970372 131.855557,115.361141 C136.279508,115.951029 140.994047,115.710221 144.782064,115.517117 C146.383306,115.435189 147.765934,115.364668 148.91833,115.364668 C150.169042,115.364668 151.831679,115.584735 153.591594,115.817454 C153.69302,115.830936 153.79652,115.844418 153.898775,115.857693 L153.469012,116.54631 C153.608809,116.633631 156.946529,118.683305 161.985465,118.683305 L161.985465,117.853645 C157.460295,117.853645 154.305723,116.076723 153.944407,115.863915 C156.058793,116.142888 158.307378,116.426009 160.41969,116.426009 C162.088135,116.426009 163.67071,116.249292 165.031144,115.754607 L164.747608,114.974935 C161.759797,116.061374 157.477926,115.494717 153.700487,114.995054 C151.912571,114.758601 150.223799,114.535008 148.91833,114.535008 C147.744777,114.535008 146.352194,114.606152 144.739959,114.688495 C140.985543,114.879939 136.313524,115.118259 131.965072,114.538742 C128.930593,114.133868 126.974464,114.363891 125.082633,114.586862 C123.05702,114.825182 120.96213,115.071383 117.453501,114.539779 C113.305826,113.911312 111.461909,112.928373 110.462169,111.832186 C110.705259,111.972191 110.969713,112.052253 111.257605,112.052253 C111.303029,112.052253 111.349075,112.050179 111.395536,112.04603 C114.749641,112.041052 117.132008,110.696797 118.254744,109.894724 C118.820987,109.490057 119.19786,108.775306 119.344502,107.827213 C119.569132,106.376553 119.223579,104.74088 118.760214,104.122784 C118.193557,103.367586 116.234731,103.386876 113.529627,103.497013 C113.170177,103.511532 112.827113,103.525014 112.514539,103.533311 C115.861592,101.042466 121.897156,101.047029 125.274492,101.052837 L125.68787,101.053044 C128.151543,101.053044 131.847468,100.432252 135.760348,99.7747467 C137.861876,99.4217267 140.034961,99.0566766 142.130473,98.7677477 C146.499044,98.1650002 150.366293,98.5524511 153.778475,98.8940633 C154.991229,99.015401 156.136781,99.1303088 157.193145,99.185896 C158.53989,99.2566244 159.865478,99.2319421 161.146887,99.2085042 C163.592307,99.1632878 165.703583,99.1240864 166.985407,99.7649982 L167.356472,99.0226605 C165.892123,98.2906936 163.685852,98.3319691 161.131745,98.3788449 C159.864441,98.4024902 158.554201,98.4263429 157.236702,98.3572737 C156.200043,98.3027236 155.063824,98.1890603 153.861026,98.0685523 C150.574123,97.7397998 146.483695,97.3299481 142.017017,97.9457627 C139.909475,98.2363509 137.730167,98.6026455 135.622832,98.9567026 C131.745005,99.6081926 128.082474,100.223385 125.68787,100.223385 L125.275321,100.223178 C121.509705,100.219237 114.534344,100.211562 111.176298,103.597195 C110.16681,103.735333 109.352085,104.133362 108.805132,104.737769 C108.910914,104.064085 108.955508,103.307021 108.885816,102.470517 C108.702877,100.274616 107.479751,99.6378529 106.925954,99.4613429 C106.906872,99.4146745 106.884056,99.3669691 106.860618,99.3190563 C107.374799,99.4007778 108.065698,99.4673579 108.964427,99.4673579 C110.841738,99.4673579 113.612178,99.1778068 117.498717,98.1351325 C123.343252,96.5672838 126.200599,95.2765413 127.908038,94.5051655 C128.648924,94.1706054 129.192765,93.9248188 129.66733,93.7972587 C130.931109,93.8796024 133.368233,93.6408679 135.94557,93.3894812 C139.077949,93.0839591 142.628268,92.7375764 144.300447,92.9603399 C144.823339,93.0300313 145.364692,93.0632176 145.915379,93.0756625 C146.074881,93.803896 145.94815,95.202909 145.812916,96.0062267 L146.63096,96.1441575 C146.668502,95.9220162 146.94146,94.2276445 146.758935,93.0804331 C147.621158,93.0681956 148.497071,93.0155122 149.358257,92.9632437 C151.021102,92.8624401 152.740778,92.7585253 154.256359,92.9603399 C157.069526,93.3353459 158.029649,95.8992006 158.068851,96.0072637 L158.850182,95.7282908 C158.804343,95.599901 157.689696,92.5811856 154.365874,92.1379401 C152.770854,91.9255473 151.010524,92.0317437 149.308063,92.1350363 C147.645218,92.2360473 145.925749,92.3399621 144.409962,92.1379401 C142.643617,91.9023168 139.19742,92.2385363 135.865093,92.5639701 C133.276141,92.816394 130.83072,93.0542988 129.660693,92.9651104 L129.593491,92.9601325 L129.528155,92.9763108 C128.966683,93.1167307 128.379284,93.3820142 127.566426,93.7491385 C125.882217,94.5101435 123.063035,95.7832557 117.283835,97.333889 C109.692038,99.3707026 106.52108,98.4416916 106.071612,98.2836415 C105.664042,97.9007537 105.15712,97.577394 104.604567,97.421418 C104.839568,97.0563679 105.184706,96.5191635 105.61364,95.8496285 C105.636456,95.8500433 105.658027,95.8502507 105.682709,95.8502507 C106.013328,95.8502507 106.494946,95.8243238 107.153073,95.7299501 C110.89857,95.3140834 114.028667,93.6734321 114.848163,92.6492176 C115.751247,91.5204661 116.505408,87.8415493 115.69483,85.6122547 C115.202842,84.2594952 114.115159,83.8635403 113.162088,83.8496435 C113.582725,83.1635152 113.991955,82.4921134 114.382309,81.8449792 C115.378108,81.5023299 121.550359,79.3931285 124.745791,78.6414571 C125.34688,78.5000002 126.295388,78.3062747 127.496112,78.0606956 C129.692842,77.6120573 132.701187,76.9972798 135.840411,76.2402156 C136.918345,75.9801174 138.022622,75.7025964 139.090394,75.4342016 C143.114241,74.4224321 146.915118,73.4668719 149.125745,73.4668719 C152.418041,73.4668719 154.258225,74.1312216 156.206265,74.8341505 C157.549069,75.3186715 158.937504,75.8197858 160.877247,76.1572497 L161.019534,75.3398279 C159.150934,75.0148088 157.797137,74.5263469 156.487935,74.0538559 C154.469581,73.325415 152.563024,72.6372126 149.125745,72.6372126 C146.81224,72.6372126 142.963243,73.6050102 138.888164,74.6294321 C137.822259,74.897412 136.720057,75.1745182 135.646063,75.4335794 C132.520944,76.1873248 129.520688,76.8004431 127.33018,77.2478369 C126.122611,77.4944531 125.168918,77.6896305 124.555799,77.8335764 C121.876415,78.46391 117.154823,80.0286475 115.043755,80.7431916 C115.590708,79.8257958 116.087052,78.9770543 116.507689,78.2347166 C116.938697,77.4743339 117.388165,76.6706014 117.856508,75.8328529 C119.388266,73.0937327 121.089275,70.0546906 122.985877,66.9978108 C123.375402,68.1035393 124.51888,69.8225934 127.881281,70.5537307 C128.30586,70.6460303 128.781877,70.6891725 129.303317,70.6891725 C134.01039,70.6885503 142.318183,67.1662317 147.875034,64.4505493 C148.034536,65.4851345 148.292975,67.8666715 147.692301,69.8190673 L148.485248,70.0627798 C149.198755,67.7440894 148.815453,64.9846425 148.654291,64.0660022 C149.895669,63.4481134 150.969871,62.885397 151.790404,62.4359291 C156.417414,60.6380573 163.95072,61.2217226 164.026219,61.2281525 L164.059613,61.229397 C164.13449,61.229397 165.910998,61.2092778 167.671535,59.4487407 L167.084966,58.8619641 C165.651729,60.295408 164.214344,60.3933078 164.071228,60.3995303 C163.52469,60.3565954 156.187598,59.8241615 151.463518,61.6728499 L151.415398,61.6954581 C144.788701,65.3295733 132.587524,70.726922 128.057584,69.7429461 C123.702495,68.7963048 123.615381,66.1111124 123.613721,65.9972417 L123.612684,65.9972417 C123.857019,65.6122798 124.105294,65.2279401 124.356059,64.8438078 C124.840373,65.6780303 125.841357,67.1598018 127.355692,68.242922 C127.646903,68.4513739 127.988722,68.5586074 128.333446,68.5586074 C128.53526,68.5586074 128.738319,68.521895 128.93246,68.4466034 C131.757242,67.3558088 134.148943,65.6639261 135.666804,63.6831144 C137.457624,61.3455493 137.944427,58.7304631 137.068099,56.1027246 C136.296516,54.096401 134.612307,53.4480222 133.586019,53.2385333 C133.903778,52.888417 134.202871,52.5582126 134.486614,52.2454311 C134.502378,52.2288379 134.921356,51.8019782 138.806858,48.6936595 C141.122229,46.8412377 144.882453,45.9790142 148.518849,45.145414 C151.262325,44.5161174 153.853766,43.9218739 155.745597,42.9310533 C162.609576,39.3948379 166.859921,39.9330794 171.428232,44.9166355 C173.893772,47.606391 173.420452,54.6653399 171.369119,58.9567527 C170.195773,60.8836365 170.765542,62.9884822 171.316643,65.0238439 C171.590845,66.0370653 171.874382,67.0845102 171.942414,68.1016725 C172.052136,69.750413 171.082887,71.6916084 170.227508,73.4044401 C169.505497,74.8501214 168.935313,75.9921475 169.040888,76.8371555 C169.141069,77.6388138 169.952891,78.1417948 170.981046,78.7783509 C172.664425,79.8210253 174.970048,81.2492838 176.109585,84.794418 C177.288738,88.4627567 175.791825,90.8880583 174.589027,92.8365132 C173.947493,93.8760764 173.39328,94.7737677 173.39328,95.6602587 C173.39328,96.7869361 174.158226,97.7837717 174.967974,98.8390984 C175.979743,100.157634 177.126747,101.652266 177.126747,103.749437 C177.126747,108.770328 174.315239,113.532365 168.996086,117.521989 C163.429487,121.697042 159.453344,125.2764 156.483372,128.786066 C154.333724,131.326898 142.162,138.611099 130.166993,141.09261 C124.050952,142.358463 119.551294,141.966242 116.85345,141.414726 C113.934086,140.817786 112.438832,139.910761 112.424728,139.902049 L111.98729,140.607052 C112.163593,140.716567 115.192264,142.538914 121.147559,142.755248 C115.993093,143.123616 112.373289,141.94716 112.336992,141.935129 L112.074819,142.722269 C112.207772,142.766656 114.93984,143.658954 119.107841,143.658954 C119.819689,143.658954 120.574264,143.63282 121.3641,143.572047 L121.301461,142.759603 C121.630006,142.769767 121.964773,142.776611 122.310741,142.776611 C124.599979,142.776611 127.273971,142.538499 130.334999,141.905262 C131.132716,141.740367 131.927322,141.556183 132.716743,141.355405 C132.462868,141.936996 131.956361,142.84817 130.972592,143.921334 C129.392921,145.644536 126.234615,148.138285 120.155286,150.234834 C110.139846,153.822488 88.1285699,173.066229 73.5630709,185.800255 C67.804613,190.834835 63.2562132,194.811392 61.1463896,196.335061 C53.7954006,201.644051 44.9103715,206.003704 44.8213906,206.047261 L45.185611,206.792502 C45.2750068,206.748738 54.2222603,202.359218 61.6321551,197.007708 C63.773091,195.46143 68.3343505,191.473673 74.1091942,186.424988 C88.6274026,173.73203 110.567743,154.550307 120.430318,151.01741 C131.231653,147.292862 133.340855,142.307854 133.703208,141.094685 C145.093601,137.984707 155.207148,131.579114 157.116816,129.322026 C160.045514,125.860895 163.978306,122.322191 169.493882,118.185509 C173.354494,115.290206 177.956407,110.435247 177.956407,103.749437 C177.956407,101.370804 176.66442,99.6870102 175.626101,98.3338359" id="Fill-1" fill="#14145A" mask="url(#mask-2)"></path>
                </g>
                <path d="M158.205454,70.0908845 L158.713413,70.7467302 C158.909212,70.5953173 163.525852,66.9977071 165.163184,63.6861219 C165.33202,63.3447171 165.245735,62.9553995 164.94851,62.7170799 C164.65087,62.4785528 164.235833,62.4791751 163.939229,62.7189466 C162.05051,64.2426159 159.702574,64.403155 159.678929,64.4046069 L159.728294,65.2326069 C159.832831,65.2265919 162.272236,65.065638 164.353022,63.4494616 C162.739749,66.557158 158.251293,70.0554165 158.205454,70.0908845" id="Fill-4" fill="#14145A"></path>
                <path d="M146.119288,47.4638348 C146.151852,47.5007546 149.387938,51.1620412 150.181093,53.7402075 L150.974247,53.4962877 C150.127787,50.7451374 146.877389,47.0680873 146.739458,46.9127336 L146.119288,47.4638348 Z" id="Fill-6" fill="#14145A"></path>
                <path d="M158.979816,121.041611 C155.20217,120.04768 152.761727,117.647475 152.73746,117.623415 L152.151098,118.210192 C152.25605,118.314936 154.765355,120.790432 158.768668,121.844099 L158.979816,121.041611 Z" id="Fill-8" fill="#14145A"></path>
            </g>
        </g>
    </g>
</svg>