<?xml version="1.0" encoding="UTF-8"?>
<svg width="250px" height="76px" viewBox="0 0 250 76" version="1.1" xmlns="http://www.w3.org/2000/svg" xmlns:xlink="http://www.w3.org/1999/xlink">
    <!-- Generator: Sketch 64 (93537) - https://sketch.com -->
    <title>Group 3</title>
    <desc>Created with Sketch.</desc>
    <defs>
        <polygon id="path-1" points="0 4.86571241e-05 249.752789 4.86571241e-05 249.752789 75.8954684 0 75.8954684"></polygon>
    </defs>
    <g id="Home-Page" stroke="none" stroke-width="1" fill="none" fill-rule="evenodd">
        <g id="Home-Page-Video" transform="translate(-452.000000, -1094.000000)">
            <g id="Group-3" transform="translate(452.000000, 1094.000000)">
                <mask id="mask-2" fill="white">
                    <use xlink:href="#path-1"></use>
                </mask>
                <g id="Clip-2"></g>
                <path d="M244.187754,63.802505 C243.557175,64.2342658 242.926344,64.6705714 242.294498,65.1076346 C234.90251,70.2221063 227.257226,75.5107973 217.384762,74.8247774 C210.249113,74.2698007 203.509255,70.6642193 194.180908,65.6739734 C182.661131,59.5114086 166.884255,51.0716213 141.429133,43.7890033 C103.934457,32.3193156 73.585573,33.5297608 65.1763438,34.1736146 C60.0832911,34.5639668 57.365999,33.9405648 57.0939402,32.3157807 C56.74607,30.3781595 56.5944473,28.9144651 56.5505832,27.8115814 C57.2212221,28.4531628 58.4159483,28.8561395 60.603068,29.1341329 C64.384001,29.6143721 71.1127028,29.7474352 85.7295892,29.8792359 C134.861689,32.1218671 174.325431,51.5215615 193.476293,62.8862126 C194.124113,63.270505 194.552104,63.5245116 194.79247,63.6532824 C195.115999,63.8269967 195.542977,64.0615615 196.055908,64.3435947 C201.071881,67.101814 212.818332,73.560804 219.120056,73.560804 C222.375634,73.560804 227.27396,72.0812027 232.559457,69.50099 C237.579741,67.0503056 242.354843,63.8906246 245.333038,61.0483256 C247.003169,59.454598 248.098504,58.0328173 248.714123,56.688299 C248.703727,56.8241395 248.691303,56.960485 248.674062,57.098093 C248.349772,59.7308239 246.84039,61.9863322 244.187754,63.802505 M126.267115,55.4846711 L125.849518,55.8015482 C115.588869,63.5919269 111.341912,66.8162458 67.4484026,71.038412 C21.9920132,75.4105581 6.76990365,74.7424651 4.90656694,73.650186 C2.65732759,71.8799668 1.61042089,69.5098272 1.21133367,67.1399402 C2.97325051,70.4119801 9.80768256,72.0309568 22.2767495,72.0304518 C29.789427,72.0304518 39.3485041,71.4429037 51.0670639,70.275887 C58.8061613,69.5052824 65.4778144,68.939196 71.3639706,68.4400199 C92.6431288,66.6344518 103.324163,65.7282591 115.901242,59.3664784 C128.236689,53.1274086 135.945867,46.7191694 138.531313,43.9778671 C139.100786,44.1447641 139.67178,44.3144385 140.244549,44.4868904 C138.67609,45.8018671 134.368027,49.3385183 126.267115,55.4846711 M28.2597617,28.7596877 C42.3956643,17.5387043 61.3421653,14.6845382 67.7181795,14.0202326 C62.6684838,17.092299 59.2186866,20.0371096 57.4235548,22.1747043 C56.8644777,22.8402724 56.4415568,23.4505449 56.1537779,24.0035017 C55.7980477,24.435515 54.962855,26.1777076 56.0944473,32.4877276 C56.4770538,34.7742924 59.3872972,35.6297342 65.2541836,35.1805515 C73.3393763,34.5614419 101.819092,33.417402 137.431668,43.6577076 C134.585319,46.5239934 127.118788,52.5598073 115.442317,58.466093 C103.040695,64.7387442 92.4258367,65.6393821 71.2777637,67.433588 C65.3880578,67.9332691 58.7126014,68.499608 50.9661511,69.2709701 C20.7775101,72.2771362 4.31376775,71.3545316 2.04120183,66.5460797 C1.17685091,64.5216013 1.03384888,62.2471561 1.6038286,59.7295615 C1.73592799,59.1740797 1.86701318,58.7125249 1.97198276,58.3714086 C4.42330122,50.6153688 13.2153905,40.7015349 28.2597617,28.7596877 M113.672794,1.34742193 C140.617774,-0.219541528 162.33963,3.8713289 175.818332,7.57916944 C201.910117,14.7567508 224.714123,27.6431694 243.600025,45.882412 C248.835827,51.8432359 250.391608,54.8218804 244.631212,60.3191296 C238.861689,65.8252159 225.956516,72.5508372 219.120056,72.5508372 C213.079741,72.5508372 201.068078,65.945907 196.546273,63.4596213 C196.029285,63.1753156 195.599265,62.9389834 195.2732,62.7640066 C195.052358,62.645588 194.609153,62.3824917 193.995563,62.0186512 C189.771678,59.5119136 176.91747,51.883887 158.005705,44.544711 C134.021425,35.2368571 109.719701,29.9633156 85.7574797,28.8697741 C58.00393,28.6185449 57.0389199,28.3175748 56.7176724,25.6535349 C56.6839503,25.3735216 56.761283,24.5377741 58.2016988,22.822598 C63.4593053,16.5625714 83.9364858,3.07673754 113.672794,1.34742193 M247.222236,48.7426379 L247.21894,48.7454153 C246.440289,47.645309 245.472236,46.4795548 244.349518,45.2019468 L244.320867,45.1716478 C225.309204,26.8061595 202.352307,13.8306113 176.088109,6.60556146 C151.535117,-0.148591362 128.561993,-0.530106312 113.613971,0.339222591 C97.4146805,1.28101661 84.654285,5.70921595 76.8021045,9.2582392 C74.2108266,10.4292957 71.8578854,11.6336811 69.7425203,12.8322591 C67.8398834,12.9484053 44.4156947,14.643887 27.6274087,27.9698937 C17.9050456,35.6873023 10.6875,42.6525382 6.17558316,48.6724452 C3.84901116,51.7765781 2.20803753,54.6764452 1.25190162,57.3621993 L1.24150609,57.358412 C1.19814909,57.4715282 -3.00469067,68.7447774 4.30362576,74.4629568 L4.34825051,74.4940133 C5.55818966,75.247196 10.0528651,75.4640864 14.8312627,75.4640864 C16.5982505,75.4640864 18.4040314,75.4345449 20.0964757,75.3911163 C31.5201572,75.0994884 47.4846602,73.9733754 67.5460193,72.0435814 C111.7268,67.7938937 116.041202,64.5183189 126.464376,56.6047243 L126.881719,56.2880997 C136.107125,49.2885249 140.438007,45.6549169 141.40251,44.8335615 C166.606871,52.0714884 182.26179,60.444113 193.700938,66.5637542 C203.138818,71.6123256 209.95753,75.2600731 217.309711,75.8319668 C217.925076,75.8748904 218.531567,75.8955947 219.129691,75.8955947 C228.480096,75.8955947 235.790188,70.8379336 242.873098,65.9373223 C243.50393,65.5010166 244.132987,65.0654684 244.762297,64.6347176 C247.664681,62.647608 249.319346,60.1532425 249.680908,57.2210565 C250.147946,53.4316611 248.22604,49.8725382 247.222236,48.7426379" id="Fill-1" fill="#14145A" mask="url(#mask-2)"></path>
            </g>
        </g>
    </g>
</svg>