<?xml version="1.0" encoding="UTF-8"?>
<svg width="280px" height="95px" viewBox="0 0 280 95" version="1.1" xmlns="http://www.w3.org/2000/svg" xmlns:xlink="http://www.w3.org/1999/xlink">
    <!-- Generator: Sketch 64 (93537) - https://sketch.com -->
    <title>Group 10</title>
    <desc>Created with Sketch.</desc>
    <defs>
        <polygon id="path-1" points="0.000114433985 0.109632184 279.862629 0.109632184 279.862629 94.7815655 0.000114433985 94.7815655"></polygon>
    </defs>
    <g id="Home-Page" stroke="none" stroke-width="1" fill="none" fill-rule="evenodd">
        <g id="Home-Page-Video" transform="translate(-74.000000, -1077.000000)">
            <g id="Group-10" transform="translate(74.000000, 1077.000000)">
                <path d="M7.79392488,10.0742149 C7.74813459,10.354192 7.65261033,10.9368586 5.9620939,10.6625598 C4.20519249,10.3777782 2.69980908,9.56099655 2.53548983,9.22205402 C2.7990579,8.9519046 4.48694523,8.65314598 6.24340845,8.9377092 C7.10181221,9.07704253 7.47448826,9.30198506 7.63595931,9.46621494 C7.79041941,9.62345632 7.83774335,9.80537586 7.79392488,10.0742149 M8.65868232,10.2146402 C8.7476338,9.67041034 8.61420657,9.2131 8.2621252,8.85493908 C7.88835368,8.47472069 7.27401878,8.21985862 6.38406573,8.0755023 C5.19746166,7.8831 1.87383099,7.76364023 1.65890141,9.07988161 C1.44462911,10.3959046 4.63483255,11.3325828 5.82121753,11.5249851 C6.14744601,11.5778356 6.44628795,11.6040425 6.71752426,11.6040425 C7.8561471,11.6040425 8.50794679,11.1388701 8.65868232,10.2146402" id="Fill-1" fill="#14145A"></path>
                <g id="Group-5" transform="translate(0.000000, 0.108759)">
                    <mask id="mask-2" fill="white">
                        <use xlink:href="#path-1"></use>
                    </mask>
                    <g id="Clip-4"></g>
                    <path d="M274.647114,62.1480828 C272.868304,62.0115885 272.048022,61.1373701 271.717412,60.6285195 C271.61159,60.4651632 271.566238,60.2642437 271.590557,60.062669 C272.042326,56.2773011 274.17256,37.1563126 271.715659,32.4620023 C270.888585,30.8819448 270.200416,29.7572322 269.463828,28.9666575 C269.505894,28.9828184 269.547521,28.9974506 269.589806,29.0142667 C272.187365,30.0461632 273.807991,31.8232092 274.406551,34.2951747 C275.761637,39.8905655 275.2058,56.4227494 275.080698,59.6800483 C275.067991,60.0063241 275.186958,60.3144736 275.41569,60.5477149 C275.638069,60.7744046 275.946989,60.9034736 276.265987,60.9034736 C276.272122,60.9034736 276.278257,60.9032552 276.284829,60.9032552 C276.677443,60.8969218 277.187052,60.8412322 277.756911,60.6634621 C277.057349,61.5221747 276.043828,62.2548759 274.647114,62.1480828 L274.647114,62.1480828 Z M261.436723,27.4237264 C258.412592,27.6390598 240.902513,29.0797839 223.969086,30.4728989 C207.021637,31.8673241 189.497099,33.3091402 188.948491,33.3191862 C188.046926,33.3191862 187.195753,33.3191862 187.195753,31.5720598 L187.195753,23.7099908 L186.319383,23.7099908 L186.319383,31.5720598 C186.319383,33.6814966 187.469618,34.0927264 188.363515,34.1730943 C186.629618,35.2999908 184.054626,37.0344506 182.958945,38.0174276 C181.601011,39.2356115 181.532435,40.1923816 181.445674,41.4037954 C181.382576,42.2828184 181.304141,43.3767379 180.655847,44.9458759 C179.990244,46.5576 178.691684,47.2719563 177.503327,47.5781402 C178.937725,46.1474621 179.313906,43.5261172 179.589305,41.6029678 C179.640573,41.2450253 179.688992,40.9060828 179.740479,40.5979333 C180.072404,38.6131977 183.974,35.8870253 185.449368,35.0040713 L185.662106,34.8767494 L185.662106,23.0701057 L186.667521,22.4020483 C189.906363,22.4594851 247.869869,23.4695425 265.863922,22.8362092 C272.556316,22.6176 276.716222,28.5477839 277.244454,34.2331517 C278.265205,45.2206115 278.914814,56.9567149 278.98625,58.2589793 C278.989743,58.3404391 278.977912,58.4218989 278.949869,58.5005195 C278.880635,58.6944506 278.767803,58.9816345 278.607427,59.3111862 C277.693155,59.8835885 276.835628,60.0207379 276.270588,60.0299103 C276.178131,60.027508 276.102545,59.9982437 276.042294,59.9368759 C275.983577,59.8770368 275.952905,59.7977609 275.956191,59.7136805 C276.082169,56.4360713 276.640635,39.797531 275.258601,34.0903241 C273.663609,27.5036575 265.855377,27.3182437 265.776723,27.3169333 L265.776723,27.3188989 C264.645768,27.2278299 263.251465,27.2944391 261.436723,27.4237264 L261.436723,27.4237264 Z M164.911214,83.7604736 C162.03979,88.5089448 157.012059,91.6400138 149.967584,93.0674161 C137.759102,95.5402552 122.444548,91.9669448 117.673155,88.5183356 C117.584861,88.4543471 117.506207,88.4025885 117.425362,88.3556345 C116.574626,87.8607609 112.081261,85.1029218 107.175127,79.4009563 C100.734031,71.9149563 96.547615,62.901531 94.7326541,52.6113931 C92.9696182,42.615646 93.0743443,39.4887264 93.1582567,36.9763586 C93.1698685,36.6260598 93.1792895,36.2864621 93.1856432,35.9429333 C93.2011987,35.9418414 93.2152207,35.9409678 93.2257371,35.9396575 L93.4262066,35.9396575 C93.4498685,37.8409678 93.7005102,45.6421057 96.1225759,54.7784851 C97.7548138,60.9360138 100.039947,66.4914391 102.913781,71.290577 C106.510839,77.2965425 111.044297,82.1275655 116.390369,85.6499908 C116.655033,85.8583356 119.457005,87.9994391 124.919634,89.7791057 C128.546707,90.9608184 133.876347,92.1254966 140.790901,92.1252782 C143.725643,92.1252782 146.947177,91.9151862 150.443452,91.4078644 C168.648491,89.1073356 171.02389,63.8670368 170.772372,48.6548069 C171.108679,48.6797034 171.619164,48.7037264 172.335596,48.7037264 C172.616911,48.7037264 172.930651,48.6997954 173.277255,48.6910598 C173.349117,51.5032782 173.40389,68.6004391 164.911214,83.7604736 L164.911214,83.7604736 Z M126.652654,18.4965655 C132.954407,23.729646 139.039915,29.6366805 142.682326,33.1724276 C144.22846,34.6734276 145.345831,35.7581747 145.938476,36.2698644 C147.453499,37.5788989 150.273875,40.0152667 150.254259,41.0170253 C150.252404,41.0954276 150.234438,41.1812552 150.114595,41.2771287 C149.978977,41.3850138 149.830651,41.5092782 149.667646,41.645554 C148.558382,42.5743701 146.701574,44.1284391 143.734626,44.6829333 C141.402607,45.1201517 139.439978,42.011577 136.95569,38.0772667 C136.066175,36.668646 135.146426,35.2119793 134.099603,33.7288874 C129.981324,27.6877609 125.329117,22.4821977 120.258883,18.2373356 C122.271027,18.2589563 124.402138,18.3450023 126.652654,18.4965655 L126.652654,18.4965655 Z M96.5377559,50.2717724 C97.2390704,49.9610023 98.3787887,49.4698414 99.9498998,48.8354161 C99.7934679,52.3960598 100.973499,56.5703816 102.506269,57.8313701 C102.890338,58.1473816 103.241981,58.2399793 103.522638,58.2399793 C103.637005,58.2399793 103.739759,58.224692 103.827834,58.2028529 C105.027365,57.9036575 105.65134,56.6179908 105.503671,54.7577379 C106.058851,54.4360483 107.197693,53.5338759 107.005768,51.620554 C106.807271,49.640623 105.463139,48.3307149 105.007646,47.9397954 L104.863484,46.9338874 L106.012185,46.529646 C106.217693,48.2828874 107.079822,50.4613356 107.72943,52.0988299 C107.87907,52.4764276 108.016879,52.8238874 108.131246,53.127669 C108.218883,53.360692 108.366551,53.6657839 108.553218,54.0523356 C109.371746,55.7442092 110.894876,58.893623 109.784078,61.2745195 C109.159008,62.6141287 107.746081,63.5735195 105.584516,64.1260483 C104.051527,64.5178414 102.727552,64.2894046 101.536567,63.4276345 C97.6443912,60.6117034 96.6909014,51.9924736 96.5377559,50.2717724 L96.5377559,50.2717724 Z M96.5430141,45.8760023 C96.7640782,43.0299333 98.2911518,38.5223471 101.55497,38.3415195 C102.987615,38.2613701 104.107615,39.0159103 104.873343,40.5824276 C105.289837,41.4337149 105.490526,42.311646 105.575753,42.7811862 C103.124986,43.592508 98.9271768,45.046554 96.5430141,45.8760023 L96.5430141,45.8760023 Z M107.032717,43.2269218 C107.447897,43.950669 107.591183,44.6403471 107.640479,45.0303931 L104.501762,46.134577 C104.1499,46.2584046 103.93256,46.6154736 103.985362,46.9838989 L104.144861,48.0979103 C104.172247,48.2881287 104.267772,48.4604391 104.413249,48.5827379 C104.773656,48.8865195 105.963546,50.0103586 106.133562,51.7074736 C106.274657,53.1119448 105.5017,53.7605655 105.028022,54.0224161 C104.756567,54.172669 104.598601,54.4668414 104.625549,54.7712782 C104.672435,55.3067724 104.739039,57.0750828 103.615095,57.3552782 C103.457787,57.3948069 103.27134,57.3281977 103.064078,57.1576345 C101.848554,56.157623 100.635878,52.3443011 100.831966,48.737577 C100.846645,48.4704851 100.72461,48.2175885 100.505518,48.0618759 C100.28533,47.9048529 100.003797,47.8716575 99.7527167,47.972554 C97.8071768,48.7561402 96.4978811,49.3300713 95.8340313,49.6288299 C95.669493,48.7974161 95.522482,47.9869678 95.3912457,47.2027264 C97.1071768,46.6036805 104.648773,43.9755655 107.032717,43.2269218 L107.032717,43.2269218 Z M150.325142,90.5421632 C138.778757,92.218531 130.311934,90.609646 125.24148,88.9647264 C119.75015,87.183531 116.949931,84.9775655 116.922326,84.9557264 L116.889462,84.9317034 C111.650964,81.483531 107.204485,76.7470713 103.673374,70.8542322 C102.210933,68.4137149 100.904047,65.771623 99.7590704,62.9519793 C100.143797,63.4027379 100.56292,63.8026115 101.020823,64.1341287 C101.985706,64.8323241 103.05159,65.182623 104.204892,65.182623 C104.720197,65.182623 105.253249,65.1125195 105.802294,64.9723126 C108.230495,64.3514276 109.837537,63.2313011 110.578507,61.6429448 C111.864579,58.8868529 110.224016,55.4950253 109.342826,53.6727724 C109.172592,53.3209448 109.025581,53.0167264 108.951966,52.8210483 C108.835847,52.5128989 108.696285,52.1606345 108.544235,51.7777954 C107.88652,50.1193356 107.000948,47.8854161 106.86051,46.2313241 L108.000009,45.8303586 C108.34508,45.7089333 108.559352,45.3717379 108.520354,45.0098644 C108.471496,44.5573586 108.306958,43.6586805 107.753531,42.724623 C107.56533,42.4073011 107.189149,42.262508 106.840573,42.3714851 C106.716347,42.4101402 106.576347,42.454692 106.422983,42.5040483 C106.046801,40.4341402 104.6663,37.2923701 101.506113,37.4692667 C97.3260501,37.7007609 95.7737809,43.3385195 95.6467074,46.1880828 C95.4975055,46.2400598 95.3647355,46.2863586 95.2499311,46.3265425 C94.4366604,41.1255655 94.3185696,37.199554 94.3025759,35.9387839 L94.3304006,35.9387839 L94.2995086,35.4731747 C94.2975368,35.4432552 94.1275211,32.4117724 96.4606354,26.4916345 C98.6241721,21.0528299 106.24026,18.2880023 118.875753,18.2318759 C124.202764,22.5431287 129.080635,27.9207839 133.378789,34.2257264 C134.416848,35.6961517 135.330463,37.1432092 136.213844,38.5424391 C138.682795,42.452508 140.669962,45.6003931 143.274532,45.6003931 C143.47785,45.6003931 143.684892,45.5811747 143.896097,45.541646 C147.089149,44.9447839 149.05616,43.2983356 150.231371,42.3144851 C150.388241,42.1832322 150.531308,42.0631172 150.661887,41.9591632 C150.961167,41.7204621 151.123077,41.4007379 151.130307,41.0342782 C151.15375,39.8481977 149.525455,38.212669 146.512279,35.6098874 C145.938914,35.114577 144.82943,34.0374736 143.293593,32.5465195 C139.821637,29.1763126 134.135972,23.6573586 128.145768,18.6057609 C135.009712,19.1425655 142.92026,20.2567954 151.839728,21.9550023 C159.752905,23.4616805 165.194501,28.3079908 168.013343,36.3589678 C170.131089,42.4070828 169.890526,48.0924506 169.887897,48.1490138 L169.869712,48.5368759 L169.893812,48.5408069 C170.155628,63.4448874 167.913437,88.3198184 150.325142,90.5421632 L150.325142,90.5421632 Z M88.5910579,30.592577 C87.4454241,26.0244966 87.480698,21.3963586 87.5028263,20.4210253 C89.0520282,19.1399448 93.9572864,16.5076805 102.531684,14.9437839 C121.052216,11.5659333 144.567396,14.9909563 161.039196,18.460531 C172.914876,20.7892322 182.826394,22.7958069 184.785737,23.1932782 L184.785737,34.3853701 C183.738257,35.0387954 179.295941,37.9436115 178.87616,40.4544506 C178.823577,40.7687149 178.774063,41.1144276 178.7217,41.479577 C178.354282,44.0471977 177.851027,47.563508 175.118288,47.7338529 C172.736097,47.8823586 171.37641,47.8257954 170.774344,47.7779678 C170.79472,46.3420483 170.709712,41.423669 168.849618,36.0966805 C166.837912,30.3340023 162.282106,23.0539448 152.004047,21.0971632 C138.596473,18.5441747 127.335784,17.2858069 118.561793,17.3493586 C105.645643,17.4463241 97.9355649,20.4140368 95.6453928,26.1710368 C93.7307449,31.0287034 93.4505258,33.9824391 93.4213865,35.0663126 L93.2051424,35.0663126 L93.1560657,35.0691517 C93.0211049,35.0842207 89.7897121,35.3718414 88.5910579,30.592577 L88.5910579,30.592577 Z M71.2807919,24.009623 C71.1602911,23.9934621 71.0702441,23.8910368 71.0713297,23.7711402 C71.0901815,21.5267379 71.5047042,18.9053931 72.6104632,18.9053931 C74.7249233,18.9053931 83.5168795,19.648577 86.6310579,20.2432552 C86.619446,20.6022897 86.5537183,23.2031057 86.9502754,26.4529793 C83.5990391,25.675508 74.1962535,24.3974851 71.2807919,24.009623 L71.2807919,24.009623 Z M70.9911518,30.1147379 C69.7042034,31.1684736 68.0316526,31.4526 66.7508388,31.4888529 C66.8025446,31.4314161 66.8332175,31.3879563 66.8454867,31.3698299 C68.3977559,28.9384851 68.2148138,20.8702552 68.1532488,19.0694046 C68.7522473,18.965669 70.1857684,18.6966115 71.8171299,18.2467264 C70.460072,19.0488759 70.2105258,21.9349103 70.1949703,23.7637149 C70.1901502,24.3232322 70.6068638,24.8010713 71.1646729,24.8755425 C71.5474272,24.9264276 72.2047042,25.0144391 73.0425133,25.1290943 C72.9818247,27.3710943 72.2934366,29.0483356 70.9911518,30.1147379 L70.9911518,30.1147379 Z M63.0836714,64.3610368 C59.7517152,72.5133471 55.3297746,76.2716345 48.2971299,76.9274621 C47.3583192,77.0150368 46.4280532,77.0582782 45.5058936,77.0582782 C36.5903693,77.0582782 28.5187887,72.9940253 22.5472081,65.4261287 C17.9878967,59.6483816 14.6649233,52.1944851 12.9110892,43.8471517 C14.2482097,49.0776115 16.0103693,53.7655885 18.1892426,57.8739563 C21.868241,64.8100483 25.7492426,68.2234966 27.406457,69.6812552 C29.0211674,71.1014506 33.5923099,74.1860023 39.3353772,75.6961747 C41.128867,76.1678989 43.2325915,76.5293356 45.4695243,76.5293356 C49.0367856,76.5291172 52.94123,75.6092552 56.455471,72.7494276 C61.0014178,69.0505425 63.9140313,61.0264276 65.1124664,48.9002782 C65.8724977,41.2103011 65.6623881,34.2329333 65.5835149,32.3388299 C65.8407293,32.3589218 66.1397903,32.373554 66.4701815,32.373554 C66.8329984,32.373554 67.2328419,32.3558644 67.653061,32.3093471 C67.6436401,35.6531287 67.3890548,53.8273931 63.0836714,64.3610368 L63.0836714,64.3610368 Z M73.4868326,37.5994276 L73.4868326,41.8517149 L74.1360031,42.2834736 L73.9392582,48.1697609 L73.0615743,48.1697609 C73.1091174,46.5265885 73.2677402,40.9698529 73.2677402,39.6525195 L73.2677402,39.471692 L73.1393521,39.3437149 C72.581543,38.787692 70.5284288,38.6313241 69.4783192,39.0646115 C68.7721847,39.3561632 68.6668013,39.8318184 68.6668013,40.0893011 C68.6668013,40.643577 68.8142504,40.9412437 68.9570986,41.2290828 C69.1290861,41.5761057 69.3240782,41.969646 69.3240782,43.1467724 C69.3240782,44.6401287 68.2857997,44.9904276 67.9102754,45.0683931 C68.1617934,42.3149218 68.3118717,39.7571287 68.4010423,37.6350253 C70.1802911,37.0108644 72.6126541,37.4179448 73.4868326,37.5994276 L73.4868326,37.5994276 Z M75.3131862,34.4067724 C76.2092739,34.3397264 76.7903067,34.5758069 77.1671455,34.8819908 C76.2421377,35.0488414 74.8013865,35.7446345 74.8013865,37.4686115 C74.8013865,37.7195425 74.8147512,38.1517379 74.8331549,38.7499103 C74.8561596,39.4926575 74.8881471,40.5265195 74.9078654,41.7462322 L74.3632019,41.3843586 L74.3632019,36.9117149 L74.0345634,36.8274161 C74.0207606,36.8239218 73.9780376,36.8130023 73.9098998,36.7970598 C73.9896495,36.1222322 74.2795086,34.6924276 75.3131862,34.4067724 L75.3131862,34.4067724 Z M78.0879906,45.5368414 C77.8877402,52.7234276 75.9739687,57.4221057 74.8750016,59.0654966 C74.4858936,59.6468529 74.0678654,59.7833471 73.9061753,59.8150138 C73.8220438,59.8316115 73.7582879,59.8303011 73.7144695,59.8248414 C76.1989765,54.514669 75.8433897,43.0554851 75.7090861,38.7228299 C75.6909014,38.1325195 75.6777559,37.7060023 75.6777559,37.4686115 C75.6777559,35.9320138 77.3945634,35.7278184 77.4749703,35.7193011 L77.5025759,35.7155885 C77.628554,35.6948414 77.6673333,35.7284736 77.6931862,35.750531 C78.3447668,36.3166 78.2314961,40.3854391 78.0879906,45.5368414 L78.0879906,45.5368414 Z M73.9342191,49.0433241 L74.7869264,49.0433241 L74.9194773,45.0838989 C74.8684288,50.0254276 74.4742817,56.1443011 72.9117152,59.4684276 C72.880385,59.4232207 72.8556275,59.3817264 72.8422629,59.3500598 C73.955471,56.2580828 73.9589765,50.6718644 73.9342191,49.0433241 L73.9342191,49.0433241 Z M19.0169734,6.33328966 C22.3734679,6.11555402 26.6731549,6.45187586 32.0089296,7.32522069 C36.2181315,7.99655402 40.7969421,9.04089885 45.1014491,10.6591747 C31.1882097,10.9057379 15.8574429,11.5866805 12.5213239,11.7399908 C13.643734,9.06535862 15.6017621,7.05572644 19.0198216,6.34661149 L19.0169734,6.33328966 Z M9.7197903,12.0151632 C10.319446,9.4243931 12.1357214,7.72793333 15.3349077,6.88865747 C10.0900563,10.2986115 10.1303693,18.2111287 10.1636714,24.7711517 C10.1658623,25.1828184 10.1680532,25.5903356 10.1687105,25.9923931 C9.65362441,26.1105425 9.17622222,26.1535655 8.78777152,26.1631747 C8.81669171,26.0707954 8.83224726,25.9771057 8.82917997,25.8840713 C8.76169953,23.824646 8.62651956,16.7380828 9.7197903,12.0151632 L9.7197903,12.0151632 Z M55.9013865,72.0728529 C52.6704319,74.7018414 49.0573803,75.6658185 45.5153146,75.6658185 C37.6115587,75.6649448 30.0710579,70.859692 27.9863944,69.0263011 C26.3651111,67.6002092 22.5680219,64.260577 18.9641721,57.4657839 C14.6416995,49.3160943 11.9777559,38.8350828 11.045518,26.3140828 C11.045518,25.8067609 11.0428889,25.2900483 11.0400407,24.7665655 C11.0190078,20.6044736 10.9966604,16.1482092 12.182169,12.6301517 C14.6040156,12.5174621 32.1484914,11.7190253 47.1861127,11.4993241 C54.1863318,14.5205425 60.1307449,19.2325425 62.0293991,26.5776805 C62.0589765,26.692554 62.0854867,26.7945425 62.1093678,26.882554 C62.2539687,27.4108414 62.3777559,27.9531057 62.4973803,28.4776805 C62.9480532,30.4525885 63.3404476,32.1590943 64.6508388,32.2213356 C64.6622316,32.2237379 64.6784444,32.2267954 64.7014491,32.2307264 C64.8502128,35.6992092 65.7467387,64.0614046 55.9013865,72.0728529 L55.9013865,72.0728529 Z M4.69162128,19.9822782 C4.52511111,15.1724391 2.64507981,13.2289793 1.53910172,12.4984621 C1.31234116,12.3488644 1.17168388,12.0940023 1.16292019,11.8170828 L0.876454252,2.58330115 C0.872841941,2.46449655 0.962231612,2.36294483 1.08032238,2.35158851 C4.08101095,2.06593333 14.8787574,1.26094483 27.8297433,2.89625517 C44.6067387,5.01464598 57.8243599,10.2448874 67.1151894,18.4417494 C67.2052363,18.5212437 67.2580376,18.6319678 67.263734,18.7529563 C67.4398842,22.4728069 67.2812613,29.0599103 66.1172238,30.8841287 C66.1029828,30.9033471 65.7550642,31.353669 64.7231393,31.353669 C64.0522786,31.353669 63.6962535,29.7930483 63.3520595,28.2839678 C63.2302441,27.7506575 63.1044851,27.1990023 62.9548451,26.6525885 C62.9318404,26.5680713 62.9066448,26.4702322 62.8779437,26.359508 C62.4905884,24.8613471 61.4619499,20.8816115 57.1758466,16.8073126 C51.8477402,11.7419563 43.4271455,8.26146207 32.1493678,6.46301379 C27.8575681,5.76066897 24.207928,5.40447356 21.1544382,5.40447356 C13.7578811,5.40447356 9.86658216,7.49556552 8.8655493,11.8186115 C7.74861659,16.6448299 7.88489202,23.8263931 7.9539061,25.8997954 C7.93550235,25.9854046 7.75058842,26.1328184 7.6824507,26.1360943 C7.02298279,25.9100598 4.85813146,24.7982322 4.69162128,19.9822782 L4.69162128,19.9822782 Z M26.6516839,1.23976092 C34.5810736,1.77896782 42.1813865,3.15024368 49.2420751,5.31515172 C58.0197903,8.00638161 65.9835775,11.9400368 72.9143443,17.0058299 C70.8432645,17.6789103 68.7583818,18.0757264 68.011277,18.2067609 C67.9359092,18.0484276 67.8287731,17.9051632 67.6960031,17.787669 C58.2708701,9.47222069 44.8950642,4.17034713 27.9399468,2.02968046 C23.1608858,1.42626667 18.6745321,1.15371494 14.7562848,1.06373793 C18.1901189,0.933577011 22.2277715,0.938381609 26.6516839,1.23976092 L26.6516839,1.23976092 Z M73.2556901,4.2729908 C76.1047668,4.35095632 78.7084601,4.39332414 81.2262692,4.4346 C92.5395399,4.6197954 100.713437,4.75323218 110.374751,7.96357701 C112.384266,8.6311977 114.796692,9.87777241 117.556379,11.6711977 C115.30893,11.7849793 113.265236,11.953577 111.425737,12.1542782 C108.456817,10.5613356 105.739196,9.59954253 103.971778,9.51568046 C98.0216682,9.09243908 83.1071768,9.57268046 68.6834523,10.0378529 C66.9618247,10.0933241 65.2522473,10.1483586 63.5687418,10.201646 C59.1562222,7.91247356 54.4492426,5.99674943 49.4846103,4.47543908 C48.641543,4.21708276 47.7905884,3.97095632 46.9326228,3.73509425 C52.1476776,3.80847356 62.2791643,3.97335862 73.2556901,4.2729908 L73.2556901,4.2729908 Z M73.2169108,17.8263241 C73.2276463,17.8999218 73.2368482,17.9733011 73.2440782,18.0466805 C72.9925603,18.0372897 72.7758779,18.0318299 72.6104632,18.0318299 C72.5898685,18.0318299 72.5705884,18.0344506 72.5504319,18.0351057 C72.771277,17.9687149 72.9938748,17.8990483 73.2169108,17.8263241 L73.2169108,17.8263241 Z M87.288554,19.4898069 C84.9245477,18.9381517 77.6377559,18.2818874 74.1289922,18.0883931 C74.0934992,17.5983241 73.9740939,16.8079678 73.5775368,16.4126805 L73.5273646,16.3696575 C70.8704319,14.4211747 68.0629828,12.6384506 65.1177246,11.0262897 C66.3080532,10.9882897 67.5053928,10.9498529 68.7117152,10.9109793 C83.1133114,10.4466805 98.0047981,9.96687586 103.919853,10.3877149 C105.324235,10.4543241 107.489086,11.1704276 109.866238,12.3364161 C109.575721,12.3728874 109.290901,12.4100138 109.011997,12.4480138 C99.3955962,13.7550828 94.6171925,15.9481632 94.0648607,16.213508 C90.285518,17.5242897 88.1789452,18.8444621 87.288554,19.4898069 L87.288554,19.4898069 Z M155.559258,15.6207954 C177.19375,19.9964736 183.63857,21.5656115 185.545987,22.0973931 L185.132779,22.3721287 C183.678664,22.0768644 173.495471,20.0126345 161.21425,17.6044391 C139.608898,13.0533931 123.924736,12.2567034 112.983264,12.8738759 C128.436066,11.4104391 144.4699,13.5017494 155.559258,15.6207954 L155.559258,15.6207954 Z M279.862689,58.2115885 C279.744955,56.0844621 279.117912,44.9279678 278.117099,34.1525655 C277.552279,28.0701632 273.056942,21.7276575 265.834344,21.9633011 C247.652091,22.602531 188.569243,21.5618989 186.595002,21.5271747 C184.773249,20.826577 173.704047,18.3991632 155.729055,14.7638299 C140.400698,11.8347724 128.167239,11.2584391 119.040072,11.6054621 C115.797286,9.41107126 112.97472,7.90657701 110.651903,7.13478391 C100.862638,3.88207126 92.6319969,3.74754253 81.2405102,3.56125517 C78.7251111,3.51997931 76.1238279,3.47761149 73.2795712,3.39986437 C57.8451737,2.97815172 44.0796025,2.82331264 43.2965665,2.8147954 C37.9802911,1.5773931 32.417975,0.754933333 26.685205,0.366197701 C13.4601346,-0.530296552 3.64742723,1.1997954 3.00044757,1.31794483 C2.15146479,1.37778391 1.47534585,1.43653103 0.9968482,1.48195632 C0.420635368,1.53677241 -0.0171111111,2.03230115 0.000114433985,2.61016322 L0.286989045,11.8443816 C0.304516432,12.4038989 0.591746479,12.9208299 1.05512676,13.2267954 C3.38802191,14.7675425 3.7626698,18.4854276 3.81569014,20.0124161 C3.99666041,25.2387264 6.38082316,26.6137149 7.39741158,26.9620483 C7.51900782,27.0037609 7.65221596,27.0127149 7.7882723,26.9941517 C7.93221596,27.0122782 8.2196651,27.0408874 8.6083349,27.0408874 C8.8712457,27.0408874 9.17994679,27.0269103 9.51778717,26.9880368 C9.58921127,28.4257034 9.96385915,33.1158644 11.9304319,43.4507724 C13.6785696,52.1654391 17.1117465,59.9510713 21.8581628,65.9659908 C28.0019499,73.7520598 36.3114648,77.9327149 45.4977872,77.9322782 C46.4486479,77.9322782 47.4104632,77.887508 48.3788513,77.7970943 C55.6836088,77.1159333 60.4692426,73.0737379 63.8954085,64.6905885 C66.086989,59.3284391 67.2433584,52.0392092 67.8528732,45.6814161 L67.880698,45.9574621 C68.6830141,45.8773126 70.2004476,45.1869793 70.2004476,43.1467724 C70.2004476,41.7654506 69.9465196,41.2535425 69.7427637,40.8420943 C69.6181002,40.5911632 69.5431706,40.4396 69.5431706,40.0893011 C69.5431706,39.9943011 69.7401346,39.9030138 69.800385,39.8772437 C70.538507,39.5627609 71.9181315,39.6830943 72.3900563,39.8844506 C72.372748,41.7920943 72.1744695,48.5228989 72.1724977,48.5938759 L72.159133,49.0433241 L73.0567543,49.0433241 C73.0775681,50.6227264 73.0707762,56.2574276 71.981011,59.1543816 L71.9531862,59.2284161 L71.9531862,59.307692 C71.9531862,59.7857494 72.3852363,60.2961287 72.8122473,60.5531747 C73.0490861,60.6957839 73.2887731,60.7676345 73.51641,60.7676345 C73.6474272,60.7676345 73.7742817,60.7429563 73.8943443,60.6951287 C74.4475524,60.6521057 75.101543,60.3015885 75.6041408,59.5501057 C75.9213865,59.0757609 78.7104319,54.6537839 78.9639218,45.5613011 C79.1284601,39.6518644 79.1536557,36.9464391 78.6817308,35.7243241 C78.4924351,34.8533816 77.545518,33.342554 75.2032019,33.5391057 L75.1330923,33.5506805 C73.5731549,33.9394161 73.1562222,35.7304391 73.0447042,36.6267149 C71.919446,36.439554 70.0363474,36.2530483 68.4371925,36.7059908 C68.5165039,34.506577 68.5289922,32.8858989 68.5298685,32.1693586 C69.5490861,31.9573011 70.6197903,31.5478184 71.5432645,30.7932782 C73.0344069,29.5746575 73.8312457,27.7104736 73.9164726,25.2492092 C77.9609171,25.8082897 84.7619812,26.7910483 87.0740626,27.381577 C87.2348764,28.4877264 87.4506823,29.6478184 87.7407606,30.8044161 C88.4602598,33.6729793 89.9007919,34.9178069 90.9824507,35.4570138 C91.4716839,35.7009563 91.9324351,35.8260943 92.3099311,35.8889908 C92.3037966,36.2401632 92.2943756,36.5874046 92.2825446,36.9470943 C92.1970986,39.5000828 92.0908388,42.6772322 93.8696495,52.7625195 C95.712216,63.2092437 99.9650172,72.3630943 106.509962,79.969646 C111.507678,85.7777494 116.111465,88.6028529 116.98389,89.1101747 C117.04436,89.145554 117.101105,89.183554 117.158288,89.2250483 C120.999196,92.0012322 130.898225,94.7815655 140.996629,94.7815655 C144.081668,94.7815655 147.186864,94.5218989 150.141981,93.923508 C157.436879,92.4454391 162.658507,89.1778759 165.669055,84.1987839 C174.275878,68.8360828 174.226363,51.5373471 174.152748,48.6600483 C174.390244,48.6493471 174.640228,48.6366805 174.90292,48.6216115 C175.007865,48.6340598 175.294219,48.6628874 175.700854,48.6628874 C176.179571,48.6628874 176.820635,48.6222667 177.511872,48.4661172 C179.415127,48.0358874 180.782482,46.933669 181.466269,45.2787034 C182.168241,43.5794046 182.252153,42.4075195 182.319853,41.4660368 C182.400917,40.3332437 182.449775,39.6492437 183.545236,38.6669218 C184.908648,37.4434966 188.709243,34.9737149 190.058632,34.1254851 L190.052936,34.1163126 C193.659853,33.8413586 205.842482,32.8409103 224.041167,31.343623 C240.972404,29.950508 258.479853,28.5102207 261.499164,28.2951057 C267.524642,27.8659678 268.440009,28.0928759 270.938538,32.8660253 C273.325987,37.4271172 270.993969,57.6667034 270.720103,59.9595885 C270.671903,60.3629563 270.764798,60.7691632 270.981919,61.1030828 C271.400604,61.7477724 272.424642,62.8539218 274.579853,63.0190253 C274.692247,63.0277609 274.803765,63.0319103 274.914626,63.0319103 C276.211872,63.0319103 277.393875,62.4429103 278.35087,61.3144851 C279.170275,60.3483241 279.620072,59.2290713 279.775628,58.7927264 C279.84267,58.6044736 279.871371,58.4087954 279.862689,58.2115885 L279.862689,58.2115885 Z" id="Fill-3" fill="#14145A" mask="url(#mask-2)"></path>
                </g>
                <path d="M172.641427,28.1865874 C176.298955,28.1865874 178.975167,29.093346 179.193164,29.4971506 C178.956326,29.9564264 176.100238,30.807277 172.641427,30.807277 C170.230973,30.807277 168.791975,30.3174264 168.791975,29.4969322 C168.791975,28.6764379 170.230973,28.1865874 172.641427,28.1865874 M172.641427,31.6808402 C174.97016,31.6808402 180.07523,31.1309322 180.07523,29.4969322 C180.07523,27.8629322 174.97016,27.3130241 172.641427,27.3130241 C170.876419,27.3130241 167.915606,27.5967138 167.915606,29.4969322 C167.915606,31.3971506 170.876419,31.6808402 172.641427,31.6808402" id="Fill-6" fill="#14145A"></path>
                <path d="M198.813978,29.1908793 C198.163931,29.4881092 197.283399,29.692523 196.458078,29.7375115 C194.877108,29.8242126 194.021772,29.3206034 193.991756,28.7787759 C193.973352,28.4455115 194.244588,28.1982931 194.475293,28.0493506 C194.777202,27.8547644 195.345308,27.6112586 196.338235,27.5570977 C196.477139,27.549454 196.613196,27.5457414 196.746404,27.5457414 C198.434948,27.5457414 199.660551,28.1220747 199.679612,28.4680057 C199.686623,28.5962011 199.462053,28.894523 198.813978,29.1908793 M196.290254,26.6846264 C195.352319,26.7359483 194.560081,26.9543391 193.998986,27.3162126 C193.397797,27.7038563 193.084495,28.2404425 193.116701,28.8268218 C193.167311,29.7445 194.113571,30.6211207 196.107531,30.6209023 C196.235919,30.6209023 196.368908,30.617408 196.506059,30.6099828 C197.449252,30.5582241 198.423775,30.3304425 199.179424,29.9849483 C200.357703,29.4459598 200.577671,28.836431 200.554667,28.4201782 C200.487844,27.2078908 198.286623,26.5756494 196.290254,26.6846264" id="Fill-8" fill="#14145A"></path>
            </g>
        </g>
    </g>
</svg>