<?xml version="1.0" encoding="UTF-8"?>
<svg width="23px" height="19px" viewBox="0 0 23 19" version="1.1" xmlns="http://www.w3.org/2000/svg" xmlns:xlink="http://www.w3.org/1999/xlink">
    <!-- Generator: Sketch 62 (91390) - https://sketch.com -->
    <title>c</title>
    <desc>Created with Sketch.</desc>
    <g id="Symbols" stroke="none" stroke-width="1" fill="none" fill-rule="evenodd">
        <g id="Footer" transform="translate(-1344.000000, -791.000000)" fill="#FFFFFF" fill-rule="nonzero">
            <path d="M1364.62495,809.249997 C1365.6601,809.249997 1366.49995,808.410155 1366.49995,807.375001 L1366.49995,793.625034 C1366.49995,792.58988 1365.6601,791.750039 1364.62495,791.750039 L1345.875,791.750039 C1344.83984,791.750039 1344,792.58988 1344,793.625034 L1344,807.375001 C1344,808.410155 1344.83984,809.249997 1345.875,809.249997 L1364.62495,809.249997 Z M1356.37496,803.53126 C1355.67184,803.523463 1354.99218,803.374996 1354.62497,803.207035 L1354.84371,801.84378 L1355.05077,801.941436 C1355.56247,802.16799 1355.89839,802.265646 1356.52339,802.265646 C1356.97261,802.265646 1357.457,802.078154 1357.46482,801.67189 C1357.46482,801.410164 1357.2578,801.214852 1356.65233,800.917993 C1356.05857,800.625025 1355.26561,800.140636 1355.27732,799.269552 C1355.28514,798.08986 1356.37496,797.261729 1357.92575,797.261729 C1358.53122,797.261729 1359.02339,797.398448 1359.33199,797.519564 L1359.11715,798.832045 L1358.97654,798.765632 C1358.69529,798.644554 1358.32026,798.523475 1357.80856,798.535186 C1357.19138,798.535186 1356.91402,798.800803 1356.90623,799.0586 C1356.90623,799.343786 1357.24216,799.531278 1357.79292,799.808606 C1358.69529,800.242221 1359.11715,800.769564 1359.10933,801.460938 C1359.09762,802.718755 1358.0234,803.535175 1356.37496,803.53126 Z M1349.95702,803.437519 L1348.29686,803.437519 L1346.89844,798.164094 C1346.41798,797.878946 1345.86718,797.652353 1345.25,797.496104 L1345.27735,797.375025 L1347.80469,797.375025 C1348.14844,797.390666 1348.42576,797.500033 1348.5156,797.886728 L1349.06247,800.675799 L1349.23047,801.51564 L1350.76562,797.375025 L1352.42577,797.375025 L1349.95702,803.437519 Z M1353.64452,803.445339 L1352.0781,803.445339 L1353.05859,797.375025 L1354.62887,797.375025 L1353.64452,803.445339 Z M1360.64059,803.445339 L1358.99214,803.445339 L1361.32418,797.878946 C1361.48432,797.484392 1361.7695,797.375025 1362.14449,797.375025 L1363.35931,797.375025 L1364.62495,803.445339 L1363.17182,803.445339 C1363.17182,803.445339 1363.03121,802.749997 1362.98433,802.535154 L1360.96872,802.535154 C1360.91013,802.695333 1360.64059,803.445339 1360.64059,803.445339 Z M1362.72653,801.292977 C1362.66012,800.988298 1362.36322,799.535169 1362.36322,799.535169 L1362.25386,799.011755 C1362.17573,799.23831 1362.03901,799.605474 1362.04683,799.593762 C1362.04683,799.593762 1361.55073,800.945345 1361.42183,801.292977 L1362.72653,801.292977 Z" id="c"></path>
        </g>
    </g>
</svg>