<?xml version="1.0" encoding="UTF-8"?>
<svg width="43px" height="30px" viewBox="0 0 43 30" version="1.1" xmlns="http://www.w3.org/2000/svg" xmlns:xlink="http://www.w3.org/1999/xlink">
    <!-- Generator: Sketch 62 (91390) - https://sketch.com -->
    <title>y</title>
    <desc>Created with Sketch.</desc>
    <g id="Results-Page-/-Brand-Page" stroke="none" stroke-width="1" fill="none" fill-rule="evenodd">
        <path d="M38.1695233,29.1026328 C40.0052276,28.6088595 41.4509944,27.2142858 41.9417159,25.3666797 C42.7797906,22.2186282 42.8300751,15.85571 42.8330922,15.1034928 L42.8330922,14.9571568 C42.8300751,14.2049477 42.7797906,7.8420969 41.9417159,4.69404532 C41.4509944,2.84636296 40.0052276,1.39121201 38.1695233,0.897438771 C35.1493373,0.0829054251 23.8777973,0.00771773169 21.8226317,0.000777329215 L21.1772628,0.000777329215 C19.1221082,0.00771773169 7.8506247,0.0829054251 4.8303694,0.897438771 C2.99466516,1.3912883 1.54889834,2.84636296 1.05817686,4.69404532 C0.220102072,7.8420969 0.169817584,14.2049477 0.166800515,14.9571568 L0.166800515,15.1034928 C0.169817584,15.85571 0.220102072,22.2186282 1.05817686,25.3666797 C1.54889834,27.2142858 2.99466516,28.6088595 4.8303694,29.1026328 C7.8506247,29.9171661 19.1221082,29.9923538 21.1772628,29.9992942 L21.8226299,29.9992942 C23.8777845,29.9923538 35.149268,29.9171661 38.1695233,29.1026328 Z M17.1362483,21.3743034 L17.1362483,8.68634537 L28.2877262,15.030477 L17.1362483,21.3743034 Z" id="y" fill="#FFFFFF" fill-rule="nonzero"></path>
    </g>
</svg>