<?xml version="1.0" encoding="UTF-8"?>
<svg width="20px" height="21px" viewBox="0 0 20 21" version="1.1" xmlns="http://www.w3.org/2000/svg" xmlns:xlink="http://www.w3.org/1999/xlink">
    <!-- Generator: Sketch 62 (91390) - https://sketch.com -->
    <title>f</title>
    <desc>Created with Sketch.</desc>
    <g id="Symbols" stroke="none" stroke-width="1" fill="none" fill-rule="evenodd">
        <g id="Footer" transform="translate(-781.000000, -480.000000)" fill="#A5E0F0" fill-rule="nonzero">
            <path d="M792.513644,500.070308 C797.144867,499.342961 800.687453,495.335173 800.687453,490.500018 C800.687453,485.148468 796.351526,480.812541 790.999976,480.812541 C785.648426,480.812541 781.312499,485.148468 781.312499,490.500018 C781.312499,495.335173 784.855086,499.342961 789.486308,500.070308 L789.486308,493.300419 L787.025376,493.300419 L787.025376,490.500018 L789.486308,490.500018 L789.486308,488.365662 C789.486308,485.937918 790.931617,484.596902 793.14528,484.596902 C794.20542,484.596902 795.314045,484.785958 795.314045,484.785958 L795.314045,487.168765 L794.092162,487.168765 C792.889048,487.168765 792.513644,487.915643 792.513644,488.68167 L792.513644,490.500018 L795.200367,490.500018 L794.770681,493.300419 L792.513644,493.300419 L792.513644,500.070308 Z" id="f"></path>
        </g>
    </g>
</svg>