<?xml version="1.0" encoding="UTF-8"?>
<svg width="20px" height="21px" viewBox="0 0 20 21" version="1.1" xmlns="http://www.w3.org/2000/svg" xmlns:xlink="http://www.w3.org/1999/xlink">
    <!-- Generator: Sketch 62 (91390) - https://sketch.com -->
    <title>g</title>
    <desc>Created with Sketch.</desc>
    <g id="Symbols" stroke="none" stroke-width="1" fill="none" fill-rule="evenodd">
        <g id="Footer" transform="translate(-841.000000, -480.000000)" fill="#A5E0F0" fill-rule="nonzero">
            <path d="M850.687477,500.187495 C856.277292,500.187495 860.062455,496.253903 860.062455,490.726572 C860.062455,490.082042 859.99997,489.605474 859.910096,489.109411 L850.687477,489.109411 L850.687477,492.441427 L856.187456,492.441427 C855.960902,493.867205 854.523413,496.617176 850.687477,496.617176 C847.382813,496.617176 844.683577,493.878916 844.683577,490.500018 C844.683577,485.054703 851.097632,482.554709 854.546835,485.882834 L857.183548,483.347706 C855.492153,481.76957 853.296838,480.812541 850.687477,480.812541 C845.328107,480.812541 841,485.140648 841,490.500018 C841,495.859388 845.328107,500.187495 850.687477,500.187495 Z" id="g"></path>
        </g>
    </g>
</svg>