<?xml version="1.0" encoding="UTF-8"?>
<svg width="20px" height="15px" viewBox="0 0 20 15" version="1.1" xmlns="http://www.w3.org/2000/svg" xmlns:xlink="http://www.w3.org/1999/xlink">
    <!-- Generator: Sketch 62 (91390) - https://sketch.com -->
    <title>e</title>
    <desc>Created with Sketch.</desc>
    <g id="Symbols" stroke="none" stroke-width="1" fill="none" fill-rule="evenodd">
        <g id="Footer" transform="translate(-238.000000, -487.000000)" fill="#A5E0F0" fill-rule="nonzero">
            <path d="M247.999976,497.000012 C248.906232,497.015652 250.210893,495.859382 250.867172,495.382813 C256.050723,491.621111 256.445276,491.29301 257.640571,490.355512 C257.867125,490.179731 257.999952,489.906294 257.999952,489.617217 L257.999952,488.875031 C257.999952,487.839878 257.160111,487.000036 256.124957,487.000036 L239.874996,487.000036 C238.839842,487.000036 238,487.839878 238,488.875031 L238,489.617217 C238,489.906294 238.132827,490.175802 238.359382,490.355512 C239.554676,491.28908 239.949229,491.621111 245.13278,495.382813 C245.789059,495.859382 247.093721,497.015652 247.999976,497.000012 Z M256.124957,502 C257.160111,502 257.999952,501.160158 257.999952,500.125004 L257.999952,492.136742 C257.999952,491.945321 257.773398,491.832063 257.621039,491.953141 C256.746064,492.632842 255.589794,493.500036 251.605429,496.394545 C250.812469,496.972661 249.394512,498.265649 247.999976,498.2539 C246.613261,498.26172 245.222654,496.996121 244.398415,496.394545 C240.414049,493.500036 239.253888,492.636733 238.378913,491.95707 C238.222663,491.835954 238,491.945321 238,492.140633 L238,500.125004 C238,501.160158 238.839842,502 239.874996,502 L256.124957,502 Z" id="e"></path>
        </g>
    </g>
</svg>