<?xml version="1.0" encoding="UTF-8"?>
<svg width="20px" height="21px" viewBox="0 0 20 21" version="1.1" xmlns="http://www.w3.org/2000/svg" xmlns:xlink="http://www.w3.org/1999/xlink">
    <!-- Generator: Sketch 62 (91390) - https://sketch.com -->
    <title>P</title>
    <desc>Created with Sketch.</desc>
    <g id="Symbols" stroke="none" stroke-width="1" fill="none" fill-rule="evenodd">
        <g id="Footer" transform="translate(-61.000000, -485.000000)" fill="#A5E0F0" fill-rule="nonzero">
            <path d="M62.8749955,505.499994 C72.8788627,505.499994 80.9999523,497.394545 80.9999523,487.375037 C80.9999523,486.937531 80.6991642,486.558618 80.2734068,486.460962 L76.2109165,485.523464 C75.7694808,485.421917 75.3163721,485.6524 75.1367003,486.066447 L73.2617048,490.441436 C73.097635,490.82424 73.2070021,491.273458 73.5312125,491.535184 L75.8984172,493.472664 C74.4921706,496.468758 72.0351299,498.960932 68.9765511,500.39453 L67.0390328,498.027363 C66.7734161,497.703153 66.3281276,497.593748 65.9452855,497.757817 L61.5702959,499.632813 C61.1523586,499.816414 60.9218752,500.269523 61.0234222,500.710958 L61.96092,504.773449 C62.058576,505.195315 62.433598,505.499994 62.8749955,505.499994 Z" id="P"></path>
        </g>
    </g>
</svg>