<?xml version="1.0" encoding="UTF-8"?>
<svg width="22px" height="23px" viewBox="0 0 22 23" version="1.1" xmlns="http://www.w3.org/2000/svg" xmlns:xlink="http://www.w3.org/1999/xlink">
    <!-- Generator: Sketch 62 (91390) - https://sketch.com -->
    <title>product-review</title>
    <desc>Created with Sketch.</desc>
    <g id="Symbols" stroke="none" stroke-width="1" fill="none" fill-rule="evenodd">
        <g id="Footer" transform="translate(-900.000000, -480.000000)" fill="#A5E0F0" fill-rule="nonzero">
            <g id="product-review" transform="translate(900.000000, 480.000000)">
                <path d="M15.1031746,6.08721805 L10.781746,8.52844612 L5.8521164,7.51390977 C5.8521164,7.51390977 6.52433862,6.94323308 7.90079365,6.15062657 C9.34126984,5.32631579 10.2375661,5.16779449 10.2375661,5.16779449 C10.2375661,5.16779449 11.2298942,5.13609023 12.7664021,5.45313283 C14.3669312,5.73847118 15.1031746,6.08721805 15.1031746,6.08721805 Z M16.4156085,9.47957393 C16.6716931,11.3818296 16.6396825,12.523183 16.6396825,12.523183 C16.6396825,12.523183 16.3195767,12.9036341 14.7830688,14.0449875 C13.4386243,15.0278195 12.2542328,15.5984962 12.2542328,15.5984962 L11.2298942,9.09912281 L15.6793651,6.62619048 C15.6793651,6.62619048 16.1275132,7.51390977 16.4156085,9.47957393 Z M10.4936508,9.22593985 L11.4859788,15.7253133 C11.4859788,15.7253133 10.173545,15.5033835 8.73306878,14.9327068 C7.03650794,14.2669173 6.23624339,13.8230576 6.23624339,13.8230576 C6.23624339,13.8230576 5.88412698,12.9353383 5.62804233,11.1281955 C5.37195767,9.5112782 5.46798942,8.17969925 5.46798942,8.17969925 L10.4936508,9.22593985 Z" id="Shape"></path>
                <path d="M21.4092593,10.3038847 C21.4092593,12.65 20.6089947,14.837594 19.2645503,16.5813283 L20.8650794,22.8270677 C20.8650794,22.8270677 15.0391534,19.7834586 15.0391534,19.7834586 C13.8227513,20.3224311 12.4462963,20.6077694 11.0058201,20.6077694 C5.27592593,20.6077694 0.602380952,15.9789474 0.602380952,10.3038847 C0.602380952,4.59711779 5.27592593,0 11.0058201,0 C16.7357143,0 21.4092593,4.59711779 21.4092593,10.3038847 Z M15.1031746,17.6909774 L17.984127,19.212782 L17.1838624,16.1057644 C17.1838624,16.1057644 17.215873,16.0740602 17.2478836,16.0423559 C18.6563492,14.5522556 19.5206349,12.523183 19.5206349,10.3038847 C19.5206349,5.6433584 15.7113757,1.87055138 11.0058201,1.87055138 C6.30026455,1.87055138 2.49100529,5.6433584 2.49100529,10.3038847 C2.49100529,14.964411 6.30026455,18.737218 11.0058201,18.737218 C12.4783069,18.737218 13.8867725,18.3567669 15.071164,17.7226817 C15.1031746,17.6909774 15.1031746,17.6909774 15.1031746,17.6909774 Z" id="Shape"></path>
            </g>
        </g>
    </g>
</svg>