<?xml version="1.0" encoding="UTF-8"?>
<svg width="15px" height="21px" viewBox="0 0 15 21" version="1.1" xmlns="http://www.w3.org/2000/svg" xmlns:xlink="http://www.w3.org/1999/xlink">
    <!-- Generator: Sketch 62 (91390) - https://sketch.com -->
    <title>y</title>
    <desc>Created with Sketch.</desc>
    <g id="Symbols" stroke="none" stroke-width="1" fill="none" fill-rule="evenodd">
        <g id="Footer" transform="translate(-962.000000, -480.000000)" fill="#A5E0F0" fill-rule="nonzero">
            <path d="M969.77113,489.532041 L969.77113,481.385812 L969.77113,481.385812 C969.77113,480.896998 969.374403,480.500271 968.88555,480.500271 C968.86579,480.500271 968.833747,480.501568 968.814063,480.50317 C967.543085,480.604183 965.577338,481.130915 964.42618,481.678933 C964.147021,481.813286 963.920467,482.173774 963.920467,482.483565 C963.920467,482.615286 963.973758,482.814795 964.039447,482.92893 L968.106629,489.977367 C968.563667,490.766436 969.77113,490.442187 969.77113,489.532041 Z M972.13124,492.185156 L976.296841,490.993372 C976.652751,490.88862 976.941638,490.502497 976.941638,490.131481 C976.941638,490.028637 976.90845,489.868611 976.867556,489.774235 L976.865992,489.774235 C976.488643,488.906165 975.606459,487.693247 974.89685,487.066837 C974.757462,486.944652 974.493867,486.845508 974.308511,486.845508 C974.046671,486.845508 973.715213,487.021633 973.568729,487.238688 L971.146859,490.829302 C970.682001,491.520714 971.33046,492.41564 972.13124,492.185156 Z M962.97431,494.528824 C963.035154,494.528824 963.13239,494.516808 963.191403,494.501969 L967.391375,493.454685 C968.199975,493.251591 968.317162,492.153533 967.567156,491.786331 L963.675793,489.887532 C963.573673,489.837674 963.398655,489.797238 963.285054,489.797238 C962.93189,489.797238 962.55374,490.068844 962.441016,490.403544 C962.21923,491.062951 962.039253,492.162764 962.039253,492.858487 C962.039253,493.101559 962.06176,493.494853 962.089454,493.736323 C962.137787,494.173791 962.534171,494.528824 962.97431,494.528824 Z M974.127618,499.030614 C974.305078,499.030614 974.56028,498.939024 974.697228,498.826185 C975.426825,498.223007 976.349255,497.039843 976.756206,496.185162 C976.80263,496.085561 976.840281,495.91554 976.840281,495.805677 C976.840281,495.447935 976.564823,495.066009 976.225354,494.953132 L972.107398,493.614863 C971.314057,493.360958 970.630465,494.232042 971.071863,494.939476 L973.369106,498.611342 C973.514484,498.842779 973.854296,499.030614 974.127618,499.030614 Z M968.647361,500.500299 C969.122175,500.500299 969.52062,500.115168 969.536718,499.640621 L969.689038,495.311713 C969.716389,494.479691 968.692947,494.065225 968.13398,494.682823 L965.235161,497.901581 C965.109047,498.041847 965.006737,498.308799 965.006737,498.497435 C965.006737,498.757025 965.180649,499.086652 965.39492,499.233212 C966.174642,499.76765 967.564486,500.329592 968.496872,500.487482 C968.538108,500.494577 968.605514,500.500299 968.647361,500.500299 Z" id="y"></path>
        </g>
    </g>
</svg>